<?xml version="1.0" encoding="utf-8"?>
<!-- Generator: Adobe Illustrator 16.0.0, SVG Export Plug-In . SVG Version: 6.00 Build 0)  -->
<!DOCTYPE svg PUBLIC "-//W3C//DTD SVG 1.1//EN" "http://www.w3.org/Graphics/SVG/1.1/DTD/svg11.dtd">
<svg version="1.1" id="Layer_1" xmlns="http://www.w3.org/2000/svg" xmlns:xlink="http://www.w3.org/1999/xlink" x="0px" y="0px"
	 width="29.869px" height="23.16px" viewBox="0.065 5.246 29.869 23.16" enable-background="new 0.065 5.246 29.869 23.16"
	 xml:space="preserve">
<g>
	<g>
		<path fill="#9DCCA2" d="M26.102,21.94l-6.666-2.977l-8.29-8.703c-0.072-0.077-0.158-0.137-0.252-0.178
			C10.642,9.972,10.34,10,10.112,10.157c-0.326,0.228-0.436,0.651-0.261,1.005l2.179,4.494l-5.356-2.392
			c-0.191-1.567-0.362-3.069-0.511-4.469c-0.228-2.17-0.745-3.322-1.579-3.521C4.502,5.256,4.42,5.246,4.335,5.246
			c-0.734,0-1.31,0.742-1.463,1.09l-2.708,7.146c-0.113,0.255-0.129,0.478-0.049,0.684c0.135,0.343,0.483,0.491,0.849,0.646
			l1.313,0.581l6.156,3.919l-3.425,0.98c-0.378,0.109-0.619,0.474-0.571,0.866c0.032,0.274,0.211,0.517,0.467,0.631
			C5,21.834,5.098,21.855,5.203,21.858l6.686,0.203c0.019,0.465,0.299,0.886,0.734,1.082c0.138,0.062,0.279,0.096,0.441,0.104
			c0.108,0.111,0.233,0.198,0.37,0.26c0.586,0.262,1.302,0.009,1.598-0.536c0.222-0.051,0.424-0.161,0.586-0.318l8.161,3.644
			c-0.102,0.103-0.185,0.225-0.244,0.358c-0.135,0.304-0.144,0.642-0.024,0.951c0.117,0.311,0.35,0.557,0.652,0.691
			c0.073,0.033,0.147,0.058,0.223,0.075c0.095,0.022,0.191,0.034,0.287,0.034c0.488,0,0.935-0.289,1.135-0.737
			c0.061-0.134,0.095-0.276,0.105-0.42l0.887,0.396c0.173,0.076,0.339,0.157,0.499,0.234c0.374,0.181,0.729,0.352,1.061,0.431
			c0.133,0.031,0.258,0.048,0.376,0.048c0.515,0,0.896-0.291,1.178-0.923l0.017-0.092C30.058,25.146,27.488,22.561,26.102,21.94z"/>
	</g>
</g>
</svg>
