<?xml version="1.0" encoding="utf-8"?>
<!-- Generator: Adobe Illustrator 16.0.0, SVG Export Plug-In . SVG Version: 6.00 Build 0)  -->
<!DOCTYPE svg PUBLIC "-//W3C//DTD SVG 1.1//EN" "http://www.w3.org/Graphics/SVG/1.1/DTD/svg11.dtd">
<svg version="1.1" id="Capa_1" xmlns="http://www.w3.org/2000/svg" xmlns:xlink="http://www.w3.org/1999/xlink" x="0px" y="0px"
	 width="30px" height="24px" viewBox="0 -3.226 30 24" enable-background="new 0 -3.226 30 24" xml:space="preserve">
<g>
	<g>
		<g>
			<path fill="#9DCCA2" d="M29.703,0.653l-0.063-0.057c-0.559-0.39-1.352-0.595-2.293-0.595c-1.498,0-3.052,0.508-3.75,0.984
				l-5.516,3.766L7.332,7.035C7.237,7.055,7.15,7.092,7.07,7.146C6.862,7.291,6.741,7.537,6.755,7.79
				c0.021,0.363,0.299,0.651,0.657,0.685l4.546,0.458l-4.432,3.025c-1.319-0.605-2.572-1.193-3.724-1.745
				c-1.786-0.854-2.952-1.006-3.5-0.458c-0.57,0.57-0.198,1.545,0.005,1.844l4.269,5.533c0.144,0.21,0.309,0.329,0.506,0.366
				c0.329,0.056,0.614-0.142,0.911-0.353l1.082-0.746l6.005-2.914l-0.878,3.138c-0.097,0.349,0.071,0.708,0.4,0.86
				c0.094,0.043,0.199,0.064,0.303,0.064c0.148,0,0.29-0.044,0.414-0.127c0.08-0.053,0.144-0.12,0.197-0.201L16.951,12l2.101-2.459
				l9.321-6.363c0.143-0.097,0.281-0.187,0.421-0.276c0.321-0.206,0.625-0.4,0.845-0.62C30.109,1.812,30.137,1.288,29.703,0.653z"/>
		</g>
	</g>
</g>
</svg>
