<?xml version="1.0" encoding="utf-8"?>
<!-- Generator: Adobe Illustrator 16.0.0, SVG Export Plug-In . SVG Version: 6.00 Build 0)  -->
<!DOCTYPE svg PUBLIC "-//W3C//DTD SVG 1.1//EN" "http://www.w3.org/Graphics/SVG/1.1/DTD/svg11.dtd">
<svg version="1.1" id="Layer_1" xmlns="http://www.w3.org/2000/svg" xmlns:xlink="http://www.w3.org/1999/xlink" x="0px" y="0px"
	 width="27px" height="21px" viewBox="1.435 1.08 27 21" enable-background="new 1.435 1.08 27 21" xml:space="preserve">
<g>
	<g>
		<path fill="#607D8B" d="M24.972,16.158l-6.021-2.688l-7.489-7.862c-0.065-0.069-0.143-0.124-0.228-0.16
			c-0.228-0.1-0.5-0.074-0.707,0.067c-0.294,0.206-0.394,0.588-0.235,0.908l1.968,4.059L7.422,8.322
			C7.25,6.907,7.096,5.55,6.961,4.286c-0.207-1.96-0.673-3-1.427-3.181C5.46,1.088,5.386,1.08,5.309,1.08
			c-0.663,0-1.183,0.67-1.321,0.984L1.542,8.52C1.44,8.749,1.426,8.951,1.498,9.137C1.62,9.447,1.934,9.581,2.265,9.721l1.186,0.524
			l5.561,3.541l-3.094,0.885c-0.341,0.098-0.559,0.427-0.515,0.782c0.028,0.247,0.19,0.466,0.421,0.569
			c0.086,0.042,0.176,0.061,0.271,0.062l6.039,0.184c0.017,0.42,0.27,0.801,0.663,0.979c0.125,0.056,0.252,0.086,0.399,0.093
			c0.097,0.101,0.21,0.18,0.334,0.236c0.529,0.235,1.176,0.007,1.444-0.485c0.2-0.045,0.382-0.146,0.529-0.287l7.371,3.291
			c-0.093,0.095-0.167,0.203-0.221,0.325c-0.122,0.274-0.13,0.578-0.021,0.856c0.105,0.282,0.316,0.506,0.59,0.626
			c0.064,0.029,0.133,0.053,0.201,0.068c0.085,0.02,0.171,0.03,0.261,0.03c0.439,0,0.844-0.261,1.022-0.666
			c0.057-0.12,0.086-0.25,0.096-0.381l0.801,0.358c0.158,0.068,0.307,0.143,0.452,0.211c0.337,0.165,0.658,0.318,0.957,0.391
			c0.12,0.029,0.235,0.043,0.34,0.043c0.466,0,0.809-0.264,1.063-0.833l0.018-0.083C28.544,19.055,26.224,16.721,24.972,16.158z"/>
	</g>
</g>
</svg>
