<?xml version="1.0" encoding="utf-8"?>
<!-- Generator: Adobe Illustrator 16.0.0, SVG Export Plug-In . SVG Version: 6.00 Build 0)  -->
<!DOCTYPE svg PUBLIC "-//W3C//DTD SVG 1.1//EN" "http://www.w3.org/Graphics/SVG/1.1/DTD/svg11.dtd">
<svg version="1.1" id="Capa_1" xmlns="http://www.w3.org/2000/svg" xmlns:xlink="http://www.w3.org/1999/xlink" x="0px" y="0px"
	 width="16px" height="16px" viewBox="53.866 53.866 16 16" enable-background="new 53.866 53.866 16 16" xml:space="preserve">
<g>
	<g>
		<circle fill="#607D8B" cx="61.865" cy="55.633" r="1.767"/>
		<path fill="#607D8B" d="M60.055,60.71v0.926h3.617v-0.947c0.099,0.267,0.19,0.579,0.277,0.947h1.382
			c-0.542-2.154-1.636-3.591-3.027-4.132l-0.439,0.443l-0.427-0.448c-0.002,0.001-0.004,0.001-0.005,0.001
			c-1.673,0.544-2.57,2.02-3.043,4.137h1.396C59.869,61.278,59.96,60.971,60.055,60.71z M61.86,58.012h0.008l0.427,2.848
			l-0.427,0.584H61.86l-0.426-0.584L61.86,58.012z"/>
		<path fill="#607D8B" d="M55.713,62.038v1.704h1.954v6.125h8.399v-6.125h1.954v-1.704H55.713z M62.761,63.831
			c0.647,0.251,1.163,0.768,1.414,1.414c0.036,0.093-0.016,0.139-0.11,0.104c-0.282-0.101-0.613-0.179-0.972-0.231
			c-0.099-0.016-0.188-0.106-0.203-0.205c-0.055-0.359-0.133-0.69-0.234-0.972C62.623,63.848,62.667,63.795,62.761,63.831z
			 M61.125,64.883c0.068-0.414,0.167-0.765,0.281-1.026c0.039-0.092,0.159-0.176,0.26-0.185c0.065-0.005,0.133-0.008,0.2-0.008
			s0.134,0.003,0.2,0.008c0.1,0.009,0.221,0.093,0.261,0.185c0.112,0.262,0.212,0.612,0.279,1.026
			c0.017,0.099-0.054,0.171-0.153,0.165c-0.195-0.013-0.392-0.021-0.587-0.021s-0.393,0.008-0.587,0.021
			C61.18,65.054,61.109,64.982,61.125,64.883z M59.558,65.245c0.251-0.646,0.766-1.162,1.413-1.414
			c0.094-0.036,0.139,0.016,0.105,0.11c-0.102,0.281-0.178,0.615-0.232,0.972c-0.016,0.099-0.105,0.19-0.205,0.205
			c-0.356,0.053-0.689,0.131-0.971,0.231C59.573,65.384,59.522,65.339,59.558,65.245z M59.399,66.341
			c-0.006-0.066-0.008-0.134-0.008-0.201c0-0.068,0.002-0.134,0.008-0.2c0.008-0.101,0.093-0.22,0.184-0.261
			c0.262-0.112,0.612-0.212,1.025-0.28c0.1-0.017,0.174,0.055,0.167,0.154c-0.015,0.195-0.021,0.392-0.021,0.587
			s0.006,0.391,0.021,0.587c0.007,0.1-0.067,0.172-0.167,0.153c-0.413-0.067-0.763-0.166-1.025-0.28
			C59.491,66.561,59.406,66.44,59.399,66.341z M60.971,68.449c-0.647-0.253-1.162-0.768-1.413-1.414
			c-0.037-0.095,0.015-0.14,0.109-0.104c0.282,0.1,0.615,0.179,0.972,0.232c0.1,0.015,0.189,0.104,0.205,0.206
			c0.055,0.355,0.131,0.688,0.232,0.97C61.11,68.434,61.065,68.486,60.971,68.449z M62.607,67.398
			c-0.067,0.414-0.167,0.764-0.279,1.026c-0.041,0.091-0.161,0.175-0.261,0.185c-0.066,0.005-0.133,0.007-0.201,0.007
			c-0.066,0-0.134-0.002-0.199-0.007c-0.102-0.009-0.221-0.094-0.261-0.185c-0.113-0.263-0.212-0.612-0.281-1.026
			c-0.016-0.099,0.054-0.172,0.155-0.166c0.194,0.014,0.391,0.021,0.586,0.021s0.393-0.008,0.587-0.021
			C62.553,67.226,62.623,67.299,62.607,67.398z M62.486,66.956c-0.198,0.016-0.405,0.022-0.62,0.022
			c-0.214,0-0.42-0.007-0.618-0.022c-0.101-0.007-0.19-0.095-0.198-0.196c-0.014-0.198-0.021-0.405-0.021-0.62
			s0.008-0.42,0.021-0.619c0.008-0.1,0.098-0.189,0.198-0.195c0.198-0.016,0.404-0.024,0.618-0.024c0.215,0,0.422,0.009,0.62,0.024
			c0.1,0.006,0.19,0.096,0.196,0.195c0.014,0.199,0.023,0.404,0.023,0.619s-0.01,0.422-0.023,0.62
			C62.676,66.862,62.585,66.949,62.486,66.956z M64.175,67.035c-0.251,0.646-0.767,1.161-1.414,1.414
			c-0.094,0.036-0.138-0.016-0.105-0.11c0.102-0.282,0.18-0.614,0.234-0.97c0.015-0.102,0.104-0.191,0.203-0.206
			c0.358-0.054,0.691-0.133,0.973-0.232C64.159,66.896,64.211,66.943,64.175,67.035z M64.334,66.341
			c-0.009,0.099-0.095,0.221-0.187,0.259c-0.26,0.116-0.61,0.213-1.024,0.283c-0.1,0.016-0.172-0.057-0.165-0.156
			c0.014-0.194,0.021-0.392,0.021-0.587c0-0.194-0.007-0.392-0.021-0.587c-0.007-0.1,0.065-0.169,0.165-0.153
			c0.414,0.067,0.765,0.167,1.024,0.279c0.092,0.041,0.178,0.162,0.187,0.261c0.004,0.067,0.008,0.134,0.008,0.2
			C64.342,66.207,64.338,66.275,64.334,66.341z"/>
	</g>
</g>
</svg>
