<?xml version="1.0" encoding="utf-8"?>
<!-- Generator: Adobe Illustrator 16.0.0, SVG Export Plug-In . SVG Version: 6.00 Build 0)  -->
<!DOCTYPE svg PUBLIC "-//W3C//DTD SVG 1.1//EN" "http://www.w3.org/Graphics/SVG/1.1/DTD/svg11.dtd">
<svg version="1.1" id="Capa_1" xmlns="http://www.w3.org/2000/svg" xmlns:xlink="http://www.w3.org/1999/xlink" x="0px" y="0px"
	 width="32px" height="32px" viewBox="45.5 45.5 32 32" enable-background="new 45.5 45.5 32 32" xml:space="preserve">
<g>
	<path fill="#607D8B" d="M76.943,50.5H46.07c-0.287,0-0.519,0.231-0.519,0.519v19.467c0,0.287,0.232,0.519,0.519,0.519h30.874
		c0.286,0,0.52-0.231,0.52-0.519V51.019C77.463,50.731,77.229,50.5,76.943,50.5z M47.409,53.467h10.149v1.254H47.409V53.467z
		 M49.389,67.189h-0.543v1.733h-0.599v-1.733h-0.543v-0.491h1.685V67.189z M50.257,68.923h-0.605v-2.225h0.605V68.923z
		 M51.707,68.461c0.099,0,0.193-0.015,0.286-0.041c0.092-0.027,0.185-0.062,0.277-0.101v0.511c-0.185,0.081-0.394,0.119-0.628,0.119
		c-0.335,0-0.592-0.095-0.771-0.289c-0.18-0.194-0.269-0.479-0.269-0.843c0-0.233,0.043-0.431,0.131-0.608
		c0.085-0.173,0.21-0.31,0.372-0.401c0.166-0.094,0.355-0.14,0.575-0.14c0.242,0,0.47,0.053,0.689,0.155l-0.185,0.474
		c-0.081-0.04-0.165-0.072-0.247-0.098c-0.081-0.027-0.169-0.042-0.265-0.042c-0.142,0-0.253,0.062-0.333,0.177
		c-0.08,0.12-0.12,0.281-0.12,0.483C51.219,68.244,51.381,68.461,51.707,68.461z M54.55,68.923h-0.678l-0.439-0.852l-0.178,0.105
		v0.746h-0.603v-2.225h0.603v0.966c0.031-0.061,0.091-0.153,0.184-0.283l0.466-0.683h0.657l-0.7,0.993L54.55,68.923z M56.056,67.18
		h-0.719v0.35h0.666v0.483h-0.666v0.419h0.719v0.491h-1.319v-2.225h1.319V67.18z M57.915,67.189h-0.542v1.733h-0.599v-1.733H56.23
		v-0.491h1.685V67.189z M61.723,61.684H47.409v-1.255h14.313V61.684z M61.723,58.114H47.409v-1.253h14.313V58.114z M75.494,62.694
		l-4.652-1.189l-0.106,3.516c-0.012,0.057-0.005,0.262-0.005,0.262s0.061,0.061,0.116,0.104l0.729,0.562l0.142,1.111
		c-0.014-0.002-0.028-0.004-0.044-0.01l-1.084-0.327c-0.135-0.046-0.157-0.143-0.154-0.208c-0.02,0.06-0.065,0.166-0.157,0.346
		c0,0-0.246,0.598-0.468,0.598h-0.003c-0.216,0-0.469-0.598-0.469-0.598c-0.093-0.18-0.139-0.286-0.157-0.346
		c0.004,0.065-0.021,0.162-0.154,0.208l-1.083,0.327c-0.018,0.006-0.033,0.008-0.046,0.01l0.145-1.111l0.728-0.562
		c0.056-0.044,0.123-0.104,0.123-0.104s0.004-0.205-0.008-0.262l-0.11-3.516l-4.652,1.187c-0.125,0.033-0.213-0.046-0.197-0.175
		l0.137-1.075c0.016-0.127,0.124-0.275,0.24-0.326l4.483-1.975l0.1-3.5c0.02-0.646,0.264-1.312,0.548-1.486
		c0.105-0.069,0.239-0.102,0.373-0.11h0.004c0.135,0.008,0.267,0.041,0.375,0.11c0.281,0.174,0.526,0.84,0.546,1.486l0.099,3.5
		l4.481,1.975c0.119,0.051,0.227,0.198,0.244,0.326l0.137,1.075C75.711,62.646,75.617,62.726,75.494,62.694z"/>
</g>
</svg>
