<?xml version="1.0" encoding="utf-8"?>
<!-- Generator: Adobe Illustrator 16.0.0, SVG Export Plug-In . SVG Version: 6.00 Build 0)  -->
<!DOCTYPE svg PUBLIC "-//W3C//DTD SVG 1.1//EN" "http://www.w3.org/Graphics/SVG/1.1/DTD/svg11.dtd">
<svg version="1.1" id="Capa_1" xmlns="http://www.w3.org/2000/svg" xmlns:xlink="http://www.w3.org/1999/xlink" x="0px" y="0px"
	 width="16px" height="16px" viewBox="298 298 16 16" enable-background="new 298 298 16 16" xml:space="preserve">
<g>
	<g>
		<path fill="#607D8B" d="M313.362,302.884c-0.845-1.968-2.278-3.399-4.262-4.246c-0.991-0.422-2.028-0.639-3.113-0.639
			s-2.116,0.214-3.105,0.639c-1.967,0.845-3.407,2.274-4.252,4.246c-0.423,0.988-0.63,2.021-0.63,3.106
			c0,1.084,0.207,2.129,0.63,3.116c0.845,1.974,2.285,3.411,4.252,4.255c0.99,0.424,2.021,0.639,3.105,0.639
			s2.122-0.217,3.113-0.639c1.983-0.848,3.417-2.287,4.262-4.255c0.423-0.99,0.638-2.031,0.638-3.116
			C314,304.906,313.785,303.875,313.362,302.884z M312.086,309.527c-0.629,1.076-1.49,1.933-2.573,2.564
			c-1.077,0.628-2.257,0.943-3.525,0.943c-0.953,0-1.863-0.184-2.729-0.559c-0.867-0.376-1.615-0.871-2.24-1.497
			c-0.626-0.626-1.124-1.381-1.496-2.249c-0.372-0.864-0.552-1.786-0.552-2.74c0-1.269,0.312-2.444,0.937-3.518
			c0.627-1.079,1.486-1.934,2.563-2.564c1.076-0.63,2.248-0.945,3.517-0.945s2.448,0.317,3.525,0.945
			c1.083,0.633,1.942,1.487,2.572,2.564c0.631,1.076,0.944,2.249,0.944,3.518S312.718,308.441,312.086,309.527z"/>
		<path fill="#607D8B" d="M306.494,305.921v-4.534c0-0.271-0.236-0.491-0.507-0.491c-0.253,0-0.481,0.219-0.481,0.491v4.604
			c0,0.009,0.018,0.044,0.018,0.07c-0.018,0.158,0.026,0.289,0.131,0.395l2.615,2.616c0.174,0.175,0.499,0.175,0.673,0
			c0.203-0.201,0.188-0.491,0-0.683L306.494,305.921z"/>
	</g>
</g>
</svg>
