<?xml version="1.0" encoding="utf-8"?>
<!-- Generator: Adobe Illustrator 16.0.0, SVG Export Plug-In . SVG Version: 6.00 Build 0)  -->
<!DOCTYPE svg PUBLIC "-//W3C//DTD SVG 1.1//EN" "http://www.w3.org/Graphics/SVG/1.1/DTD/svg11.dtd">
<svg version="1.1" id="Capa_1" xmlns="http://www.w3.org/2000/svg" xmlns:xlink="http://www.w3.org/1999/xlink" x="0px" y="0px"
	 width="25px" height="25px" viewBox="49.871 49.871 25 25" enable-background="new 49.871 49.871 25 25" xml:space="preserve">
<g>
	<g>
		<path fill="#9DCCA2" d="M60.635,71.014c-0.075,0.01-0.167,0.012-0.167,0.012s-0.155-0.15-0.191-0.199l-2.537-2.701l4.351-2.582
			c0.117-0.07,0.125-0.193,0.018-0.275l-0.902-0.699c-0.108-0.084-0.297-0.111-0.425-0.062l-4.809,1.867l-2.682-2.535
			c-0.495-0.467-1.175-0.779-1.517-0.699c-0.13,0.029-0.253,0.102-0.359,0.197l-0.002,0.002c-0.096,0.105-0.167,0.23-0.198,0.359
			c-0.08,0.342,0.233,1.021,0.7,1.518l2.534,2.682l-1.867,4.809c-0.049,0.127-0.022,0.316,0.062,0.426l0.7,0.902
			c0.083,0.107,0.207,0.1,0.276-0.018l2.582-4.35l2.701,2.537c0.05,0.035,0.201,0.191,0.201,0.191s-0.004,0.092-0.014,0.166
			l-0.124,0.963l0.721,0.934c0.01-0.012,0.02-0.027,0.028-0.043l0.562-1.045c0.066-0.137,0.011-0.229-0.04-0.275
			c0.06,0.031,0.173,0.076,0.375,0.145c0,0,0.631,0.254,0.792,0.094l0.003-0.002c0.164-0.164-0.094-0.795-0.094-0.795
			c-0.067-0.201-0.115-0.314-0.145-0.373c0.047,0.049,0.138,0.105,0.274,0.039l1.046-0.562c0.017-0.008,0.029-0.02,0.043-0.027
			l-0.934-0.723L60.635,71.014z"/>
		<path fill="#9DCCA2" d="M72.829,59.528l-2.533-2.682l1.868-4.81c0.048-0.127,0.021-0.317-0.063-0.425l-0.699-0.902
			c-0.083-0.107-0.205-0.1-0.275,0.017l-2.582,4.351l-2.701-2.537c-0.05-0.036-0.201-0.191-0.201-0.191s0.005-0.093,0.014-0.167
			l0.124-0.963l-0.721-0.934c-0.012,0.013-0.021,0.026-0.029,0.043l-0.562,1.046c-0.065,0.136-0.012,0.228,0.04,0.274
			c-0.061-0.03-0.174-0.078-0.375-0.145c0,0-0.632-0.255-0.793-0.094l-0.002,0.003c-0.164,0.164,0.094,0.792,0.094,0.792
			c0.066,0.202,0.114,0.315,0.143,0.375c-0.047-0.051-0.138-0.106-0.273-0.04l-1.046,0.562c-0.017,0.008-0.03,0.018-0.043,0.028
			l0.934,0.721l0.963-0.123c0.075-0.01,0.168-0.014,0.168-0.014s0.155,0.151,0.19,0.201l2.537,2.7l-4.35,2.582
			c-0.118,0.07-0.125,0.193-0.018,0.276l0.902,0.7c0.107,0.082,0.297,0.109,0.424,0.062l4.81-1.868l2.683,2.535
			c0.495,0.467,1.174,0.779,1.516,0.699c0.131-0.03,0.254-0.102,0.358-0.197l0.004-0.003c0.095-0.106,0.168-0.229,0.198-0.359
			C73.61,60.703,73.297,60.024,72.829,59.528z"/>
		<path fill="#9DCCA2" d="M68.104,63.15h0.704c-0.282,3.131-2.805,5.625-5.948,5.865v-0.682l-1.419,1.42l1.419,1.418v-0.779
			c3.902-0.244,7.038-3.354,7.326-7.244h0.756l-1.418-1.418L68.104,63.15z"/>
		<path fill="#9DCCA2" d="M56.639,61.593h-0.705c0.282-3.132,2.805-5.626,5.949-5.866v0.683l1.419-1.419l-1.419-1.42v0.779
			c-3.902,0.244-7.038,3.354-7.327,7.243H53.8l1.419,1.418L56.639,61.593z"/>
	</g>
</g>
</svg>
