<?xml version="1.0" encoding="utf-8"?>
<!-- Generator: Adobe Illustrator 16.0.0, SVG Export Plug-In . SVG Version: 6.00 Build 0)  -->
<!DOCTYPE svg PUBLIC "-//W3C//DTD SVG 1.1//EN" "http://www.w3.org/Graphics/SVG/1.1/DTD/svg11.dtd">
<svg version="1.1" id="Capa_1" xmlns="http://www.w3.org/2000/svg" xmlns:xlink="http://www.w3.org/1999/xlink" x="0px" y="0px"
	 width="16px" height="16px" viewBox="53.664 53.664 16 16" enable-background="new 53.664 53.664 16 16" xml:space="preserve">
<g>
	<g>
		<path fill="#607D8B" d="M60.08,61.88c-0.987,0.162-1.823,0.397-2.444,0.668c-0.22,0.096-0.422,0.382-0.441,0.62
			c-0.012,0.157-0.019,0.317-0.019,0.478c0,0.161,0.006,0.322,0.019,0.479c0.019,0.238,0.221,0.525,0.441,0.619
			c0.622,0.271,1.457,0.507,2.444,0.67c0.236,0.038,0.411-0.13,0.395-0.368c-0.032-0.465-0.049-0.933-0.049-1.4
			c0-0.465,0.017-0.935,0.049-1.398C60.491,62.009,60.316,61.842,60.08,61.88z"/>
		<path fill="#607D8B" d="M60.942,69.151c0.224,0.087,0.333-0.035,0.252-0.262c-0.241-0.671-0.426-1.464-0.555-2.315
			c-0.036-0.236-0.252-0.453-0.489-0.488c-0.85-0.129-1.644-0.315-2.315-0.556c-0.226-0.08-0.349,0.029-0.263,0.253
			C58.172,67.325,59.4,68.555,60.942,69.151z"/>
		<path fill="#607D8B" d="M61.98,58.203c-0.271,0.623-0.507,1.457-0.668,2.445c-0.04,0.237,0.128,0.412,0.368,0.395
			c0.465-0.032,0.934-0.048,1.4-0.048c0.465,0,0.934,0.016,1.398,0.048c0.238,0.017,0.406-0.158,0.367-0.395
			c-0.16-0.987-0.398-1.822-0.668-2.445c-0.096-0.219-0.381-0.421-0.621-0.44c-0.158-0.013-0.316-0.02-0.477-0.02
			c-0.162,0-0.322,0.007-0.479,0.02C62.361,57.782,62.076,57.984,61.98,58.203z"/>
		<path fill="#607D8B" d="M60.942,58.143c-1.542,0.599-2.77,1.827-3.369,3.369c-0.086,0.224,0.037,0.332,0.263,0.252
			c0.671-0.24,1.464-0.426,2.314-0.554c0.237-0.036,0.454-0.253,0.489-0.489c0.128-0.851,0.314-1.644,0.555-2.315
			C61.276,58.179,61.166,58.056,60.942,58.143z"/>
		<path fill="#607D8B" d="M65.518,60.72c0.035,0.237,0.252,0.453,0.49,0.49c0.848,0.128,1.643,0.313,2.314,0.553
			c0.225,0.081,0.348-0.028,0.262-0.251c-0.6-1.542-1.826-2.771-3.371-3.37c-0.223-0.086-0.33,0.037-0.252,0.262
			C65.203,59.076,65.389,59.869,65.518,60.72z"/>
		<path fill="#607D8B" d="M68.963,63.171c-0.02-0.239-0.221-0.526-0.441-0.622c-0.621-0.271-1.457-0.506-2.445-0.668
			c-0.234-0.039-0.41,0.129-0.395,0.368c0.033,0.464,0.049,0.935,0.049,1.398c0,0.468-0.016,0.937-0.049,1.4
			c-0.016,0.239,0.16,0.407,0.395,0.368c0.988-0.161,1.824-0.398,2.445-0.669c0.221-0.095,0.422-0.382,0.441-0.62
			c0.014-0.157,0.02-0.317,0.02-0.479C68.982,63.486,68.975,63.326,68.963,63.171z"/>
		<path fill="#607D8B" d="M65.078,63.646c0-0.511-0.016-1.004-0.053-1.477c-0.018-0.239-0.23-0.452-0.469-0.469
			c-0.473-0.036-0.967-0.055-1.479-0.055c-0.51,0-1.006,0.019-1.477,0.055c-0.24,0.017-0.452,0.23-0.47,0.469
			c-0.036,0.473-0.055,0.966-0.055,1.477c0,0.513,0.019,1.007,0.055,1.478c0.018,0.239,0.23,0.453,0.47,0.471
			c0.471,0.035,0.967,0.054,1.477,0.054c0.512,0,1.006-0.019,1.479-0.054c0.238-0.02,0.451-0.231,0.469-0.471
			C65.062,64.653,65.078,64.159,65.078,63.646z"/>
		<path fill="#607D8B" d="M68.322,65.53c-0.672,0.242-1.467,0.427-2.314,0.556c-0.238,0.035-0.455,0.252-0.49,0.488
			c-0.129,0.852-0.314,1.645-0.555,2.315c-0.08,0.227,0.027,0.35,0.252,0.263c1.543-0.599,2.771-1.827,3.369-3.369
			C68.67,65.56,68.547,65.45,68.322,65.53z"/>
		<path fill="#607D8B" d="M64.479,66.251c-0.465,0.031-0.934,0.049-1.4,0.049s-0.934-0.018-1.398-0.049
			c-0.24-0.016-0.408,0.16-0.369,0.396c0.162,0.988,0.398,1.823,0.669,2.444c0.094,0.221,0.381,0.422,0.621,0.441
			c0.156,0.013,0.316,0.019,0.477,0.019c0.162,0,0.32-0.006,0.479-0.019c0.24-0.02,0.525-0.221,0.621-0.441
			c0.271-0.621,0.506-1.456,0.668-2.444C64.885,66.411,64.717,66.235,64.479,66.251z"/>
		<path fill="#607D8B" d="M58.526,56.531c0.046,0.036,0.085,0.022,0.107,0.007c-0.015,0.02-0.042,0.059-0.083,0.13
			c0,0-0.146,0.22-0.097,0.293l0,0.001c0.049,0.075,0.308,0.026,0.308,0.026c0.082-0.009,0.128-0.019,0.153-0.025
			c-0.023,0.014-0.051,0.044-0.037,0.1l0.132,0.442c0.001,0.006,0.004,0.013,0.007,0.018l0.346-0.298l0.028-0.375
			c0.003-0.028,0.008-0.064,0.008-0.064s0.069-0.047,0.091-0.057l1.223-0.75l0.638,1.851c0.019,0.049,0.064,0.062,0.104,0.028
			l0.335-0.288c0.041-0.034,0.066-0.104,0.057-0.156l-0.332-1.97l1.172-0.819c0.213-0.151,0.387-0.384,0.383-0.521
			c-0.002-0.051-0.02-0.104-0.047-0.152v-0.001c-0.033-0.044-0.074-0.082-0.123-0.103c-0.121-0.057-0.404,0.008-0.629,0.147
			l-1.215,0.751l-1.678-1.083c-0.045-0.029-0.118-0.034-0.166-0.01l-0.396,0.195c-0.048,0.022-0.054,0.07-0.015,0.105l1.448,1.319
			l-1.173,0.826c-0.017,0.016-0.088,0.062-0.088,0.062s-0.035-0.009-0.063-0.019l-0.355-0.123l-0.41,0.201
			c0.004,0.005,0.008,0.01,0.014,0.014L58.526,56.531z"/>
		<g>
			<path fill="#607D8B" d="M54.664,62.604c0.02-0.181,0.058-0.356,0.097-0.54c0.015-0.069,0.03-0.137,0.043-0.206
				c0.015-0.089,0.042-0.172,0.07-0.261c0.014-0.044,0.027-0.088,0.041-0.133l0.122-0.387c0.037-0.086,0.072-0.172,0.107-0.258
				c0.068-0.167,0.131-0.324,0.205-0.472l0.179-0.342c0.017-0.03,0.034-0.063,0.051-0.096c0.04-0.077,0.077-0.15,0.119-0.21
				c0.053-0.079,0.1-0.153,0.146-0.226c0.085-0.134,0.166-0.26,0.25-0.375l0.401-0.516c0.089-0.1,0.182-0.2,0.272-0.296l0.129-0.139
				c0.1-0.116,0.209-0.214,0.314-0.308l0.391-0.352c0.135-0.107,0.25-0.194,0.345-0.266c0.031-0.023,0.06-0.045,0.087-0.065
				l0.162,0.223c-0.03,0.021-0.062,0.043-0.097,0.067c-0.1,0.069-0.223,0.154-0.361,0.253l-0.014,0.011l-0.367,0.307
				c-0.1,0.083-0.214,0.176-0.325,0.295l-0.387,0.385l-0.015,0.017l-0.399,0.471c-0.094,0.117-0.179,0.238-0.26,0.356
				c-0.047,0.066-0.094,0.135-0.144,0.202c-0.058,0.075-0.105,0.158-0.15,0.237c-0.016,0.028-0.032,0.056-0.049,0.083l-0.185,0.319
				c-0.083,0.151-0.152,0.303-0.219,0.449c-0.039,0.083-0.077,0.168-0.118,0.253l-0.011,0.025l-0.132,0.369
				c-0.014,0.041-0.027,0.078-0.041,0.114c-0.034,0.089-0.071,0.191-0.094,0.302c-0.014,0.056-0.031,0.121-0.048,0.186
				C54.737,62.25,54.692,62.423,54.664,62.604z"/>
			<path fill="#607D8B" d="M58.086,56.788c0,0-0.059,0.045-0.171,0.13c-0.111,0.085-0.275,0.206-0.483,0.37
				c-0.104,0.093-0.218,0.196-0.343,0.309c-0.124,0.113-0.262,0.231-0.386,0.374c-0.128,0.14-0.267,0.286-0.409,0.444
				c-0.13,0.167-0.268,0.344-0.411,0.528c-0.138,0.188-0.262,0.398-0.399,0.607c-0.073,0.103-0.126,0.219-0.188,0.333
				c-0.061,0.115-0.122,0.231-0.184,0.35c-0.116,0.239-0.212,0.498-0.322,0.754c-0.042,0.134-0.084,0.269-0.126,0.405
				c-0.04,0.137-0.092,0.271-0.117,0.416c-0.057,0.285-0.132,0.571-0.153,0.87c-0.015,0.149-0.038,0.298-0.045,0.448
				c-0.001,0.153-0.003,0.304-0.004,0.456c0.001,0.077-0.004,0.152,0.002,0.229l0.022,0.229c0.016,0.153,0.025,0.308,0.047,0.46
				l0.094,0.454c0.018,0.073,0.026,0.15,0.051,0.224l0.072,0.221c0.05,0.147,0.09,0.296,0.149,0.439l0.192,0.417
				c0.057,0.144,0.139,0.273,0.22,0.403c0.082,0.132,0.152,0.257,0.243,0.392c0.089,0.117,0.177,0.235,0.265,0.351
				c0.098,0.113,0.2,0.226,0.3,0.338c0.208,0.211,0.42,0.41,0.648,0.584c0.451,0.351,0.936,0.623,1.414,0.829
				c0.481,0.201,0.958,0.327,1.4,0.416c0.224,0.032,0.436,0.075,0.642,0.087c0.102,0.009,0.202,0.016,0.299,0.025
				c0.097,0.003,0.191,0.005,0.283,0.007c0.073,0.001,0.143,0.003,0.211,0.003c0.018,0,0.037,0,0.055,0
				c0.085-0.004,0.167-0.008,0.246-0.011c0.079-0.005,0.155-0.009,0.227-0.012c0.072-0.007,0.14-0.015,0.205-0.022
				c0.131-0.016,0.248-0.024,0.348-0.041c0.102-0.018,0.186-0.031,0.256-0.044c0.137-0.024,0.211-0.037,0.211-0.037
				s-0.074,0.01-0.215,0.028c-0.068,0.009-0.152,0.02-0.254,0.033c-0.1,0.014-0.217,0.017-0.348,0.025
				c-0.064,0.005-0.133,0.011-0.205,0.016c-0.072,0-0.147,0-0.227,0c-0.078,0.001-0.16,0.001-0.245,0.002
				c-0.084-0.002-0.172-0.012-0.263-0.016c-0.09-0.006-0.183-0.012-0.279-0.018c-0.096-0.013-0.194-0.024-0.294-0.039
				c-0.203-0.019-0.41-0.071-0.628-0.11c-0.431-0.105-0.891-0.248-1.35-0.465c-0.456-0.219-0.911-0.502-1.329-0.854
				c-0.21-0.176-0.406-0.376-0.593-0.583c-0.088-0.107-0.177-0.216-0.265-0.322c-0.083-0.119-0.167-0.242-0.25-0.361
				c-0.28-0.482-0.554-1.01-0.683-1.572l-0.059-0.209c-0.021-0.068-0.025-0.141-0.039-0.212l-0.069-0.424
				c-0.015-0.144-0.017-0.287-0.026-0.43l-0.011-0.213c-0.004-0.072,0.005-0.142,0.007-0.213c0.007-0.142,0.015-0.28,0.021-0.422
				c0.013-0.14,0.041-0.277,0.06-0.415c0.03-0.275,0.113-0.538,0.176-0.801c0.027-0.132,0.083-0.254,0.125-0.38
				c0.044-0.124,0.089-0.248,0.133-0.37c0.112-0.233,0.21-0.468,0.327-0.685c0.062-0.107,0.124-0.211,0.184-0.315
				c0.062-0.103,0.115-0.209,0.186-0.301c0.137-0.188,0.257-0.377,0.392-0.544c0.138-0.164,0.272-0.321,0.398-0.47
				c0.139-0.138,0.27-0.27,0.394-0.392c0.12-0.129,0.246-0.226,0.359-0.32c0.112-0.095,0.217-0.181,0.311-0.259
				c0.208-0.151,0.381-0.268,0.495-0.348c0.115-0.08,0.176-0.123,0.176-0.123L58.086,56.788L58.086,56.788z M62.449,69.523
				L62.449,69.523L62.449,69.523z"/>
		</g>
	</g>
</g>
</svg>
