<?xml version="1.0" encoding="utf-8"?>
<!-- Generator: Adobe Illustrator 16.0.0, SVG Export Plug-In . SVG Version: 6.00 Build 0)  -->
<!DOCTYPE svg PUBLIC "-//W3C//DTD SVG 1.1//EN" "http://www.w3.org/Graphics/SVG/1.1/DTD/svg11.dtd">
<svg version="1.1" id="Capa_1" xmlns="http://www.w3.org/2000/svg" xmlns:xlink="http://www.w3.org/1999/xlink" x="0px" y="0px"
	 width="16px" height="16px" viewBox="208.122 208.122 16 16" enable-background="new 208.122 208.122 16 16" xml:space="preserve">
<g>
	<g>
		<path fill="#607D8B" d="M222.933,216.437l-1.072-0.594v-0.484c0-0.325-0.265-0.59-0.59-0.59c-0.27,0-0.498,0.183-0.568,0.431
			l-0.901-0.5v-0.447c0-0.325-0.264-0.59-0.589-0.59c-0.259,0-0.479,0.167-0.557,0.399l-0.801-0.445
			c-0.06-1.144-0.167-2.195-0.316-3.066c-0.118-0.691-0.259-1.239-0.417-1.629c-0.079-0.198-0.324-0.799-0.826-0.799
			c-0.501,0-0.746,0.601-0.826,0.799c-0.158,0.39-0.298,0.938-0.417,1.629c-0.15,0.871-0.257,1.922-0.317,3.066l-0.799,0.445
			c-0.08-0.232-0.299-0.399-0.558-0.399c-0.326,0-0.59,0.265-0.59,0.59v0.447l-0.901,0.5c-0.069-0.248-0.297-0.431-0.568-0.431
			c-0.326,0-0.59,0.265-0.59,0.59v0.484l-1.071,0.594c-0.117,0.067-0.189,0.189-0.189,0.322v1.538c0,0.12,0.058,0.232,0.155,0.302
			c0.098,0.068,0.223,0.088,0.335,0.048l4.741-1.652c0.044,1.477,0.165,2.839,0.352,3.926c0.034,0.196,0.069,0.381,0.107,0.555
			l-2.469,1.372c-0.064,0.036-0.103,0.101-0.103,0.175v0.835c0,0.066,0.031,0.128,0.084,0.164c0.052,0.036,0.12,0.048,0.182,0.024
			l2.885-1.004c0.133,0.166,0.314,0.309,0.557,0.309s0.424-0.143,0.557-0.309l2.886,1.004c0.021,0.01,0.043,0.012,0.066,0.012
			c0.042,0,0.08-0.012,0.115-0.036c0.054-0.036,0.083-0.098,0.083-0.164v-0.835c0-0.074-0.038-0.141-0.1-0.175l-2.471-1.372
			c0.038-0.174,0.073-0.358,0.106-0.555c0.187-1.087,0.308-2.449,0.352-3.926l4.74,1.652c0.042,0.013,0.082,0.021,0.122,0.021
			c0.076,0,0.151-0.022,0.214-0.068c0.098-0.069,0.155-0.182,0.155-0.302v-1.538C223.122,216.625,223.049,216.501,222.933,216.437z"
			/>
	</g>
</g>
</svg>
