<?xml version="1.0" encoding="utf-8"?>
<!-- Generator: Adobe Illustrator 16.0.0, SVG Export Plug-In . SVG Version: 6.00 Build 0)  -->
<!DOCTYPE svg PUBLIC "-//W3C//DTD SVG 1.1//EN" "http://www.w3.org/Graphics/SVG/1.1/DTD/svg11.dtd">
<svg version="1.1" id="Capa_1" xmlns="http://www.w3.org/2000/svg" xmlns:xlink="http://www.w3.org/1999/xlink" x="0px" y="0px"
	 width="16px" height="16px" viewBox="298 388 16 16" enable-background="new 298 388 16 16" xml:space="preserve">
<g>
	<path fill="#607D8B" d="M305.896,388c-4.418,0.059-7.951,3.689-7.893,8.107c0.06,4.416,3.689,7.95,8.106,7.892
		c4.417-0.06,7.951-3.689,7.893-8.107C313.943,391.476,310.313,387.942,305.896,388z M305.873,400.869h-0.044
		c-0.68-0.021-1.16-0.521-1.141-1.192c0.019-0.658,0.51-1.137,1.168-1.137l0.04,0.001c0.699,0.021,1.174,0.517,1.154,1.206
		C307.03,400.408,306.547,400.869,305.873,400.869z M308.734,395.189c-0.16,0.228-0.512,0.51-0.955,0.855l-0.488,0.337
		c-0.268,0.208-0.43,0.404-0.49,0.597c-0.048,0.152-0.071,0.192-0.075,0.501l-0.001,0.079h-1.864l0.005-0.158
		c0.022-0.648,0.039-1.03,0.307-1.345c0.422-0.495,1.352-1.094,1.391-1.119c0.134-0.101,0.246-0.215,0.329-0.337
		c0.196-0.27,0.282-0.482,0.282-0.69c0-0.29-0.086-0.558-0.256-0.796c-0.163-0.23-0.473-0.347-0.922-0.347
		c-0.445,0-0.75,0.141-0.932,0.431c-0.188,0.298-0.282,0.611-0.282,0.931v0.08h-1.922l0.003-0.083
		c0.049-1.177,0.47-2.025,1.249-2.52c0.489-0.315,1.098-0.475,1.808-0.475c0.93,0,1.715,0.226,2.332,0.671
		c0.627,0.452,0.944,1.128,0.944,2.01C309.198,394.305,309.042,394.769,308.734,395.189z"/>
</g>
</svg>
