<?xml version="1.0" encoding="utf-8"?>
<!-- Generator: Adobe Illustrator 16.0.0, SVG Export Plug-In . SVG Version: 6.00 Build 0)  -->
<!DOCTYPE svg PUBLIC "-//W3C//DTD SVG 1.1//EN" "http://www.w3.org/Graphics/SVG/1.1/DTD/svg11.dtd">
<svg version="1.1" id="Capa_1" xmlns="http://www.w3.org/2000/svg" xmlns:xlink="http://www.w3.org/1999/xlink" x="0px" y="0px"
	 width="16px" height="16px" viewBox="15 15 16 16" enable-background="new 15 15 16 16" xml:space="preserve">
<g>
	<g>
		<path fill="#607D8B" d="M28.658,17.343c-3.125-3.124-8.19-3.124-11.315,0c-3.124,3.124-3.124,8.19,0,11.315
			c3.124,3.123,8.19,3.123,11.315,0C31.781,25.533,31.781,20.467,28.658,17.343z M24.042,26.478c0,0.577-0.467,1.043-1.043,1.043
			s-1.043-0.466-1.043-1.043v-4.174c0-0.576,0.467-1.043,1.043-1.043s1.043,0.467,1.043,1.043V26.478z M22.981,20.521
			c-0.601,0-1.002-0.426-0.989-0.951c-0.013-0.551,0.389-0.964,1.001-0.964c0.614,0,1.002,0.413,1.014,0.964
			C24.007,20.095,23.607,20.521,22.981,20.521z"/>
	</g>
</g>
</svg>
