<?xml version="1.0" encoding="utf-8"?>
<!-- Generator: Adobe Illustrator 16.0.0, SVG Export Plug-In . SVG Version: 6.00 Build 0)  -->
<!DOCTYPE svg PUBLIC "-//W3C//DTD SVG 1.1//EN" "http://www.w3.org/Graphics/SVG/1.1/DTD/svg11.dtd">
<svg version="1.1" id="Layer_1" xmlns="http://www.w3.org/2000/svg" xmlns:xlink="http://www.w3.org/1999/xlink" x="0px" y="0px"
	 width="181.934px" height="181.998px" viewBox="0 0 181.934 181.998" enable-background="new 0 0 181.934 181.998"
	 xml:space="preserve">
<g>
	<path d="M1.139,65.955l2.227-3.951l11.491,5.818l2.514-4.381l44.318,24.995L60.54,90.52L34.755,77.95
		c9.913,8.834,22.123,18.246,36.058,18.246c16.093,0,29.022-12.713,36.06-26.146c3.664-0.288,7.328-0.575,11.063-0.575
		c18.747,0,38.212,3.663,56.244,8.906l6.177,1.795l1.655,0.431l-5.387,4.668c-16.015-4.597-32.538-8.188-49.202-9.194l-1.867,2.658
		c13.575,0.934,27.151,3.304,40.295,6.752l4.67,1.22l3.377,0.861l-5.386,4.598c-15.442-4.167-31.461-7.11-47.551-7.183l-1.652,2.083
		c15.874,0.574,31.314,3.447,46.761,7.109l-5.028,4.237c-15.227-3.159-30.527-5.099-46.113-5.315l-1.58,2.156
		c1.002,0,2.08,0,3.088,0c12.715,0,25.571,1.868,37.998,4.453l4.167,0.935l-5.244,4.379c-9.339-1.795-18.819-2.943-28.372-2.943
		c-12.498,0-25.355,2.3-36.705,7.685c13.503,14.94,32.106,27.367,52.937,27.367h0.214l-6.751,7.614
		c-25.284-7.686-48.554-20.472-70.102-35.626c-11.863-8.331-22.852-17.956-34.774-26.215c-8.259-5.673-16.666-10.846-25.571-15.371
		L1.139,65.955L1.139,65.955z"/>
</g>
</svg>
