<?xml version="1.0" encoding="utf-8"?>
<!-- Generator: Adobe Illustrator 16.0.0, SVG Export Plug-In . SVG Version: 6.00 Build 0)  -->
<!DOCTYPE svg PUBLIC "-//W3C//DTD SVG 1.1//EN" "http://www.w3.org/Graphics/SVG/1.1/DTD/svg11.dtd">
<svg version="1.1" id="Layer_1" xmlns="http://www.w3.org/2000/svg" xmlns:xlink="http://www.w3.org/1999/xlink" x="0px" y="0px"
	 width="414.354px" height="106.471px" viewBox="0 0 414.354 106.471" enable-background="new 0 0 414.354 106.471"
	 xml:space="preserve">
<g>
	<path fill-rule="evenodd" clip-rule="evenodd" fill="#14BFF2" d="M403.594,6.456c4.064-1.157,7.888-3.337,10.761-6.456v0.934
		c-2.862,3.801-5.227,7.943-8.005,11.806c-0.419-0.436-1.716-1.364-1.99-0.375c0.324,0.564,0.811,0.967,1.46,1.208
		c-0.683,1.096-1.348,2.208-2.146,3.22c-0.693,0.486-1.286,1.101-1.856,1.71c0-0.525-0.006-1.571-0.006-2.096
		c-0.727,0.062-1.453,0.117-2.168,0.179c0.229-0.654,0.458-1.308,0.687-1.962c-1.436,0.587-2.772,1.381-4.035,2.27
		c0.643,0.481,1.297,0.939,1.962,1.409c-0.392,0.296-0.766,0.609-1.129,0.934c0.017,0.447,0.056,1.353,0.072,1.8
		c-0.626-0.347-1.252-0.699-1.873-1.051c-0.385,0.028-1.162,0.078-1.548,0.106c0.151-0.699,0.302-1.397,0.459-2.09
		c-1.918,0.978-3.729,2.146-5.624,3.169c1.325-1.861,3.326-3.063,4.835-4.763c-0.374-0.168-1.112-0.492-1.481-0.66
		c0.884-1.163,0.984-2.622,1.096-4.024c0.274,0.246,0.816,0.738,1.09,0.983c0.313-0.268,0.934-0.799,1.247-1.062
		c-0.045,1.034-0.089,2.063-0.111,3.097c1.33-1.023,2.57-2.158,3.745-3.359c-0.504-0.04-1.51-0.106-2.013-0.14
		c0.476-0.688,0.967-1.364,1.447-2.057c-0.251-0.357-0.754-1.079-1.006-1.437c1.453-0.229,2.907-0.481,4.366-0.704
		c0.078,0.273,0.24,0.827,0.318,1.101C403.047,8.899,403.633,7.177,403.594,6.456L403.594,6.456z M384.248,10.347
		c3.504-1.99,7.624-1.794,11.486-2.375c0.207,0.268,0.627,0.799,0.833,1.067c-0.793,0.022-1.581,0.04-2.364,0.062
		c-0.056,0.75-0.112,1.499-0.157,2.247c-0.329-0.637-0.664-1.28-0.988-1.917c-1.091,1.487-1.867,3.181-2.538,4.886
		c0.005,1.14,0.201,2.269,0.234,3.41c-1.486,0.693-2.939,1.504-3.684,3.041c0.274-1.006,0.537-2.006,0.821-3.007
		c-0.335-0.179-1.011-0.536-1.347-0.715c-0.189-2.314-0.899-4.556-0.877-6.898c-0.47,0.358-0.934,0.721-1.397,1.074
		C384.265,11.001,384.253,10.565,384.248,10.347L384.248,10.347z M388.396,9.223c-0.134,0.911-0.353,1.811-0.604,2.694
		c-0.123-0.285-0.375-0.86-0.498-1.146l-0.553-0.33c-0.056,1.146-0.067,2.292-0.073,3.443c1.247,0.274,1.777-0.201,1.604-1.425
		c0.229,0.347,0.47,0.699,0.721,1.045c0.224-1.482,0.554-2.946,1.045-4.36C389.485,9.134,388.938,9.162,388.396,9.223L388.396,9.223
		z M381.704,12.08c0.28-0.224,0.838-0.659,1.118-0.877c0.895,0.945,1.777,1.9,2.666,2.851c-0.011,1.951-0.251,3.952,0.324,5.853
		c-0.883-1.582-2.498-2.426-3.835-3.555c0.023-0.867-0.089-1.75,0.135-2.6C381.883,13.214,381.743,12.656,381.704,12.08
		L381.704,12.08z M397.646,19.961c1.56,0.777,2.085-0.732,2.728-1.789c0.045,0.492,0.14,1.471,0.19,1.962
		c0.207,0.039,0.626,0.123,0.838,0.167c-1.134,1.728-2.291,3.438-3.459,5.143c-1.253-0.436-2.521-0.811-3.796-1.157
		c-0.363,0.872-1.308,1.067-2.057,1.448c-1.537-1.079-2.086-3.069-4.048-3.544c0.414-0.028,1.241-0.084,1.655-0.112
		c0.431-0.861,1.117-1.509,1.944-1.979c0.66,0.431,1.375,0.744,2.152,0.922c-0.312,0.185-0.95,0.559-1.269,0.744
		c2.035,0.279,4.092,0.05,6.138,0.011C398.317,21.169,397.981,20.565,397.646,19.961L397.646,19.961z M369.009,22.035
		c1.532-0.43,3.104-0.693,4.686-0.928c-0.688,0.861-1.303,1.772-1.912,2.689c-0.827,1.179-1.648,2.353-2.477,3.527
		c-0.715,0.973-1.381,1.979-2.112,2.946c-0.146,0.19-0.448,0.57-0.599,0.76c-0.664,0.794-1.279,1.644-1.521,2.667
		c-0.101-0.33-0.29-0.984-0.392-1.308c-1.816,1.107-3.645,2.258-5.159,3.768c0.956,0.185,1.918,0.358,2.89,0.52
		c-0.15,0.212-0.447,0.632-0.598,0.838c-0.844-0.017-1.219,0.386-1.129,1.213c-0.107,0.257-0.33,0.777-0.441,1.034
		c-1.27-0.357-2.521-0.151-3.695,0.408c0.096-0.564,0.285-1.683,0.381-2.242c-2.628,1.504-4.903,3.544-7.496,5.104
		c1.912-2.42,4.454-4.249,6.372-6.669c-0.771-0.022-1.537-0.039-2.298-0.05c1.761-1.761,0.721-4.326,1.767-6.377
		c-0.162-0.296-0.486-0.883-0.648-1.174c-1.437,2.667-2.628,5.45-4.024,8.139c0.369-0.251,1.096-0.755,1.465-1.006
		c-0.201,0.9-0.235,1.822,0.122,2.683c-0.849,0.705-1.671,1.442-2.454,2.219c-0.15-0.251-0.452-0.744-0.604-0.989
		c-0.38,1.196-0.861,2.37-1.682,3.326c0.201-0.922,0.424-1.845,0.643-2.767c-0.995-1.135-0.99-2.7-1.314-4.091
		c1.13-0.335,1.363-1.521,1.777-2.465c0.186,0.263,0.549,0.788,0.732,1.045c0.309-1.906,0.732-3.796,1.157-5.685
		c2.202-1.185,4.444-2.303,6.747-3.287c0.028,1.062,1.045,1.191,1.851,1.493c-0.737,0.822-1.962,0.805-2.94,1.157
		c-0.062,1.174,0.129,2.471-0.727,3.426c1.078,1.141,1.727-0.436,2.303-1.179c0.643,1.028,0.263,2.309,0.342,3.455
		c1.721-1.593,3.393-3.248,4.979-4.98c-0.927,0.14-1.85,0.296-2.767,0.447c0.609-0.861,1.191-1.744,1.756-2.644
		c-0.732-0.33-1.375-0.783-1.93-1.353c0.693-0.224,1.393-0.436,2.097-0.637c0.196-0.425,0.408-0.85,0.62-1.275
		c1.023-0.33,2.035-0.682,3.08-0.973c1.052,0.128,1.521,0.883,1.275,1.917c1.078-0.263,1.246-1.331,1.369-2.275
		C368.63,22.354,368.881,22.142,369.009,22.035L369.009,22.035z M388.658,24.076c1.973,1.358,3.667,3.091,5.719,4.354
		c-0.078-0.436-0.225-1.313-0.303-1.75c1.018,0.436,2.085,0.296,3.097-0.079c-1.185,1.738-2.498,3.41-4.024,4.863
		c-0.185-0.279-0.559-0.844-0.749-1.129c0.42-0.028,1.258-0.09,1.677-0.118c-0.854-0.939-1.743-1.845-2.571-2.8
		c-0.509-0.604-1.039-1.185-1.609-1.716C389.401,25.222,389.01,24.651,388.658,24.076L388.658,24.076z M365.896,39.945
		c0.174-0.14,0.525-0.414,0.705-0.553c0.346,0.134,1.039,0.396,1.386,0.531c0.515-0.062,1.532-0.173,2.04-0.235
		c-1.308,1.599-2.6,3.214-3.801,4.891C365.931,43.053,365.868,41.494,365.896,39.945L365.896,39.945z M353.498,41.024
		c0.849,0.146,1.693,0.251,2.56,0.347c-0.234,0.308-0.693,0.928-0.922,1.241c1.269-0.43,2.549-0.811,3.862-1.084
		c0.067,0.347,0.201,1.034,0.269,1.38c0.934,0.38,1.844,0.816,2.744,1.28c-2.33,0.195-4.673,0.296-7.01,0.201
		c0.582,0.246,1.124,0.564,1.621,0.961c-0.855,0.14-1.476,0.66-1.979,1.313c-1.213-0.559-2.454-1.118-3.41-2.085
		c-0.782,0.006-1.56,0.011-2.336,0.006c0.855-0.515,1.822-0.76,2.795-0.979c-0.105-0.212-0.318-0.643-0.425-0.861
		C352.011,42.176,352.754,41.6,353.498,41.024L353.498,41.024z M357.438,46.743c1.738,0.738,3.254-0.358,4.689-1.23
		c-0.089,0.671-0.167,1.341-0.251,2.018c0.335,0.179,0.995,0.547,1.325,0.732c-1.705,0.363-3.455,0.19-5.177,0.218
		C357.824,47.899,357.629,47.318,357.438,46.743L357.438,46.743z M349.573,46.094c2.275,0.715,4.539,1.464,6.764,2.342
		c-0.889,0.011-1.766,0.056-2.644,0.09C352.329,47.693,350.859,47.039,349.573,46.094L349.573,46.094z"/>
	<path fill-rule="evenodd" clip-rule="evenodd" fill="#FFFFFF" d="M401.828,7.043c0.564-0.252,1.156-0.437,1.766-0.587
		c0.039,0.721-0.547,2.443-1.447,1.688C402.068,7.871,401.906,7.317,401.828,7.043L401.828,7.043z M395.734,7.971
		c0.431-0.056,1.297-0.168,1.728-0.224c0.252,0.358,0.755,1.079,1.006,1.437c-0.48,0.693-0.973,1.37-1.447,2.057
		c0.503,0.034,1.509,0.101,2.013,0.14c-1.175,1.201-2.415,2.336-3.745,3.359c0.022-1.034,0.066-2.063,0.111-3.097
		c-0.313,0.263-0.934,0.794-1.247,1.062c-0.273-0.246-0.815-0.738-1.09-0.983c-0.111,1.403-0.212,2.862-1.096,4.024
		c0.369,0.168,1.107,0.492,1.481,0.66c-1.509,1.699-3.51,2.901-4.835,4.763c1.896-1.023,3.706-2.191,5.624-3.169
		c-0.157,0.693-0.309,1.392-0.459,2.09c0.386-0.028,1.163-0.078,1.548-0.106c0.621,0.352,1.247,0.704,1.873,1.051
		c-0.017-0.447-0.056-1.353-0.072-1.8c0.363-0.324,0.737-0.637,1.129-0.934c-0.665-0.47-1.319-0.928-1.962-1.409
		c1.263-0.889,2.6-1.683,4.035-2.27c-0.229,0.654-0.458,1.308-0.687,1.962c0.715-0.062,1.441-0.117,2.168-0.179
		c0,0.525,0.006,1.571,0.006,2.096c0.57-0.609,1.163-1.224,1.856-1.71c-0.733,1.185-1.481,2.364-2.271,3.51
		c-0.212-0.044-0.631-0.128-0.838-0.167c-0.05-0.492-0.146-1.47-0.19-1.962c-0.643,1.057-1.168,2.566-2.728,1.789
		c0.336,0.604,0.671,1.208,1.018,1.817c-2.046,0.039-4.103,0.268-6.138-0.011c0.318-0.185,0.956-0.559,1.269-0.744
		c-0.776-0.179-1.492-0.492-2.152-0.922c-0.827,0.47-1.515,1.118-1.944,1.979c-0.414,0.028-1.242,0.083-1.655,0.112
		c1.962,0.475,2.51,2.465,4.048,3.544c0.749-0.38,1.693-0.576,2.057-1.448c1.274,0.346,2.543,0.721,3.796,1.157
		c-0.19,0.291-0.576,0.866-0.772,1.157c-1.012,0.375-2.079,0.515-3.097,0.079c0.078,0.436,0.224,1.313,0.303,1.75
		c-2.052-1.263-3.746-2.996-5.719-4.354c0.352,0.576,0.743,1.146,1.235,1.626c-0.296,0.084-0.889,0.257-1.18,0.347
		c-0.392-0.671-0.76-1.347-1.141-2.012c0.156,0.811,0.353,1.61,0.56,2.409c-0.363,1.319-0.224,2.688-0.112,4.03
		c0.342,0.062,1.018,0.185,1.354,0.246c0.497,0.9,0.961,1.817,1.419,2.745c-0.497,0.391-1,0.771-1.509,1.14
		c-0.117-0.369-0.357-1.107-0.475-1.476c-0.286,0.268-0.855,0.799-1.141,1.067c-0.051-0.995-0.096-1.996-0.129-2.99
		c-0.067-2.024-0.671-3.986-0.644-6.021c-0.357,0.531-0.754,1.028-1.19,1.487c0.129-1.045,0.347-2.08,0.56-3.108
		c-0.476,0.447-0.922,0.922-1.324,1.42c-0.47,0.279-0.929,0.564-1.376,0.855c-0.24,0.162-0.722,0.492-0.961,0.66
		c0.179,0.973,0.039,1.917-0.48,2.767c0.245,0.034,0.731,0.089,0.978,0.123c-0.425,0.816-0.838,1.627-1.224,2.459
		c-0.437,0.934-0.822,1.889-1.314,2.795c-0.844,0.073-0.782-1.14-1.185-1.644c-0.062,0.503-0.179,1.509-0.234,2.013
		c-0.767,0.017-1.526,0.034-2.281,0.056c0.459,0.498,0.911,0.995,1.381,1.493c-0.318,0.604-0.632,1.202-0.945,1.806
		c0.309-0.039,0.917-0.118,1.225-0.157c0.028,0.218,0.09,0.654,0.117,0.867c-1.229,0.207-2.471,0.363-3.694,0.536
		c-0.039-0.201-0.118-0.604-0.156-0.799c-0.09-0.514-0.264-1.531-0.353-2.046c0.441-0.005,1.319-0.022,1.761-0.033
		c0.062-0.76-0.962-1.208-1.33-1.823c0.47-0.688,0.933-1.369,1.397-2.057c-0.705-0.022-1.403-0.045-2.097-0.062
		c1.191-1.079,2.376-2.158,3.499-3.315l0.286,0.341c0.05,0.928,0.033,1.861,0.033,2.795c0.374-0.408,0.749-0.816,1.129-1.225
		c0.425,0.38,0.855,0.76,1.291,1.141c0.012-1.493,0.19-2.997,1.023-4.276c-0.392-0.151-1.175-0.458-1.565-0.615
		c1.186-1.135,2.588-2.085,3.454-3.521c-1.509,0.33-2.777,1.207-4.114,1.912c0.073-0.481,0.219-1.442,0.291-1.923
		c-1.263,0.19-2.337-0.453-3.365-1.067c0.106,1.095,0.419,2.409-1.096,2.527c0.615,0.57,1.28,1.079,1.99,1.542
		c-0.201,0.168-0.609,0.498-0.811,0.665c-1.062,0.66-2.163,1.247-3.23,1.89c0.269-0.754,0.548-1.509,0.826-2.264
		c-0.737,0.162-1.458,0.319-2.185,0.492c-0.162-0.805,0.263-1.923-0.582-2.426c-0.139,0.403-0.419,1.208-0.559,1.61
		c-0.297,0.062-0.883,0.185-1.18,0.246c0.828-1.174,1.649-2.348,2.477-3.527l0.989,0.162c0.028,0.805,0.056,1.61,0.084,2.415
		c0.542-0.794,0.944-1.671,1.342-2.549c0.537,0.15,1.078,0.302,1.626,0.447c-0.352-0.66-0.731-1.302-1.073-1.967
		c2.007-0.011,4.014-0.084,6.01-0.313c-0.19,0.235-0.564,0.705-0.749,0.939c0.653,0.201,1.174,0.582,1.564,1.14
		c0.615-0.391,1.23-0.788,1.856-1.174c-0.095-0.229-0.274-0.682-0.363-0.906c0.782-0.111,1.587-0.207,2.381-0.335
		c-0.676-0.201-1.348-0.402-2.012-0.604c-0.509-1.152-1.438-2.013-2.309-2.879c-0.297,0.61-0.777,1.001-1.438,1.185
		c0.375,0.291,0.755,0.587,1.135,0.889c-1.827-0.335-3.516-1.246-5.377-1.347c0.47-0.593,0.916-1.196,1.414-1.767
		c0.884-0.167,1.761,0.045,2.616,0.285c-0.24-0.654-0.47-1.313-0.688-1.973c1.935,1.062,3.309,2.974,5.405,3.745
		c-1.492-1.727-3.147-3.309-4.685-4.992c0.738-0.693,1.442-1.425,2.191-2.119c0.039,0.576,0.179,1.135,0.408,1.671
		c-0.224,0.85-0.112,1.733-0.135,2.6c1.337,1.129,2.952,1.973,3.835,3.555c-0.575-1.9-0.336-3.901-0.324-5.853
		c-0.889-0.95-1.771-1.906-2.666-2.851c0.458-0.296,0.939-0.587,1.426-0.855c0.005,0.218,0.016,0.654,0.022,0.873
		c0.464-0.353,0.927-0.716,1.397-1.074c-0.022,2.342,0.687,4.584,0.877,6.898c0.336,0.179,1.012,0.537,1.347,0.715
		c-0.284,1.001-0.547,2.001-0.821,3.007c0.744-1.537,2.197-2.348,3.684-3.041c-0.033-1.141-0.229-2.27-0.234-3.41
		c0.671-1.705,1.447-3.399,2.538-4.886c0.324,0.637,0.659,1.28,0.988,1.917c0.046-0.749,0.102-1.498,0.157-2.247
		c0.783-0.022,1.571-0.039,2.364-0.062C396.361,8.771,395.941,8.24,395.734,7.971L395.734,7.971z M388.396,9.223
		c0.542-0.061,1.09-0.089,1.643-0.078c-0.491,1.415-0.821,2.879-1.045,4.36c-0.251-0.347-0.492-0.699-0.721-1.045
		c0.173,1.224-0.358,1.699-1.604,1.425c0.006-1.151,0.017-2.297,0.073-3.443l0.553,0.33c0.123,0.285,0.375,0.861,0.498,1.146
		C388.043,11.034,388.261,10.134,388.396,9.223L388.396,9.223z M404.36,12.365c0.273-0.989,1.57-0.062,1.989,0.375
		c-0.128,0.207-0.396,0.626-0.53,0.833C405.17,13.332,404.684,12.929,404.36,12.365L404.36,12.365z M365.857,22.818
		c1.04-0.285,2.106-0.486,3.151-0.783c-0.128,0.106-0.379,0.319-0.508,0.425c-0.123,0.945-0.291,2.012-1.369,2.275
		C367.377,23.701,366.907,22.946,365.857,22.818L365.857,22.818z M357.192,25.881c1.834-0.771,3.701-1.464,5.584-2.09
		c-0.212,0.425-0.424,0.85-0.62,1.275c-0.704,0.201-1.403,0.413-2.097,0.637c0.555,0.57,1.197,1.023,1.93,1.353
		c-0.564,0.899-1.146,1.783-1.756,2.644c0.918-0.151,1.84-0.307,2.767-0.447c-1.587,1.733-3.259,3.387-4.979,4.98
		c-0.079-1.146,0.301-2.426-0.342-3.455c-0.575,0.743-1.225,2.32-2.303,1.179c0.855-0.956,0.665-2.252,0.727-3.426
		c0.979-0.352,2.203-0.335,2.94-1.157C358.237,27.072,357.22,26.943,357.192,25.881L357.192,25.881z M391.503,27.418
		c0.828,0.956,1.717,1.862,2.571,2.801c-0.419,0.028-1.257,0.089-1.677,0.118c0.19,0.285,0.564,0.85,0.749,1.129
		c-0.234,0.212-0.704,0.626-0.939,0.838c-0.167-0.291-0.509-0.866-0.676-1.151C392.252,29.962,391.179,28.688,391.503,27.418
		L391.503,27.418z M349.312,29.794c0.285-0.156,0.854-0.47,1.134-0.626c-0.425,1.889-0.849,3.779-1.157,5.685
		c-0.184-0.257-0.547-0.783-0.732-1.045c-0.412,0.944-0.648,2.13-1.777,2.465c0.324,1.392,0.319,2.957,1.314,4.091
		c-0.219,0.922-0.442,1.845-0.643,2.767c0.82-0.956,1.302-2.129,1.682-3.326c0.151,0.246,0.453,0.738,0.604,0.989
		c0.783-0.777,1.605-1.515,2.454-2.219c-0.357-0.861-0.324-1.783-0.122-2.683c-0.369,0.251-1.096,0.755-1.465,1.006
		c1.396-2.689,2.588-5.473,4.024-8.139c0.162,0.291,0.486,0.878,0.648,1.174c-1.046,2.051-0.006,4.617-1.767,6.377
		c0.761,0.011,1.525,0.028,2.298,0.05c-1.918,2.42-4.461,4.249-6.372,6.669c2.593-1.56,4.868-3.6,7.496-5.104
		c-0.096,0.559-0.286,1.677-0.381,2.242c1.174-0.559,2.426-0.766,3.695-0.408c-0.402,0.604-0.816,1.185-1.247,1.767
		c-1.313,0.273-2.594,0.654-3.862,1.084c0.229-0.313,0.688-0.933,0.922-1.241c-0.865-0.095-1.711-0.201-2.561-0.347
		c-0.743,0.576-1.486,1.152-2.229,1.722c0.106,0.218,0.318,0.649,0.425,0.861c-0.973,0.218-1.939,0.464-2.795,0.979
		c0.777,0.005,1.554,0,2.336-0.006c0.957,0.967,2.197,1.526,3.41,2.085c0.503-0.654,1.123-1.174,1.979-1.313
		c-0.496-0.397-1.039-0.715-1.621-0.961c2.337,0.095,4.68-0.006,7.01-0.201c0.291,0.112,0.861,0.335,1.151,0.453
		c0.129,0.587,0.101,1.191-0.038,1.778c0.329-0.073,0.994-0.224,1.324-0.296c-0.09,0.357-0.273,1.067-0.363,1.425
		c-0.218,0.179-0.666,0.537-0.883,0.715c-0.33-0.185-0.99-0.553-1.325-0.732c0.084-0.677,0.162-1.347,0.251-2.018
		c-1.436,0.872-2.951,1.968-4.689,1.23c0.19,0.576,0.386,1.157,0.587,1.738c-0.425-0.011-1.269-0.034-1.688-0.045
		c-2.225-0.877-4.488-1.626-6.764-2.342c1.287,0.944,2.756,1.599,4.12,2.432c-2.706-0.112-5.366,0.313-8.032,0.682
		c0.045-0.559,0.134-1.677,0.179-2.236c-0.24,0.743-0.403,1.509-0.576,2.275l-0.407,0.078l-0.408-0.576
		c-0.844,0.369-1.705,0.71-2.566,1.012l0.19-1.023c0.806-0.721,1.626-1.437,2.37-2.23c-2.326,1.196-4.361,2.879-6.502,4.354
		l-0.195,0.05l-0.771-0.067c0.074-0.408,0.213-1.229,0.285-1.643c-1.531,0.989-3.292,0.581-4.902,0.05
		c0.984,0.503,0.028,1.006-0.246,1.459c-0.374-0.565-1.48-0.738-1.414-1.56c2.41-0.676,4.803-1.415,7.217-2.074l0.599,0
		c-0.291,0.296-0.866,0.889-1.151,1.18c0.955-0.19,1.877-0.101,2.771,0.274c0.755-0.447,1.404-1.045,2.091-1.587
		c-0.078-0.257-0.229-0.76-0.302-1.018c1.062-0.302,2.13-0.581,3.203-0.872c-1.141-0.128-2.286-0.207-3.426-0.268
		c0.1-0.224,0.307-0.676,0.407-0.9c-1.096-0.308-2.157-0.716-3.169-1.225c-0.022,1.358-1.516,1.062-2.438,1.32
		c0.637,0.234,1.274,0.469,1.917,0.715c-2.739,0.453-5.545,0.385-8.312,0.346c0.441-0.441,0.894-0.872,1.357-1.302
		c1.711-0.469,3.227-1.878,5.098-1.179c-0.385-0.727-0.76-1.454-1.129-2.18c2.857,0.838,5.624,1.957,8.514,2.683
		c-2.414-1.498-5.008-2.689-7.507-4.036c0.962-0.794,1.939-1.565,2.89-2.376c0.615,0.626,1.252,1.241,1.89,1.856
		c-0.732-0.291-1.453-0.582-2.175-0.878c0.504,0.822,1.33,1.644,0.822,2.678c1.051,0.369,2.09,0.76,3.136,1.157
		c0.04-0.263,0.117-0.799,0.156-1.062c0.833,1.062,1.705,2.118,2.879,2.834c-0.603-1-1.33-1.929-1.817-2.996
		c0.879-1.023,0.252-2.348,0.102-3.522c-0.912-0.151-1.576-0.766-2.113-1.47c-0.084,0.296-0.252,0.883-0.341,1.174
		c-0.19-0.291-0.581-0.878-0.776-1.168c1.072-0.749,2.135-1.509,3.174-2.303c0.945,1.638,1.041,3.583,1.605,5.361
		c0.134-0.167,0.402-0.492,0.536-0.66c-0.084-1.906-0.425-3.79-0.437-5.702c0.672,0.464,1.247,1.062,1.756,1.71
		C347.606,32.153,348.003,30.672,349.312,29.794L349.312,29.794z M346.231,38.648c-0.313,0.604-0.354,1.962,0.318,2.23
		C346.802,40.264,347.063,38.827,346.231,38.648L346.231,38.648z M366.595,31.029c0.15-0.19,0.453-0.57,0.599-0.76
		c0.698,0.481,1.347,1.034,1.962,1.622c-0.229,0.089-0.693,0.279-0.923,0.369C367.685,31.851,367.137,31.438,366.595,31.029
		L366.595,31.029z M385.081,31.164c0.212-0.269,0.637-0.799,0.849-1.068c0.27,0.486,0.526,0.984,0.783,1.487
		c-0.017,0.877,0.006,1.761,0.022,2.644c-0.459-0.62-0.889-1.263-1.325-1.9c0.04,1.548-0.86,2.772-1.816,3.891
		c0.38,0.185,1.135,0.553,1.515,0.738c-0.794,0.358-1.599,0.66-2.397,0.989c0.436-1.716,0.793-3.449,1.229-5.159
		c0.146-0.498,0.312-0.99,0.497-1.47L385.081,31.164L385.081,31.164z M359.523,36.155c1.515-1.509,3.343-2.661,5.159-3.768
		c0.102,0.324,0.291,0.978,0.392,1.308l-0.039,0.341c-1.067,0.671-1.935,1.593-2.622,2.639
		C361.441,36.513,360.479,36.34,359.523,36.155L359.523,36.155z M370.027,39.688c0.218-1.291-0.644-3.332,1.022-3.846
		c-0.089,1.28-0.189,2.566-0.342,3.84C370.541,39.688,370.2,39.688,370.027,39.688L370.027,39.688z M371.279,39.699
		c-0.347-0.682,0.392-1.437,1.062-1.476c0.012,0.369,0.028,1.107,0.039,1.47C372.106,39.699,371.559,39.699,371.279,39.699
		L371.279,39.699z M372.929,39.677c-0.761-1.626,1.246-1.816,1.357-0.19C373.945,39.531,373.27,39.626,372.929,39.677
		L372.929,39.677z M366.601,39.392c0.419-0.9,1.951-0.542,1.386,0.531C367.64,39.789,366.946,39.526,366.601,39.392L366.601,39.392z
		 M322.497,53.35c0.826-0.995,1.688-1.974,2.677-2.818l1.492-0.017c-0.296,0.414-0.889,1.247-1.185,1.666
		c0.866-0.235,1.744-0.458,2.627-0.66c0.09,0.805,0.224,1.61,0.453,2.387c0.464-1.018,0.9-2.052,1.353-3.081
		c1.146,0.039,2.297,0.118,3.443,0.28c-0.755,0.43-1.509,0.85-2.27,1.257c0.263,0.146,0.794,0.431,1.062,0.576
		c-1.514,0.621-2.968,1.381-4.438,2.102c-0.269,0.056-0.805,0.168-1.068,0.224c-0.066-0.548-0.189-1.644-0.251-2.191
		c-0.593,0.938-1.073,1.934-1.509,2.951c-0.951-0.676-1.879-1.38-2.74-2.168L322.497,53.35L322.497,53.35z M316.812,59.728
		c1.604-1.738,3.191-3.499,4.74-5.293c0.537,0.861,1.068,1.727,1.604,2.594c-0.929-0.045-1.856-0.09-2.778-0.14
		c0.458,0.363,0.922,0.727,1.396,1.084c-0.15,0.201-0.457,0.604-0.614,0.805c-0.938,0.62-1.895,1.218-2.812,1.872
		C317.963,60.421,317.197,59.957,316.812,59.728L316.812,59.728z M311.966,65.061c1.424-1.828,3.135-3.404,4.667-5.148
		c0.122,0.542,0.308,1.068,0.548,1.577C315.353,62.55,313.804,64.015,311.966,65.061L311.966,65.061z"/>
	<path fill-rule="evenodd" clip-rule="evenodd" fill="#058CCC" d="M376.863,17.133c0.839-1.012,1.693-2.023,2.649-2.935
		c1.538,1.683,3.191,3.265,4.685,4.992c-2.096-0.771-3.472-2.683-5.405-3.745c0.218,0.66,0.447,1.319,0.688,1.973
		C378.624,17.178,377.747,16.965,376.863,17.133L376.863,17.133z M381.129,18.172c0.872,0.867,1.8,1.728,2.309,2.879
		c0.664,0.201,1.335,0.402,2.012,0.604c-0.794,0.128-1.599,0.224-2.381,0.335c0.089,0.224,0.269,0.677,0.363,0.906
		c-0.626,0.386-1.241,0.783-1.856,1.174c-0.391-0.559-0.911-0.939-1.564-1.14c0.185-0.235,0.559-0.704,0.749-0.939
		c-1.995,0.229-4.003,0.302-6.01,0.313c0.342,0.665,0.722,1.308,1.073,1.967c-0.547-0.145-1.09-0.296-1.626-0.447
		c-0.397,0.877-0.8,1.755-1.342,2.549c-0.027-0.805-0.056-1.61-0.084-2.415l-0.989-0.163c0.609-0.917,1.224-1.828,1.912-2.688
		c0.587-0.738,1.162-1.476,1.755-2.208c1.861,0.101,3.549,1.012,5.377,1.347c-0.38-0.301-0.76-0.598-1.135-0.889
		C380.352,19.173,380.832,18.782,381.129,18.172L381.129,18.172z M376.131,23.042c1.028,0.615,2.102,1.258,3.365,1.067
		c-0.072,0.481-0.218,1.442-0.291,1.923c1.337-0.705,2.605-1.582,4.114-1.912c-0.866,1.437-2.27,2.387-3.454,3.521
		c0.391,0.156,1.174,0.464,1.565,0.615c-0.833,1.28-1.013,2.784-1.023,4.276c-0.436-0.38-0.866-0.76-1.291-1.141
		c-0.38,0.408-0.755,0.816-1.129,1.225c0-0.934,0.017-1.867-0.034-2.795l-0.285-0.341c-0.491-0.564-0.983-1.129-1.453-1.705
		c0.201-0.167,0.609-0.497,0.811-0.665c-0.71-0.464-1.375-0.973-1.99-1.542C376.55,25.451,376.237,24.137,376.131,23.042
		L376.131,23.042z M387.574,24.037c0.38,0.665,0.748,1.341,1.14,2.012c0.845,0.643,1.688,1.28,2.454,2.029
		c-0.195,0.52-0.386,1.034-0.576,1.554c0.308,0.503,0.621,1.012,0.939,1.521c0.168,0.285,0.509,0.861,0.676,1.151
		c-0.469,0.392-0.938,0.783-1.414,1.163c-0.458-0.928-0.922-1.845-1.419-2.745c-0.336-0.061-1.012-0.184-1.354-0.246
		c-0.111-1.342-0.251-2.711,0.112-4.03C387.926,25.646,387.729,24.847,387.574,24.037L387.574,24.037z M382.604,26.501
		c0.24-0.167,0.721-0.498,0.961-0.66c0.587,0.062,1.174,0.106,1.771,0.146c0.397,1.252,0.554,2.561,0.648,3.862
		c-0.323-0.111-0.961-0.341-1.285-0.458c-0.206,0.62-0.486,1.263-0.263,1.923c-0.185,0.48-0.352,0.973-0.497,1.47
		c-0.693-0.313-1.381-0.626-2.062-0.934c0.386-0.833,0.799-1.644,1.224-2.459c-0.246-0.034-0.732-0.089-0.978-0.123
		C382.644,28.419,382.783,27.474,382.604,26.501L382.604,26.501z M344.263,32.952c1.627-1.135,3.326-2.168,5.049-3.158
		c-1.309,0.878-1.706,2.359-1.588,3.868c-0.509-0.648-1.084-1.246-1.756-1.71c0.012,1.912,0.353,3.795,0.437,5.702
		c-0.134,0.167-0.403,0.492-0.536,0.66C345.304,36.536,345.208,34.59,344.263,32.952L344.263,32.952z M386.713,31.583l0.827-0.375
		c0.034,0.995,0.078,1.995,0.129,2.99c0.285-0.268,0.854-0.799,1.141-1.067c0.117,0.369,0.357,1.106,0.475,1.476
		c-1.325,0.894-2.728,1.671-4.176,2.348c-0.38-0.185-1.135-0.553-1.515-0.738c0.956-1.118,1.855-2.342,1.816-3.891
		c0.437,0.637,0.866,1.28,1.325,1.9C386.719,33.344,386.696,32.46,386.713,31.583L386.713,31.583z M339.327,36.653
		c0.576-0.475,1.157-0.95,1.762-1.397c0.195,0.291,0.586,0.877,0.776,1.168c0.089-0.291,0.257-0.878,0.341-1.174
		c0.537,0.704,1.201,1.319,2.113,1.47c0.15,1.174,0.777,2.499-0.102,3.522c0.488,1.067,1.214,1.996,1.817,2.996
		c-1.174-0.716-2.046-1.772-2.879-2.834c-0.039,0.263-0.117,0.799-0.156,1.062c-1.046-0.397-2.085-0.788-3.136-1.157
		c0.508-1.034-0.318-1.856-0.822-2.678c0.722,0.296,1.442,0.587,2.175,0.878C340.579,37.894,339.942,37.279,339.327,36.653
		L339.327,36.653z M363.51,40.477c0.727-0.414,1.575-0.414,2.386-0.531c-0.027,1.548,0.034,3.108,0.33,4.634
		c-0.704,0.995-1.353,2.035-2.141,2.968c0.09-0.358,0.273-1.068,0.363-1.425c-0.33,0.073-0.995,0.224-1.324,0.296
		c0.139-0.587,0.167-1.191,0.038-1.778C363.174,43.249,363.224,41.84,363.51,40.477L363.51,40.477z M338.937,42.662
		c1.012,0.509,2.073,0.917,3.169,1.225c-0.101,0.224-0.308,0.676-0.407,0.9c1.14,0.062,2.285,0.14,3.426,0.268
		c-1.073,0.291-2.141,0.57-3.203,0.872c0.073,0.257,0.224,0.76,0.302,1.018c-0.687,0.542-1.336,1.14-2.091,1.587
		c-0.894-0.375-1.816-0.464-2.771-0.274c0.285-0.291,0.86-0.883,1.15-1.179l-0.598,0c-0.072-0.386-0.207-1.157-0.279-1.548
		c-2.488-0.492-5.037-0.073-7.529-0.487c2.767,0.039,5.572,0.106,8.312-0.346c-0.643-0.246-1.28-0.481-1.917-0.715
		C337.421,43.724,338.913,44.02,338.937,42.662L338.937,42.662z M337.94,50.862c2.143-1.476,4.176-3.158,6.502-4.354
		c-0.744,0.794-1.565,1.509-2.37,2.23c-0.409,0.38-0.783,0.788-1.124,1.229l0.722-0.062C340.423,50.214,339.21,50.667,337.94,50.862
		L337.94,50.862z"/>
	<path fill-rule="evenodd" clip-rule="evenodd" fill="#00529C" d="M0.05,20.806c3.745,0.005,7.49-0.012,11.236,0.011
		c4.796,6.048,9.665,12.035,14.438,18.1c0.307,0.396,0.665,0.732,1.079,1.017c0.375-6.367,0.079-12.75,0.173-19.123
		c3.729-0.011,7.451-0.005,11.18-0.005c0,9.502,0,19.005,0,28.508c-3.55-0.006-7.094,0.005-10.643,0
		c-0.855,0.224-1.28-0.626-1.739-1.14c-4.366-5.467-8.787-10.889-13.164-16.351c-0.347-0.408-0.732-0.783-1.146-1.124
		c0.011,6.205,0.022,12.41-0.14,18.614c-3.768,0-7.535,0-11.303,0C0.017,39.811-0.039,30.308,0.05,20.806L0.05,20.806z
		 M60.164,21.129c6.076-0.799,12.438-0.285,18.128,2.091c4.052,1.694,7.742,4.936,8.82,9.335c1.325,4.712-1.218,9.743-5.047,12.482
		c-3.661,2.599-8.133,3.946-12.577,4.276c-4.64-0.129-9.408,0.508-13.902-0.984c-4.885-1.292-9.771-4.265-11.654-9.173
		c-1.694-3.991-0.453-8.72,2.442-11.811C49.907,23.517,55.139,21.851,60.164,21.129L60.164,21.129z M62.473,24.5
		c-2.42,0.441-4.5,2.068-5.774,4.136c-1.733,2.834-1.895,6.351-1.364,9.548c0.487,3.169,2.605,6.132,5.646,7.294
		c2.622,0.973,5.579,0.979,8.234,0.129c3.382-1.157,5.769-4.444,6.177-7.943c0.537-3.672,0.067-7.91-2.694-10.643
		C70.153,24.238,65.989,23.763,62.473,24.5L62.473,24.5z M92.378,20.811c8.217,0.005,16.435-0.034,24.651,0.017
		c3.639,0.341,7.664,0.727,10.425,3.399c2.393,2.174,3.158,6.071,1.331,8.827c-1.889,3.091-5.668,4.091-9.011,4.656
		c3.326,3.896,6.87,7.62,10.129,11.577c-4.343,0.067-8.687,0-13.024,0.039c-3.589-4.684-7.345-9.25-10.744-14.075
		c2.991,0.313,6.155,0.469,8.966-0.788c1.565-0.783,3.013-2.298,2.873-4.176c0.084-2.42-2.174-4.226-4.371-4.673
		c-3.13-0.57-6.322-0.257-9.486-0.335c-0.005,8.033,0.012,16.065-0.005,24.092c-3.907-0.089-7.82-0.05-11.728-0.056
		C92.373,39.811,92.384,30.314,92.378,20.811L92.378,20.811z M138.221,20.806c7.82,0,15.641,0,23.461,0
		c4.271,0.039,8.636,1.006,12.18,3.482c4.031,2.543,6.96,7.351,6.144,12.219c-0.782,4.986-4.846,8.838-9.379,10.654
		c-3.36,1.331-6.949,2.342-10.599,2.158c-7.267-0.011-14.54,0-21.806-0.005C138.209,39.811,138.209,30.308,138.221,20.806
		L138.221,20.806z M148.948,25.875c0.123,6.138-0.05,12.27-0.112,18.402c4.103-0.028,8.211,0.078,12.314-0.045
		c4.863-1.296,8.094-6.909,6.602-11.75c-0.732-2.923-3.242-5.114-6.059-5.975C157.55,25.378,153.185,25.959,148.948,25.875
		L148.948,25.875z M195.701,20.789c3.343,0.067,6.691-0.067,10.04,0.079c5.16,9.542,10.582,18.938,15.808,28.441
		c-4.058-0.056-8.128,0.146-12.181-0.106c-1.229-2.683-2.778-5.204-4.119-7.832c-4.847-0.005-9.693-0.106-14.528,0.044
		c-1.431,2.555-2.672,5.216-3.952,7.849c-1.855,0.083-3.717,0.061-5.573,0.022C186.037,39.789,190.855,30.28,195.701,20.789
		L195.701,20.789z M192.806,37.223c3.343,0.162,6.697,0.045,10.045,0.062c-1.515-3.349-3.521-6.445-5.086-9.771
		C195.841,30.576,194.438,33.981,192.806,37.223L192.806,37.223z M216.183,20.816c4.002-0.022,8.01-0.017,12.012-0.005
		c3.924,7.3,7.944,14.55,11.884,21.845c1.711-2.426,2.795-5.254,4.203-7.871c2.248-4.673,4.785-9.201,6.96-13.913
		c1.851-0.117,3.712-0.067,5.573-0.056c-4.763,9.542-9.637,19.033-14.489,28.525c-3.404-0.062-6.803-0.017-10.207-0.028
		C226.792,39.828,221.432,30.353,216.183,20.816L216.183,20.816z M262.315,20.806c3.533,0,7.071,0,10.609,0
		c0.012,9.502,0.006,19.005,0,28.508c-3.538,0-7.076,0-10.615,0C262.31,39.811,262.305,30.308,262.315,20.806L262.315,20.806z
		 M293.06,20.811c3.344-0.005,6.686-0.011,10.029,0c5.248,9.514,10.67,18.933,15.836,28.486c-3.98,0.034-7.966,0.011-11.946,0.017
		c-1.521-2.611-2.767-5.4-4.41-7.921c-4.829-0.106-9.671-0.039-14.506-0.022c-1.291,2.655-2.633,5.288-3.952,7.932
		c-1.839,0.017-3.684,0.028-5.518-0.022C283.429,39.794,288.265,30.314,293.06,20.811L293.06,20.811z M290.265,37.335
		c3.344-0.056,6.68-0.067,10.023,0.011c-1.504-3.381-3.5-6.523-5.188-9.81C293.368,30.728,291.634,33.97,290.265,37.335
		L290.265,37.335z M42.237,54.205c0.939-1.09,1.928-2.141,3.063-3.035c0.822,1.09,2.208,1.861,2.767,3.057
		c-0.906,1.045-1.895,2.018-2.979,2.874C44.188,56.089,43.227,55.133,42.237,54.205L42.237,54.205z M40.667,57.14
		c-0.229-0.956,0.581-1.369,1.302-1.666c1.045,0.989,2.074,1.995,3.024,3.074c1.264-0.844,2.203-2.074,3.337-3.074
		c0.553,0.408,1.582,0.782,1.263,1.682c-1.073,1.252-2.319,2.343-3.46,3.528c-0.011,0.854-0.022,1.71-0.034,2.571
		c0.503-0.357,1.006-0.721,1.515-1.079c0,0.442,0.005,1.325,0.011,1.761c0.709-0.414,1.56-0.665,2.119-1.291
		c0.514-1.622,0.855-3.293,1.369-4.914c0.771-0.123,1.464,0.15,2.068,0.62c-0.431,1.414-0.867,2.834-1.079,4.304
		c1.415,0.341,2.817,0.749,4.232,1.118c-0.045,0.481-0.128,1.448-0.174,1.928c-1.777-0.067-3.443-0.749-5.159-1.135
		c-0.715,0.386-1.437,0.771-2.163,1.135c0.363,0.274,0.705,0.57,1.028,0.895c-0.352,0.363-0.727,0.71-1.124,1.023
		c0.727,0.352,1.459,0.704,2.197,1.045c1.722-0.369,3.427-1.341,5.227-1.073c-0.005,0.458-0.006,1.375-0.011,1.839
		c-1.336,0.453-2.722,0.738-4.081,1.107c0.308,1.464,0.71,2.907,1.107,4.348c-0.548,0.486-1.275,0.537-1.962,0.621
		c-0.581-1.593-0.905-3.27-1.408-4.886c-0.682-0.385-1.358-0.776-2.029-1.179c-0.117,0.53-0.229,1.062-0.341,1.598
		c-0.324-0.257-0.973-0.777-1.297-1.034c-0.883,2.912,2.168,4.221,3.633,6.148c-0.274,0.699-0.76,1.213-1.425,1.537
		c-1.084-1.012-2.13-2.057-3.142-3.141c-1.14,0.982-2.158,2.102-3.259,3.124c-0.737-0.274-1.252-0.782-1.425-1.57
		c1.471-1.8,4.276-3.103,3.505-5.864c-0.352,0.162-1.045,0.486-1.392,0.654c-0.017-0.369-0.045-1.107-0.062-1.47
		c-0.699,0.402-1.392,0.805-2.091,1.213c-0.436,1.622-0.872,3.242-1.392,4.841c-0.688-0.051-1.392-0.117-1.979-0.521
		c0.358-1.476,0.783-2.929,1.096-4.416c-1.386-0.358-2.767-0.755-4.159-1.09c0.034-0.458,0.096-1.37,0.129-1.822
		c1.733-0.391,3.477,0.727,5.188,1.034c0.738-0.402,1.71-0.587,2.174-1.358c-1.258-0.017-1.308-1.325-0.073-1.453
		c-0.71-0.47-1.448-0.895-2.202-1.297c-1.711,0.391-3.371,1.073-5.143,1.146c-0.028-0.486-0.089-1.459-0.123-1.945
		c1.397-0.369,2.778-0.788,4.181-1.112c-0.201-1.448-0.771-2.812-0.99-4.254c0.391-0.709,1.292-0.665,1.985-0.659
		c0.486,1.66,0.934,3.32,1.33,5.003c0.715,0.441,1.448,0.85,2.203,1.218c-0.017-0.424-0.062-1.28-0.079-1.71
		c0.341,0.173,1.023,0.525,1.364,0.699c0.017-0.794,0.028-1.587,0.039-2.381C42.919,59.415,41.717,58.347,40.667,57.14L40.667,57.14
		z M31.734,58.794c1.353-0.335,2.694-0.721,4.047-1.062c0.341,1.353,0.693,2.7,1.051,4.046c-1.364,0.425-2.728,1.007-4.181,1.001
		C32.405,61.438,31.851,60.164,31.734,58.794L31.734,58.794z M54.462,57.67c1.353,0.313,2.683,0.693,4.03,1.04
		c-0.112,1.386-0.582,2.706-0.906,4.053c-1.409-0.196-2.772-0.587-4.142-0.962C53.741,60.416,54.104,59.04,54.462,57.67
		L54.462,57.67z M141.876,63.115c0.637-0.302,1.867-0.134,1.789,0.782c0.296,1.202-1.465,2.052-2.23,1.168
		C140.775,64.558,141.2,63.395,141.876,63.115L141.876,63.115z M199.978,62.892c0.637-0.011,1.274-0.022,1.917-0.028
		c-1.341,4.444-2.8,8.854-4.13,13.309c-0.19,0.968-1.415,0.66-2.096,0.648C197.015,72.154,198.574,67.542,199.978,62.892
		L199.978,62.892z M238.554,62.986c0.654,0,1.833-0.123,1.816,0.861c0.336,1.191-1.408,2.113-2.175,1.213
		C237.464,64.457,238.179,63.562,238.554,62.986L238.554,62.986z M261.925,62.852c0.626,0.022,1.258,0.045,1.889,0.068
		c-1.492,4.6-2.979,9.206-4.354,13.846c-0.459,0.022-1.381,0.072-1.846,0.101C258.8,72.132,260.478,67.515,261.925,62.852
		L261.925,62.852z M272.64,63.042c0.666-0.168,1.756-0.05,1.7,0.861c0.257,1.325-1.66,2.062-2.427,1.017
		C271.667,64.206,271.902,63.345,272.64,63.042L272.64,63.042z M88.063,76.895c1.123-4.685,2.884-9.218,4.243-13.846
		c2.672,0.207,5.919-0.799,8.15,1.062c1.515,2.471-0.9,5.338-3.343,5.92c1.174,2.068,0.967,4.538,1.247,6.825
		c-0.688-0.106-2.303,0.402-2.337-0.738c-0.212-1.582-0.15-3.22-0.604-4.762c-0.732-1.129-2.331-0.493-3.443-0.666
		c-0.643,2.023-1.296,4.047-1.895,6.087C89.578,76.811,88.566,76.866,88.063,76.895L88.063,76.895z M92.674,69.035
		c2.102,0.129,5.092,0.123,5.813-2.365c0.537-2.532-2.957-1.833-4.455-1.772C93.217,66.072,92.982,67.643,92.674,69.035
		L92.674,69.035z M223.796,63.909c0.38-0.979,1.403-1.034,2.303-0.855c0.308,4.589,0.592,9.185,0.71,13.784
		c-0.548-0.005-1.643-0.011-2.186-0.017c-0.061-1.241-0.123-2.487-0.145-3.734c-1.582,0.012-3.164-0.112-4.741,0.034
		c-1.47,1.408-2.029,4.572-4.678,3.667C217.849,72.417,220.889,68.208,223.796,63.909L223.796,63.909z M220.996,71.45
		c1.079-0.044,2.158-0.062,3.242-0.006c0.291-1.615-0.062-3.259-0.101-4.885C223.042,68.146,221.633,69.611,220.996,71.45
		L220.996,71.45z M107.046,75.502c-1.157-4.052,2.583-9.737,7.172-8.194c2.124,0.889,1.292,3.549,0.71,5.199
		c-2.012,0.078-4.036-0.157-6.031,0.128c0.072,0.889-0.403,2.046,0.547,2.633c1.381,0.665,2.851,0.028,4.226-0.318
		c0.811,1.252-0.889,1.771-1.772,1.917C110.227,77.117,107.946,77.291,107.046,75.502L107.046,75.502z M109.528,71.092
		c1.33,0.05,2.661,0.034,3.991-0.061c0.067-0.878,0.537-2.225-0.66-2.538C111.222,68.118,109.964,69.694,109.528,71.092
		L109.528,71.092z M121.966,73.35c0.458-2.722,2.073-5.797,5.069-6.25c1.649-0.542,3.281,1.432,4.701-0.095
		c-0.676,3.729-2.146,7.379-3.332,11.012c-1.056,3.053-4.869,3.729-7.558,2.555c0.313-0.492,0.638-0.973,0.979-1.442
		c2.141,1.286,4.802-0.011,5.271-2.403c-1.302,0.15-2.655,0.492-3.94,0.084C121.91,76.207,121.669,74.574,121.966,73.35
		L121.966,73.35z M125.716,69.287c-1.107,1.47-1.683,3.348-1.817,5.165c0.268,1.811,2.516,1.186,3.661,0.621
		c0.475-1.901,1.247-3.712,1.705-5.613C128.863,67.928,126.566,68.286,125.716,69.287L125.716,69.287z M138.976,68.431
		c0.101-1.895,2.185-1.056,3.426-1.235c-0.911,3.214-2.04,6.367-2.979,9.576c-0.48,0.017-1.442,0.045-1.923,0.062
		c0.738-2.645,1.699-5.227,2.426-7.871C139.691,68.828,139.216,68.565,138.976,68.431L138.976,68.431z M152.363,67.431
		c1.7-0.688,4.461-0.648,5.087,1.459c0.576,3.768-2.174,8.452-6.378,8.11c-1.476,0.168-2.968-0.989-2.957-2.516
		C148.21,71.667,149.557,68.487,152.363,67.431L152.363,67.431z M153.022,68.644c-1.99,0.889-2.359,3.337-2.895,5.21
		c-0.481,1.476,1.458,2.246,2.571,1.627c2.035-0.928,2.448-3.483,2.862-5.456C155.89,68.61,154.012,68.062,153.022,68.644
		L153.022,68.644z M165.734,67.235c1.006,0.027,2.146-0.33,2.99,0.402c1.576-0.475,4.231-1.364,5.042,0.671
		c0.207,2.946-1.504,5.624-2.102,8.463c-0.47,0.017-1.409,0.056-1.878,0.072c0.548-2.549,1.683-4.93,2.174-7.49
		c-0.576-1.632-2.688-0.75-3.689-0.056c-1.051,2.18-1.493,4.617-2.32,6.892c-0.207,0.951-1.409,0.632-2.091,0.621
		c0.761-2.694,1.8-5.305,2.487-8.016c-0.262-0.034-0.788-0.095-1.056-0.123C165.443,68.191,165.589,67.71,165.734,67.235
		L165.734,67.235z M182.375,69.907c-0.324-2.409,2.672-2.946,4.461-2.862c1.386-0.196,3.186,0.766,2.717,2.398
		c-0.671,2.454-1.487,4.874-2.281,7.295c-0.693,0.273-1.297,0.139-1.806-0.414c-1.599,0.709-4.483,1.441-5.277-0.699
		c-0.218-1.414,0.609-2.945,1.845-3.655c1.571-1.001,3.51-0.799,5.282-0.928c0.079-0.811,0.771-1.839-0.078-2.459
		c-1.274-0.386-2.828-0.084-3.427,1.218C183.454,69.823,182.738,69.879,182.375,69.907L182.375,69.907z M182.548,75.368
		c1.917,0.9,4.215-0.821,4.108-2.884c-1.04,0.1-2.18-0.196-3.142,0.302C182.565,73.188,181.777,74.445,182.548,75.368
		L182.548,75.368z M235.764,68.442c-0.045-1.928,2.119-1.051,3.332-1.247c-0.806,3.03-1.856,5.992-2.756,8.994
		c-0.19,0.963-1.414,0.627-2.084,0.632c0.715-2.638,1.76-5.182,2.375-7.848C236.412,68.839,235.982,68.576,235.764,68.442
		L235.764,68.442z M247.352,67.263c0.425-0.022,1.269-0.062,1.688-0.084c0.027,0.257,0.078,0.766,0.101,1.018
		c1.012-1.045,2.672-1.542,4.013-0.816c0.732,0.967-0.385,1.492-1.022,2.018c-1.425-1.409-3.454-0.039-3.969,1.542
		c-0.615,1.728-1.101,3.5-1.671,5.244c-0.146,1.017-1.42,0.637-2.097,0.554C245.362,73.574,246.479,70.455,247.352,67.263
		L247.352,67.263z M270.108,67.207c0.983-0.006,1.967-0.006,2.962,0c-0.956,3.208-2.034,6.384-2.974,9.604
		c-0.453,0.006-1.363,0.022-1.816,0.033c0.548-2.733,1.666-5.316,2.381-8.01c-0.252-0.045-0.748-0.14-1-0.19
		C269.806,68.163,269.951,67.688,270.108,67.207L270.108,67.207z M280.394,67.436c0.967-0.559,2.197-0.167,3.22,0.101
		c1.274-0.185,2.549-0.822,3.846-0.324c1.163,0.424,1.347,1.878,0.978,2.912c-0.653,2.247-1.447,4.443-2.09,6.691
		c-0.47,0-1.397,0-1.867,0.005c0.66-2.515,1.705-4.924,2.22-7.474c-0.626-1.621-2.784-0.765-3.774,0.017
		c-0.898,2.006-1.33,4.209-2.057,6.289c-0.055,1.163-1.174,1.33-2.118,1.258c0.386-2.61,1.521-5.059,2.226-7.602
		C280.528,68.755,279.918,68.224,280.394,67.436L280.394,67.436z M295.548,75.033c-0.431-3.03,1.201-6.574,4.17-7.708
		c1.358-0.431,3.287-0.537,4.164,0.821c0.8,1.409,0.078,3.03-0.385,4.427c-1.979-0.095-3.965-0.112-5.938,0.005
		c-0.027,0.838-0.469,2.035,0.437,2.588c1.397,0.973,3.007-0.185,4.522-0.05c0.229,1.531-1.694,1.693-2.779,1.866
		C298.152,77.195,295.956,76.883,295.548,75.033L295.548,75.033z M298.097,71.047c1.309,0.078,2.627,0.083,3.941,0.067
		c0.206-0.883,0.682-2.348-0.582-2.65C299.763,68.135,298.694,69.723,298.097,71.047L298.097,71.047z M311.786,71.092
		c-0.52-3.694,5.282-5.466,7.334-2.896c-0.872,1.867-2.281-0.167-3.662,0.268c-0.983,0.045-2.336,1.471-1.396,2.326
		c1.33,0.643,3.918,0.447,3.772,2.56c-0.503,3.751-5.545,4.634-8.272,2.74c0.234-0.599,0.643-1.057,1.213-1.375
		c1.549,1.547,4.707,1.229,5.148-1.18C314.715,72.378,312.188,73.082,311.786,71.092L311.786,71.092z M32.902,70.298
		c1.375,0.302,2.75,0.638,4.114,0.984c-0.302,1.426-0.671,2.84-1.174,4.209c-1.319-0.414-2.644-0.782-3.985-1.106
		C32.164,73.009,32.522,71.651,32.902,70.298L32.902,70.298z M53.305,71.226c1.364-0.375,2.722-0.738,4.081-1.118
		c0.447,1.325,0.783,2.678,1.185,4.014c-1.341,0.576-2.761,0.939-4.209,1.14C54.065,73.904,53.68,72.562,53.305,71.226
		L53.305,71.226z M45.054,76.09c1.168,0.855,2.354,1.833,3.069,3.107c-1.023,0.883-1.912,1.9-2.8,2.918
		c-1.163-0.905-2.186-1.963-3.108-3.102C43.182,78.051,44.144,77.096,45.054,76.09L45.054,76.09z"/>
	<path fill-rule="evenodd" clip-rule="evenodd" fill="#73B8DE" d="M384.941,24.987c0.402-0.498,0.849-0.973,1.324-1.42
		c-0.212,1.028-0.431,2.062-0.56,3.108c0.437-0.458,0.833-0.956,1.19-1.487c-0.027,2.035,0.576,3.997,0.644,6.021l-0.827,0.375
		c-0.257-0.503-0.515-1.001-0.783-1.487c-0.212,0.269-0.637,0.799-0.85,1.068l-0.643,0.151c-0.223-0.66,0.056-1.303,0.263-1.923
		c0.324,0.117,0.961,0.347,1.285,0.458c-0.095-1.302-0.251-2.61-0.648-3.862c-0.598-0.039-1.185-0.084-1.771-0.146
		C384.013,25.551,384.471,25.266,384.941,24.987L384.941,24.987z M388.714,26.049c0.291-0.089,0.883-0.263,1.18-0.347
		c0.57,0.531,1.101,1.113,1.609,1.716c-0.323,1.269,0.749,2.543,0.028,3.734c-0.318-0.508-0.632-1.017-0.939-1.521
		c0.19-0.52,0.38-1.034,0.576-1.554C390.402,27.329,389.559,26.691,388.714,26.049L388.714,26.049z M360.687,38.727
		c-0.09-0.827,0.285-1.229,1.129-1.213C361.759,38.279,361.385,38.682,360.687,38.727L360.687,38.727z M346.231,38.648
		c0.832,0.179,0.57,1.616,0.318,2.23C345.879,40.61,345.918,39.252,346.231,38.648L346.231,38.648z M340.948,49.968
		c0.341-0.441,0.715-0.85,1.124-1.229l-0.19,1.023c0.861-0.302,1.723-0.643,2.566-1.012l0.408,0.576
		c-1.062,0.213-2.125,0.414-3.188,0.582L340.948,49.968L340.948,49.968z M288.622,78.996c0.865-0.066,1.392-0.967,2.158-1.319
		c0.167,0.878-0.834,1.079-1.342,1.493c-1.783,1.129-3.242,2.861-5.344,3.443c-0.711,0.732-1.616,1.509-2.706,1.42
		c-1.426-0.275-2.063,1.352-3.544,1.111c-0.096-0.229-0.279-0.693-0.375-0.928c1.018-0.039,1.777-0.771,2.694-1.101
		c0.599,0.362,1.263,0.464,1.979,0.302c0.011-0.347,0.027-1.051,0.038-1.397c0.364,0.022,1.085,0.062,1.442,0.083
		c0.196-0.29,0.582-0.877,0.777-1.174c0.392,1.66,2.102,0.123,1.509-0.905l0.716,0.497C287.18,79.907,287.61,78.856,288.622,78.996
		L288.622,78.996z M99.667,85.575c-0.464-1.157,0.861-1.269,1.61-1.599c0.156,0.168,0.475,0.503,0.632,0.672l0.184,0.2l0.274-0.045
		l0.766-0.05c0.805,0.715,0.229,1.431-0.218,2.146c0.716-0.107,1.347-0.414,1.884-0.917l0.302,0.56
		c-0.548,0.574-1.023,1.224-1.42,1.944c-0.688-0.626-1.437-1.274-1.431-2.274c-0.173,1.146-1.464,2.191-1.845,0.43
		c0.251-0.072,0.755-0.217,1.012-0.285C100.825,86.106,100.243,85.85,99.667,85.575L99.667,85.575z M271.617,86.56
		c1.767-1.068,3.841-1.141,5.83-1.421c-0.587,0.688-1.677,1.107-1.554,2.181c-0.715,0.151-1.437,0.269-2.152,0.347
		c0.057,0.156,0.168,0.464,0.229,0.615c-0.279-0.045-0.839-0.135-1.118-0.186c-0.285,0.744-1.186,0.822-1.789,1.18
		c-3.645,1.27-7.16,2.868-10.811,4.115c0.486-1.041,0.234-1.672-0.766-1.89c-0.475,0.614-1.146,0.788-2.007,0.524
		c0.464,0.806,0.04,2.264-1.112,2.08c0.033-0.246,0.095-0.738,0.129-0.979l-0.627,0.264c-0.15-0.264-0.463-0.789-0.62-1.051
		c-0.033,0.29-0.095,0.871-0.128,1.162c-0.246-0.129-0.744-0.386-0.99-0.515c-0.234,0.235-0.709,0.704-0.944,0.939
		c0.263,0.944-0.653,1.414-1.18,1.979c-1.146,0-2.828,0.861-3.577-0.329c-0.671-0.738-1.582,0.251-2.297,0.418
		c-1.527-0.233-3.701,0.66-4.456-1.224c0.929,0.011,1.845,0.129,2.757,0.357l-0.303-0.804c0.961,0.027,1.861-0.324,2.756-0.649
		c0.459,0.408,0.922,0.816,1.393,1.219c-0.168-0.386-0.498-1.151-0.666-1.531c0.442,0.162,1.314,0.485,1.756,0.653l-0.101-0.715
		c0.374-0.106,1.123-0.308,1.503-0.408c-0.201,0.955-1.303,1.414-1.47,2.325c1.247,0.626,2.521,0.129,3.091-1.112
		c0.039-1.051,1.057-1.588,1.867-2.035c1.923-0.715,3.918-1.263,5.942-1.62l0.062,0.598l0.732-0.185l0.234,0.732
		c0.537-0.564,1.151-0.771,1.855-0.626c1.001-1.18,3.158-1.151,4.685-0.788c0.56-0.531,1.146-1.051,1.593-1.688
		c-0.363-0.068-1.09-0.208-1.459-0.28C268.817,87.135,270.466,87.303,271.617,86.56L271.617,86.56z M272.674,87.432
		C273.06,87.801,273.06,87.801,272.674,87.432L272.674,87.432z M245.607,94.631l-0.022,0.38
		C246.771,95.905,246.865,93.759,245.607,94.631L245.607,94.631z M108.991,86.414c2.292,0.24,4.411,1.285,6.652,1.806
		c0.397,0.983,1.895,0.665,1.929,1.811c-1.437,0.084-2.449-1.112-3.93-0.827c-1.492-0.151-0.503,2.091-2.119,1.974L110.97,90.5
		c0.207-0.168,0.609-0.498,0.81-0.66c-0.721-0.268-0.928-1.012-1.431-1.503l0.162,0.995l-0.76-0.012l-0.05-0.916
		c-1.28,0.727-2.806,0.391-4.17,0.816c-1.168-1.007,0.95-1.544,1.448-0.604c0.531-0.374,1.118-0.604,1.766-0.682
		C108.807,87.555,108.93,86.793,108.991,86.414L108.991,86.414z M118.925,89.142c0.877,0.296,1.828,0.515,2.476,1.235
		c0.995-0.078,2.683-0.285,3.041,0.934c-1.09-0.162-1.851,0.134-2.482,0.967c-0.257-0.195-0.777-0.586-1.04-0.783
		c-0.827,0.359-2.012,0.582-1.576-0.754c-0.375-0.033-1.124-0.1-1.498-0.14c0.274-0.14,0.822-0.425,1.095-0.57
		C118.936,89.807,118.93,89.365,118.925,89.142L118.925,89.142z M104.989,90.841c1.889-1.458,5.086-1.347,6.227,0.995
		c-0.542,0.654-1.14,1.258-1.867,1.699C107.856,92.697,106.358,91.875,104.989,90.841L104.989,90.841z M116.012,91.227
		c1.515-0.201,1.358,1.822,1.878,2.807c0.012-0.504,0.034-1.504,0.04-2.008c0.587,0.957,1.492,0.683,2.359,0.414
		c-0.19,0.207-0.576,0.615-0.766,0.822c0.062,0.542,0.19,1.615,0.251,2.157c-0.469,0.006-1.409,0.011-1.878,0.018l0.089-0.95
		c-0.66,0.698-1.325,1.392-1.845,2.201l-0.369-0.425c-0.157-0.978-0.263-1.962-0.403-2.946c0.442,0,1.325,0,1.761,0
		c-0.251-0.139-0.755-0.419-1.006-0.559c-0.028-0.38-0.056-0.76-0.084-1.135L116.012,91.227L116.012,91.227z M118.791,93.586
		C119.092,93.972,119.092,93.972,118.791,93.586L118.791,93.586z M125.526,91.344c0.33,0.045,0.983,0.141,1.308,0.186
		c0.179,0.094,0.537,0.273,0.716,0.363c0.201,0.116,0.604,0.34,0.805,0.452c-0.151,0.224-0.453,0.659-0.598,0.884
		c0.089,0.256,0.279,0.776,0.375,1.033l-0.827-0.715c-0.324,0.844-0.85,1.162-1.118,0.084c-0.341,0.122-1.029,0.369-1.37,0.496
		l-0.151-1.084c-1.202,0.56-0.956,1.594-0.044,2.247c-0.967-0.061-2.041-0.329-2.795,0.476c0.743,0.777,0.128,2.259,1.146,2.723
		c-1.162-2.113,1.32-0.878,2.337-1.639c0.084-1.855,2.588-1.626,3.701-0.771c-0.335,1.778-2.404,0.828-3.645,1.202
		c-0.229,0.313-0.699,0.934-0.928,1.241c0.246,0.279,0.732,0.833,0.979,1.112c-1.118-0.012-2.281-0.129-3.259-0.716
		c-0.604-0.022-1.163-0.189-1.683-0.497c-0.816-0.414-2.168-0.353-2.442-1.409c0.805,0.096,1.615,0.14,2.432,0.124l0.268-0.448
		c0.196-0.038,0.582-0.111,0.771-0.15c0.509-1.045,0.335-1.889-0.514-2.521c1.258,0.363,3.085-0.341,3.482-1.498
		c-0.19-0.156-0.57-0.464-0.76-0.62C124.335,91.785,124.945,91.602,125.526,91.344L125.526,91.344z M126.561,92.445
		C126.946,92.825,126.946,92.825,126.561,92.445L126.561,92.445z M112.407,92.328c0.855,0.436,1.621,0.369,2.297-0.19l0.207,1.04
		c0.011,0.324,0.033,0.973,0.044,1.297c-0.173,0.15-0.514,0.447-0.682,0.598l-0.397,0.364c-0.302-0.04-0.911-0.118-1.219-0.151
		c-0.128-0.096-0.392-0.285-0.525-0.381c0.464-0.38,0.906-0.782,1.325-1.201l0.76,0.335C114.022,93.1,112.519,93.367,112.407,92.328
		L112.407,92.328z M130.484,92.345c1.286,0.476,3.6,0.146,3.863,1.929c-0.648,0.296-1.124,0.821-1.627,1.308
		c1.062-0.24,1.604-1.375,2.767-1.336c-0.011,0.358-0.045,1.067-0.056,1.426l0.548-0.017c0.005-0.369,0.022-1.102,0.028-1.471
		c1.302,0.341,2.716-0.615,3.874,0.308c0.402,0.397,1.498,0.693,0.911,1.414c-1.073,0-2.141-0.14-3.197-0.335
		c-0.308,0.727-0.66,1.437-1.045,2.13c-0.861-0.56-1.716-1.118-2.577-1.66c-0.894,0.402-1.828,0.927-2.845,0.715
		c0.079-0.475,0.235-1.414,0.313-1.89c-1.068,0.039-2.124-0.134-3.159-0.352l0.302-0.402c0.738-0.358,1.548-0.543,2.348-0.721
		C130.82,93.127,130.596,92.607,130.484,92.345L130.484,92.345z M142.732,95.413c1.196,0.057,3.208-0.542,3.711,0.872
		C145.096,97.18,143.732,96.375,142.732,95.413L142.732,95.413z M146.27,97.616c-0.318-0.934,0.498-1.979,1.493-1.822
		c1.19-0.051,2.062,1.402,3.259,0.542c0.721,0.425,1.454,0.855,2.063,1.442c-1.057,0.542-2.052-0.531-3.03,0.084
		c-0.296-0.106-0.9-0.324-1.202-0.437c0.442,0.357,0.889,0.71,1.347,1.045c-0.128,0.247-0.38,0.738-0.509,0.984
		c-0.637-0.375-1.241-0.811-1.951-1.034c-0.877,0.162-1.565,1.229-2.487,0.911C145.18,98.589,145.756,98.052,146.27,97.616
		L146.27,97.616z M147.399,97.51C147.438,99.343,149.087,96.654,147.399,97.51L147.399,97.51z M234.635,96.643
		c0.738-0.894,1.979-0.676,3.002-0.877c-2.035,0.855-0.207,2.359,1.252,2.197c-0.005-0.297-0.022-0.878-0.028-1.169
		c1.079-0.335,1.471,0.084,1.18,1.253c0.648-0.699,1.364-1.342,2.197-1.828c-0.117,0.352-0.358,1.051-0.48,1.402
		c0.084,0.162,0.245,0.498,0.324,0.66c-0.297,0.117-0.889,0.341-1.186,0.458c-0.486-0.206-0.984-0.29-1.492-0.257
		c-0.486,0.889-1.186,0.899-2.097,0.039c0.476,1.447-1.722,1.073-2.409,0.654c0.755-0.229,1.526-0.402,2.303-0.56
		c-0.134-0.385-0.414-1.146-0.553-1.525c-1.437,0.514-3.175,1.146-4.567,0.14C232.723,96.627,233.779,95.883,234.635,96.643
		L234.635,96.643z M144.906,97.062c0.246,0,0.732-0.006,0.978-0.006l0.017,0.408c-0.246,0-0.732,0-0.979,0L144.906,97.062
		L144.906,97.062z M242.394,97.935c-0.207-0.855,1.264-1.101,1.873-0.917C244.087,97.688,243.059,98.169,242.394,97.935
		L242.394,97.935z M142.905,97.761c0.319-0.653,0.861-0.805,1.627-0.452C144.263,97.974,143.721,98.125,142.905,97.761
		L142.905,97.761z M222.041,97.984c1.487,0.319,2.974-0.475,4.478-0.508c0.011,1.14-1.364,1.168-1.918,1.95
		c-0.195-0.151-0.592-0.446-0.793-0.592c-0.453,0.044-1.364,0.139-1.817,0.184C222.002,98.762,222.03,98.242,222.041,97.984
		L222.041,97.984z M129.204,99.467c0.425-0.526,0.654-1.739,1.587-1.387c0.207,0.419,0.408,0.85,0.599,1.28l-0.677,0.401
		l-0.425,0.984c1.481-0.475,2.51-1.845,4.165-1.884l-0.509,0.929c-0.396,0.189-0.805,0.362-1.213,0.52
		c-0.358,0.564-0.705,1.134-1.057,1.704c-0.844-0.944-2.141-0.648-3.248-0.899c-0.604-0.347-1.168-0.755-1.744-1.135
		c-0.179-0.453-0.357-0.905-0.531-1.353c1.554,0.179,2.516,1.638,3.773,2.09c0.017-0.24,0.039-0.721,0.05-0.961L129.204,99.467
		L129.204,99.467z M161.184,97.963c1.392,0.15,4.014,1.174,2.465,2.89c0.794-0.084,1.767,0.017,1.912-0.973
		c-0.28-0.045-0.839-0.129-1.124-0.168c0.034-0.704-0.218-1.303-0.749-1.794c0.419,0.05,1.258,0.14,1.677,0.189l-0.308,1.219
		c0.688-0.515,1.817-1.833,2.56-0.593c-0.626,0.207-1.09,0.599-1.392,1.186c0.71,0.022,1.42,0.056,2.135,0.101
		c0.475,0.414,1.012,0.727,1.615,0.939l-0.067,0.179c-0.732-0.146-1.442-0.089-2.13,0.167c0.106,0.369,0.324,1.102,0.431,1.465
		c-0.839-0.402-2.32-0.263-2.365-1.504c0.369,0,1.096-0.005,1.465-0.011l-0.017-0.273c-0.699-0.353-1.431,0.167-2.13,0.245
		c0.011,0.794,0.011,1.945-1.107,1.772c-0.034-0.431-0.112-1.291-0.151-1.722c-0.403-0.062-1.208-0.19-1.61-0.252
		c0.084-0.419,0.246-1.264,0.324-1.683C161.905,99.17,161.469,98.605,161.184,97.963L161.184,97.963z M218.195,98.655
		c0.755-0.446,1.705-0.251,2.504-0.626c-0.005,0.917,0.486,2.393-1.04,1.694c-0.095,0.43-0.212,1.638-0.939,1.028
		c-1.029-0.688-1.822,0.604-2.583,1.101c1.124-0.479,1.934,0.392,2.622,1.062c-1.034-0.039-2.113-0.006-3.063-0.486
		c0.005,0.218,0.022,0.648,0.033,0.866c-1.436,0.336-2.957,0.252-4.332,0.816c0.179-0.279,0.536-0.827,0.715-1.106
		c-0.76-0.062-2.51-0.196-2.158,1.051l-0.704-0.017c-0.106-0.118-0.312-0.342-0.419-0.453c1.85-1.135,4.187-2.46,6.456-1.789
		c0.347-0.458,0.682-0.922,1.006-1.397c-0.531,0.078-1.599,0.24-2.135,0.318c0.285-0.257,0.844-0.776,1.124-1.033
		c-0.28-0.146-0.833-0.431-1.107-0.576C215.506,98.907,216.837,98.628,218.195,98.655L218.195,98.655z M212.605,102.529
		C212.985,102.859,212.985,102.859,212.605,102.529L212.605,102.529z M213.751,102.558
		C214.059,102.977,214.059,102.977,213.751,102.558L213.751,102.558z M228.318,99.275c1.073-0.005,1.246-1.503,2.398-1.497
		c0.615,1.09-0.307,1.767-1.118,2.258l0.71,0.072l0.234-0.626c1.252-0.122,2.432-0.631,3.684-0.782
		c-0.453,0.934-1.706,0.911-2.096,1.851c-1.694-0.615-3.008,1.453-4.64,0.542C227.625,100.21,229.615,100.562,228.318,99.275
		L228.318,99.275z M170.586,100.087c0.715-2.08,3.51-1.313,5.148-0.979l-0.157,0.447c-0.989-0.039-1.945-0.353-2.917-0.38
		C172.101,99.751,171.352,99.98,170.586,100.087L170.586,100.087z M153.084,99.26c0.732,0.374,1.286,0.185,1.666-0.57
		c0.76,0.447,1.548,0.508,2.364,0.184c-0.179,1.381,1.286,0.806,1.929,0.526c1.068-0.124,2.409-0.353,3.164,0.643
		c-1.471,0.509-2.924-0.375-4.411,0.101c0.05,0.273,0.145,0.827,0.196,1.106c-1.135-0.195-1.973,0.962-3.058,0.319
		c-0.268,0.038-0.799,0.122-1.068,0.167c-0.257-0.71-0.777-1.006-1.565-0.889C152.9,100.483,153.241,99.98,153.084,99.26
		L153.084,99.26z M155.141,100.288C155.465,100.64,155.465,100.64,155.141,100.288L155.141,100.288z M167.729,99.242
		c0.732-0.284,1.464-0.291,2.208-0.017C169.686,99.896,167.735,100.143,167.729,99.242L167.729,99.242z M176.148,99.131
		c1.437,0.111,2.896,0.062,4.299,0.419c0.905-0.05,2.806-0.872,2.99,0.425l-0.85-0.257c0.212,0.944-0.525,1.308-1.219,1.648
		c-0.111-0.362-0.335-1.084-0.447-1.447c-1.56,0.168-3.03-0.503-4.589-0.234L176.148,99.131L176.148,99.131z M209.223,99.231
		c0.732-0.168,1.481-0.146,2.242,0.066c-0.57,0.151-1.141,0.302-1.705,0.453c0.476,0.643,1.258,0.917,1.794,1.493
		c-1.202,0.189-2.415,0.262-3.628,0.312c-0.151,0.665-0.33,1.325-0.553,1.968c-0.934-0.257-1.817-0.665-2.728-1.001
		c-1.101,0.18-2.062,0.889-3.186,1.034c0-0.441,0-1.33,0-1.771c-1.112,0.044-2.23,0.084-3.337,0.062
		c0.531-0.9,1.705-0.95,2.611-1.213c-0.263-0.235-0.794-0.716-1.057-0.95c1.61-0.498,3.248,0.29,4.891,0.189
		c-0.084,0.363-0.251,1.085-0.335,1.448c0.173-0.19,0.515-0.576,0.688-0.767c0.369,0.386,0.732,0.788,1.084,1.202
		c0.324-0.335,0.66-0.659,1.006-0.973c0.481-0.162,0.973-0.263,1.487-0.302c-0.162-0.201-0.486-0.604-0.648-0.805
		C208.189,99.566,208.876,99.343,209.223,99.231L209.223,99.231z M225.641,99.092c0.805-0.648,1.873,0.347,2.219,1.073
		C227.111,100.478,225.59,100.059,225.641,99.092L225.641,99.092z M172.979,101.965c0.576-0.648,0.984-1.42,1.548-2.079
		c0.414,0.43,0.833,0.86,1.258,1.291c0.906-0.274,1.861-0.235,2.778-0.447c-0.234,0.884-1.246,0.956-1.816,1.51
		c0.33-0.028,0.995-0.079,1.325-0.106l0.302,1.146c-0.827-0.497-2.225,0.738-2.644-0.396c0.106-0.225,0.313-0.677,0.414-0.9
		l-0.414-0.201c-0.503,1.034,0.162,2.723-1.415,2.974c-0.067-0.732-0.034-1.459,0.101-2.18l-0.313-0.045
		c0,0.357-0.011,1.079-0.017,1.442l-0.86,0.045c0.017-0.285,0.056-0.85,0.072-1.135c-0.14,0.201-0.419,0.608-0.559,0.815
		c-0.609-0.156-1.141-0.022-1.593,0.402c0.039,0.599,1.191,1.426,0.022,1.717c-1.018,0.57-2.297,0.38-3.208-0.296
		c-0.056-0.722,0.793-0.806,1.235-1.146c0.364-0.062,1.09-0.185,1.454-0.246c0.738-0.86,1.124-2.073,0.011-2.812
		c0.816,0.106,1.593-0.022,2.331-0.392L172.979,101.965L172.979,101.965z M174.147,101.339
		C174.169,103.217,175.824,100.495,174.147,101.339L174.147,101.339z M222.527,101.238c0.521-0.956,1.851-0.716,2.75-0.559
		c0.14-0.202,0.419-0.599,0.559-0.8c0.196,0.324,0.599,0.973,0.794,1.297C225.356,102.055,223.891,101.506,222.527,101.238
		L222.527,101.238z M144.973,102.797c0.28-0.765,0.453-1.788,1.375-2.034c0.62,0.525,1.246,1.057,1.956,1.481
		c1.135-0.318,2.203-0.85,3.371-1.067c-0.14,0.531-0.414,1.593-0.553,2.124c1.258-0.028,2.583-0.146,3.762,0.392
		c-1.554,0.548-2.997,1.666-4.701,1.554c0.162-0.212,0.486-0.643,0.654-0.855c-0.794-0.285-1.353-0.922-1.922-1.504l0.066,0.761
		c-0.525-0.24-1.067-0.363-1.638-0.279c-0.162-0.252-0.486-0.761-0.648-1.018c-0.05,0.425-0.146,1.264-0.19,1.688
		c-1.095-0.425-2.23-0.285-3.27,0.229c-0.704-0.419-1.744-0.704-1.604-1.732C142.749,102.552,143.861,102.646,144.973,102.797
		L144.973,102.797z M159.015,101.456c0.884-0.821,2.164-0.883,3.282-1.112c-0.123,0.347-0.375,1.051-0.503,1.397
		c0.374-0.095,1.118-0.285,1.492-0.38c-0.011,1.235-1.37,1.18-2.152,1.609c0.128-0.407,0.386-1.235,0.508-1.648
		C160.771,101.389,159.893,101.434,159.015,101.456L159.015,101.456z M183.236,101.573c2.029-0.447,4.589-1.33,6.182,0.554
		c0.034,0.312,0.101,0.939,0.129,1.252c-0.771,0.363-1.554,0.716-2.32,1.096c-1.683,0.509-4.108-0.922-4.998,1.186
		c-0.318,0.167-0.956,0.503-1.274,0.67h-1.397c0.939-0.844,1.962-1.615,3.242-1.85c-0.229-0.235-0.688-0.71-0.917-0.95
		C182.325,102.87,182.772,102.217,183.236,101.573L183.236,101.573z M185.332,103.642
		C185.589,104.027,185.589,104.027,185.332,103.642L185.332,103.642z M194.896,104.179c-0.363-0.895,0.246-1.409,0.95-1.822
		c0.302,0.156,0.9,0.47,1.196,0.626l0.106,0.441c0.917-0.168,1.839-0.341,2.761-0.515c-0.838,0.806-0.565,1.504,0.251,2.107
		c-1.118,0.162-2.258,0.42-3.348-0.017c-0.883,0.727-2.365,0.699-3.108-0.201c-0.101,0.279-0.302,0.844-0.402,1.124
		c-0.548-0.604-0.643-1.415-0.821-2.164C193.309,103.754,194.158,103.72,194.896,104.179L194.896,104.179z M160.955,103.888
		c0.861-0.089,1.716-0.224,2.577-0.33c0.028,0.336,0.079,1.018,0.106,1.353c0.369,0.324,1.101,0.962,1.47,1.28
		c-1.638,0.939-2.174-0.71-2.829-1.654c0.056,0.447,0.173,1.342,0.229,1.789c-0.66-0.062-1.984-0.18-2.65-0.24
		c-0.156-0.28-0.464-0.833-0.62-1.107l-0.352,0.761c-0.324,0.038-0.967,0.117-1.292,0.156c0.458-1.04,1.548-1.699,2.649-1.828
		c-0.011,0.308-0.039,0.928-0.056,1.235C160.446,104.827,160.698,104.357,160.955,103.888L160.955,103.888z M161.145,104.748
		C161.458,105.151,161.458,105.151,161.145,104.748L161.145,104.748z M178.691,103.67c0.352,0.441,0.715,0.878,1.073,1.319
		c-0.235,0.335-0.693,1.006-0.922,1.341h-0.123c-0.229-0.302-0.688-0.905-0.917-1.207
		C178.099,104.637,178.395,104.156,178.691,103.67L178.691,103.67z M202.678,104.973c0.508-1.241,2.75-1.358,3.75-0.492
		C205.148,104.374,203.879,104.514,202.678,104.973L202.678,104.973z M163.939,103.898c0.727,0.022,1.448,0.141,2.158,0.353
		c0.469,0.654,0.866,1.358,1.246,2.079h-1.895C165.869,104.967,163.979,105.05,163.939,103.898L163.939,103.898z M188.501,104.838
		c0.967-0.598,2.292-0.811,3.208,0.012C190.889,105.638,189.005,106.196,188.501,104.838L188.501,104.838z M174.901,105.189
		c0.928-0.245,2.013,0.219,2.359,1.141h-2.152C175.052,106.045,174.952,105.476,174.901,105.189L174.901,105.189z"/>
	<path fill-rule="evenodd" clip-rule="evenodd" fill="#0069B5" d="M371.044,25.467c0.845,0.503,0.42,1.621,0.582,2.426
		c0.727-0.173,1.447-0.33,2.185-0.492c-0.278,0.755-0.558,1.51-0.826,2.264c1.067-0.643,2.168-1.23,3.23-1.89
		c0.47,0.576,0.962,1.141,1.453,1.705c-1.123,1.157-2.309,2.236-3.499,3.315c0.693,0.017,1.392,0.039,2.097,0.062
		c-0.465,0.688-0.929,1.369-1.397,2.057c0.368,0.615,1.392,1.062,1.33,1.823c-0.441,0.011-1.319,0.028-1.761,0.033
		c0.09,0.515,0.263,1.532,0.353,2.046l0.017,0.537l-0.521,0.134c-0.111-1.626-2.118-1.437-1.357,0.19l-0.549,0.017
		c-0.011-0.363-0.027-1.101-0.039-1.47c-0.67,0.039-1.408,0.793-1.062,1.476l-0.57-0.017c0.151-1.274,0.251-2.56,0.341-3.84
		c-1.666,0.514-0.805,2.555-1.023,3.846c-0.508,0.062-1.525,0.173-2.04,0.235c0.565-1.073-0.967-1.431-1.386-0.531
		c-0.179,0.139-0.531,0.414-0.705,0.553c-0.811,0.117-1.659,0.117-2.387,0.531c-0.285,1.364-0.335,2.772-0.347,4.164
		c-0.29-0.117-0.86-0.341-1.151-0.453c-0.899-0.464-1.811-0.9-2.744-1.28c-0.067-0.346-0.201-1.034-0.269-1.38
		c0.431-0.582,0.845-1.163,1.247-1.767c0.111-0.257,0.334-0.777,0.441-1.034c0.698-0.045,1.072-0.447,1.129-1.213
		c0.15-0.207,0.447-0.626,0.598-0.838c0.688-1.045,1.555-1.968,2.622-2.639l0.04-0.341c0.24-1.023,0.854-1.873,1.52-2.667
		c0.542,0.408,1.09,0.822,1.638,1.23c0.229-0.089,0.693-0.28,0.923-0.369c-0.615-0.587-1.264-1.141-1.962-1.622
		c0.731-0.967,1.396-1.973,2.112-2.946c0.297-0.062,0.883-0.184,1.18-0.246C370.625,26.675,370.905,25.87,371.044,25.467
		L371.044,25.467z M381.878,31.851c0.682,0.307,1.369,0.621,2.062,0.934c-0.437,1.71-0.794,3.443-1.229,5.159
		c-1.32,0.509-2.678,0.895-4.07,1.135c-0.027-0.213-0.089-0.649-0.117-0.867c-0.308,0.039-0.916,0.118-1.225,0.157
		c0.313-0.604,0.626-1.202,0.945-1.806c-0.47-0.498-0.923-0.995-1.381-1.493c0.755-0.022,1.515-0.039,2.281-0.056
		c0.056-0.503,0.173-1.509,0.234-2.013c0.402,0.503,0.341,1.716,1.185,1.644C381.056,33.74,381.441,32.785,381.878,31.851
		L381.878,31.851z M331.463,43.741c1.56-1.666,3.241-3.225,4.975-4.712c2.499,1.347,5.092,2.538,7.507,4.036
		c-2.889-0.727-5.656-1.845-8.514-2.683c0.369,0.727,0.744,1.453,1.129,2.18C334.688,41.863,333.173,43.271,331.463,43.741
		L331.463,43.741z M325.174,50.532c1.414-2.012,3.22-3.723,4.931-5.489c2.493,0.414,5.041-0.005,7.529,0.487
		c0.072,0.391,0.207,1.162,0.279,1.548c-2.414,0.659-4.807,1.397-7.217,2.074c-0.066,0.822,1.04,0.995,1.414,1.56
		c0.274-0.453,1.23-0.956,0.246-1.459c1.61,0.531,3.371,0.939,4.902-0.05c-0.072,0.414-0.212,1.235-0.285,1.643l0.771,0.067
		c-1.877,0.648-3.756,1.286-5.596,2.029c-0.268-0.145-0.799-0.43-1.062-0.576c0.761-0.408,1.515-0.827,2.27-1.257
		c-1.146-0.162-2.298-0.241-3.443-0.28c-0.452,1.029-0.889,2.063-1.353,3.081c-0.229-0.777-0.363-1.583-0.453-2.387
		c-0.883,0.201-1.761,0.425-2.627,0.66c0.296-0.419,0.889-1.252,1.185-1.666L325.174,50.532L325.174,50.532z M321.552,54.434
		c0.312-0.357,0.626-0.721,0.944-1.084l-0.353,0.508c0.861,0.788,1.789,1.493,2.74,2.168c0.436-1.017,0.916-2.012,1.509-2.951
		c0.062,0.547,0.185,1.643,0.251,2.191c0.264-0.056,0.8-0.167,1.068-0.224c-2.264,1.102-4.434,2.381-6.552,3.734
		c0.157-0.202,0.464-0.604,0.614-0.805c-0.475-0.358-0.938-0.721-1.396-1.084c0.922,0.05,1.85,0.095,2.778,0.14
		C322.62,56.161,322.089,55.295,321.552,54.434L321.552,54.434z M316.633,59.912l0.179-0.185c0.386,0.229,1.151,0.693,1.537,0.922
		c-0.363,0.319-0.754,0.599-1.168,0.839C316.94,60.98,316.755,60.455,316.633,59.912L316.633,59.912z"/>
	<path fill-rule="evenodd" clip-rule="evenodd" fill="#1A4061" d="M101.277,83.977c2.102,0.067,4.394,0.604,5.69,2.404
		c0.414,1.101-1.688,1.006-1.867,0.162l-0.301-0.56c-0.537,0.503-1.168,0.81-1.884,0.917c0.447-0.716,1.023-1.432,0.218-2.146
		l-0.766,0.05c-0.112-0.039-0.347-0.117-0.458-0.155C101.752,84.479,101.434,84.145,101.277,83.977L101.277,83.977z M114.911,93.178
		c0.017-0.85,0.397-1.364,1.129-1.555c0.028,0.375,0.056,0.755,0.084,1.135c0.251,0.14,0.755,0.42,1.006,0.559
		c-0.436,0-1.319,0-1.761,0c0.14,0.984,0.246,1.969,0.403,2.946c-0.604-0.262-1.191-0.587-1.498-1.19
		c0.167-0.15,0.508-0.447,0.682-0.598C114.944,94.15,114.922,93.502,114.911,93.178L114.911,93.178z M127.55,91.893
		c0.799-0.062,1.599-0.107,2.403-0.129c-0.195,0.525-0.402,1.051-0.609,1.576c-0.19,0.189-0.57,0.575-0.761,0.771l-0.301,0.402
		l-0.123,0.168l-0.028-0.42c-0.095-0.257-0.285-0.777-0.375-1.033c0.146-0.225,0.447-0.66,0.598-0.884
		C128.153,92.232,127.751,92.009,127.55,91.893L127.55,91.893z M245.607,94.631c1.258-0.872,1.163,1.274-0.022,0.38L245.607,94.631
		L245.607,94.631z M137.645,98.556c1.292-0.202,2.487-0.822,3.823-0.84c-0.089,0.453-0.218,0.9-0.38,1.342
		c0.71-0.234,1.386-0.642,2.163-0.626c0,0.749,0,1.493-0.005,2.241c-1.358,0.102-3.332,1.655-4.282,0.112l0.905-0.083l-0.156-0.599
		c-0.229,0.185-0.682,0.548-0.911,0.727c-0.397-0.045-1.196-0.135-1.599-0.185c-0.744,0.587-1.604,0.983-2.382,1.515
		c0.19,0.224,0.57,0.66,0.76,0.878c-0.743-0.006-1.252-0.335-1.526-0.983c-0.777,0.312-1.632,0.413-2.381-0.04
		c0.353-0.57,0.699-1.14,1.057-1.704c0.408-0.157,0.816-0.33,1.213-0.52c0.52,1.24,2.348,0.357,3.404,0.614
		C137.438,99.784,137.539,99.17,137.645,98.556L137.645,98.556z M205.344,99.12c1.292-0.062,2.588-0.04,3.879,0.111
		c-0.347,0.111-1.034,0.335-1.375,0.447c0.162,0.201,0.486,0.604,0.648,0.805c-0.514,0.039-1.006,0.14-1.487,0.302
		c-0.263,0.095-0.794,0.279-1.062,0.375C205.758,100.473,205.556,99.796,205.344,99.12L205.344,99.12z M191.386,100.478
		c0.989-0.648,2.102-1.096,3.309-0.883c0.978-0.257,1.571,1.392,0.559,1.671C194.019,102.127,191.878,102.188,191.386,100.478
		L191.386,100.478z M155.141,100.288C155.465,100.64,155.465,100.64,155.141,100.288L155.141,100.288z M174.147,101.339
		C175.824,100.495,174.169,103.217,174.147,101.339L174.147,101.339z M146.695,102.351c0.162,0.257,0.486,0.766,0.648,1.018
		c0.57-0.084,1.112,0.039,1.638,0.279l-0.066-0.761c0.57,0.582,1.128,1.219,1.922,1.504c-0.167,0.213-0.492,0.644-0.654,0.855
		c-0.95-0.012-2.158,0.173-2.074-1.168c-1.56,0.503-3.332,1.012-4.875,0.189c1.04-0.514,2.174-0.653,3.27-0.229
		C146.549,103.614,146.645,102.775,146.695,102.351L146.695,102.351z M212.605,102.529
		C212.985,102.859,212.985,102.859,212.605,102.529L212.605,102.529z M209.955,104.056c-0.352-1.247,1.397-1.112,2.158-1.051
		c-0.179,0.279-0.537,0.827-0.715,1.106C211.035,104.095,210.313,104.066,209.955,104.056L209.955,104.056z M185.332,103.642
		C185.589,104.027,185.589,104.027,185.332,103.642L185.332,103.642z M182.845,106.33c0.626-0.934,2.403-1.051,2.968,0H182.845
		L182.845,106.33z"/>
</g>
</svg>
