<?xml version="1.0" encoding="utf-8"?>
<!-- Generator: Adobe Illustrator 16.0.0, SVG Export Plug-In . SVG Version: 6.00 Build 0)  -->
<!DOCTYPE svg PUBLIC "-//W3C//DTD SVG 1.1//EN" "http://www.w3.org/Graphics/SVG/1.1/DTD/svg11.dtd">
<svg version="1.1"
	 id="svg2" xmlns:sodipodi="http://sodipodi.sourceforge.net/DTD/sodipodi-0.dtd" xmlns:rdf="http://www.w3.org/1999/02/22-rdf-syntax-ns#" xmlns:svg="http://www.w3.org/2000/svg" xmlns:cc="http://creativecommons.org/ns#" xmlns:dc="http://purl.org/dc/elements/1.1/" xmlns:inkscape="http://www.inkscape.org/namespaces/inkscape" sodipodi:docname="S7_Airlines_Logo.svg" inkscape:version="0.46" sodipodi:version="0.32" inkscape:output_extension="org.inkscape.output.svg.inkscape"
	 xmlns="http://www.w3.org/2000/svg" xmlns:xlink="http://www.w3.org/1999/xlink" x="0px" y="0px" width="208.383px"
	 height="208.185px" viewBox="41.643 0 208.383 208.185" enable-background="new 41.643 0 208.383 208.185" xml:space="preserve">
<defs  display="none">
	
	
		<inkscape:perspective  inkscape:vp_x="0 : 320 : 1" inkscape:vp_y="0 : 1000 : 0" sodipodi:type="inkscape:persp3d" id="perspective33" inkscape:vp_z="625 : 320 : 1" inkscape:persp3d-origin="312.5 : 213.33333 : 1">
		</inkscape:perspective>
</defs>
<sodipodi:namedview  pagecolor="#ffffff" gridtolerance="10.0" guidetolerance="10.0" bordercolor="#666666" objecttolerance="10.0" borderopacity="1.0" showgrid="false" inkscape:cx="312.5" inkscape:zoom="0.721875" inkscape:cy="320" id="base" inkscape:pageopacity="0.0" inkscape:pageshadow="2" inkscape:current-layer="svg2" inkscape:window-width="640" inkscape:window-height="669" inkscape:window-x="23" inkscape:window-y="51">
	</sodipodi:namedview>
<g id="_x23_c0172bff">
	<path id="path5" fill="#C0172B" d="M144.936,0h3.07c4.775,0.152,9.557,0.486,14.291,1.184c16.852,2.396,33.006,9.311,46.4,19.805
		c15.404,12.088,28.172,27.973,34.975,46.453c6.967,18.885,8.033,39.75,4.037,59.414c-3.744,18.27-13.107,35.168-25.975,48.598
		c-13.295,14.156-30.422,24.932-49.371,29.555c-21.117,5.145-43.887,4.148-64.195-3.779c-17.104-6.68-32.496-17.848-43.893-32.273
		c-10.008-12.738-17.227-27.738-20.49-43.629c-4.822-23.496-1.5-48.691,9.92-69.844C62.5,38.602,76.018,24.182,92.459,14.555
		C108.244,5.145,126.555,0.088,144.936,0 M131.441,48.328c-8.889,0.34-17.959,0.656-26.502,3.369
		c-6.621,2.396-12.961,6.246-17.18,12c-4.477,6.029-6.059,13.852-5.309,21.234c0.832,7.418,5.186,13.945,10.57,18.902
		c6.381,6.041,14.408,9.832,21.492,14.924c2.988,2.18,6.275,4.383,7.869,7.863c1.898,3.996,0.75,9.035-2.426,12.047
		c-4.711,4.682-11.602,6.152-18.023,6.375c-6.229,0.105-12.498-0.188-18.639-1.312c-1.799-0.281-3.551-0.949-5.379-0.926
		c-1.564,0.328-2.027,2.057-2.52,3.352c-1.043,3.229-2.291,6.398-3.264,9.65c-0.627,1.676,0.07,3.873,1.91,4.371
		c5.795,1.799,11.906,2.256,17.936,2.555c7.453,0.299,15.023,0.27,22.307-1.541c9.029-2.121,17.496-6.938,23.508-14.057
		c5.748-6.686,8.467-16.008,6.697-24.697c-1.541-7.166-6.252-13.178-11.637-17.947c-7.4-6.709-16.74-10.764-24.205-17.396
		c-4.623-3.674-5.016-11.467-0.85-15.627c2.889-3.012,7.031-4.447,11.098-4.934c7.98-0.943,16.037-0.738,24.059-0.803
		c2.004,0.1,4.084-0.82,4.992-2.678c1.84-3.51,2.93-7.342,4.348-11.027c0.316-1.025,0.932-2.414-0.076-3.264
		c-0.996-0.656-2.244-0.48-3.369-0.533C143.049,48.281,137.242,48.17,131.441,48.328 M164.33,51.223
		c-1.277,3.076-2.297,6.252-3.521,9.346c-0.422,1.266-1.078,2.578-0.826,3.949c0.229,1.055,1.424,1.23,2.326,1.207
		c9.463-0.029,18.932-0.135,28.395-0.141c-8.549,19.201-16.84,38.525-25.91,57.486c-0.609,1.119-0.662,3.229,1.02,3.322
		c4.5,0.188,9.018,0.1,13.523,0.047c2.244-0.018,4.189-1.582,4.975-3.639c10.471-23.736,20.871-47.508,31.359-71.244
		c0.275-0.721,0.621-1.471,0.521-2.262c-0.521-1.09-1.875-1.014-2.883-1.055c-14.654,0.006-29.314,0-43.969,0
		C167.248,48.1,165.104,49.225,164.33,51.223z"/>
	<path id="path7" display="none" fill="#C0172B" d="M16.609,247.506c2.994-1.119,6.463-1.102,9.428,0.111
		c2.572,1.043,4.172,3.557,4.799,6.17c3.721,14.139,7.377,28.295,11.115,42.428c0.158,0.932,0.656,1.986-0.012,2.842
		c-2.947,0.293-5.941,0.27-8.889,0.023c-1.711-4.664-2.426-9.674-3.768-14.467c-5.367-0.018-10.729,0.012-16.09-0.018
		c-1.154,4.295-2.127,8.643-3.281,12.938c-0.246,0.574-0.357,1.582-1.189,1.576c-2.895,0.258-5.824,0.193-8.707-0.152v-1.172
		c3.838-14.625,7.646-29.256,11.479-43.881C12.162,251.162,13.879,248.525,16.609,247.506 M19.896,256.166
		c-1.752,6.855-3.346,13.758-5.039,20.631c4.107,0,8.215,0,12.322,0c-1.74-7.055-3.311-14.156-5.168-21.176
		C21.713,254.121,19.896,254.982,19.896,256.166z"/>
	<path id="path9" display="none" fill="#C0172B" d="M73.838,247.418c6.744-0.135,13.629-1.617,20.268,0.199
		c4.271,1.02,8.514,3.463,10.441,7.57c1.922,4.102,1.887,8.906,0.809,13.23c-1.072,4.219-4.529,7.377-8.479,8.947
		c3.604,7.055,7.605,13.91,11.074,21.023c-0.094,0.182-0.287,0.539-0.387,0.721c-3.006,0.205-6.035,0.146-9.047,0.053
		c-0.762,0.047-1.02-0.814-1.365-1.307c-3.352-6.234-6.744-12.445-10.113-18.668c-2.373-0.135-4.74-0.275-7.107-0.422
		c-0.076,6.299,0.047,12.604-0.053,18.902c0.182,2.08-2.379,1.441-3.662,1.57c-1.945-0.199-4.143,0.445-5.924-0.48
		c-0.369-1.717-0.176-3.486-0.211-5.227c0.053-14.637-0.076-29.279,0.064-43.91C70.082,247.676,72.402,247.459,73.838,247.418
		 M79.908,255.211c0,5.232,0,10.459,0.006,15.691c4.066,0.322,8.291,0.738,12.229-0.604c5.936-1.928,6.311-11.959,0.445-14.209
		C88.598,254.262,84.127,255.293,79.908,255.211z"/>
	<path id="path11" display="none" fill="#C0172B" d="M226.111,249.469c4.283-2.871,9.727-3.018,14.695-2.514
		c3.51,0.381,7.078,0.316,10.559,0.949c0.949,1.846,0.375,4.213,0.363,6.246c-0.094,0.158-0.275,0.48-0.369,0.639
		c-5.455,0.498-10.975-0.135-16.436,0.316c-2.016,0.182-3.703,1.828-4.002,3.82c-0.451,3.17-0.123,6.393-0.217,9.592
		c6.123,0.012,12.246-0.023,18.369,0.006c0.674,0.035,1.869-0.012,1.811,1.002c0.164,1.951,0.17,3.932-0.006,5.889
		c0.006,0.967-1.113,0.943-1.787,0.979c-6.129,0.041-12.258-0.006-18.387,0.012c0.076,3.568-0.182,7.148,0.135,10.699
		c0.17,2.414,2.32,4.383,4.746,4.336c4.875,0.158,9.762-0.053,14.643,0.076c0.592,0.035,1.477,0.064,1.512,0.873
		c0.176,1.887,0.199,3.809-0.047,5.689c-0.967,1.02-2.549,0.715-3.814,0.914c-5.502,0.176-11.068,1.395-16.523,0.158
		c-3.158-0.668-6.258-2.273-8.08-5.016c-1.863-2.725-2.297-6.123-2.262-9.346c0.029-8.221-0.035-16.441,0.029-24.662
		C221.102,256.084,222.619,251.783,226.111,249.469z"/>
	<path id="path13" display="none" fill="#C0172B" d="M271.07,247.113c5.338-0.75,10.781-0.416,16.107,0.287
		c1.336,0.287,2.854,0.27,3.996,1.096c0.322,2.314,0.346,4.717-0.041,7.025c-5.76,0.621-11.648-0.979-17.449-0.352
		c-2.057,0.264-4.301,1.518-4.623,3.75c-0.51,1.916,0.732,3.686,2.109,4.869c5.543,4.646,13.125,6.393,18.023,11.877
		c5.479,6.018,4.816,17.396-2.66,21.516c-6.287,3.328-13.74,2.713-20.572,2.033c-1.729-0.398-3.885-0.205-5.191-1.547
		c-0.199-2.121-0.252-4.289,0.053-6.393c0.152-0.135,0.451-0.404,0.598-0.533c5.748-0.322,11.596,1.576,17.268,0.193
		c3.674-0.885,5.279-5.941,2.783-8.766c-2.666-3.129-6.586-4.74-9.938-7.002c-3.867-2.438-8.338-4.553-10.617-8.748
		c-2.203-4.008-2.186-9.164-0.076-13.201C262.879,249.521,267.074,247.723,271.07,247.113z"/>
	<path id="path15" display="none" fill="#C0172B" d="M49.557,247.623c2.748-0.469,5.643-0.287,8.432-0.105
		c1.031,0.158,0.574,1.4,0.727,2.121c-0.006,15.809,0,31.617,0,47.42c-0.076,0.727,0.117,1.998-0.943,2.057
		c-2.549,0.199-5.133,0.17-7.682,0.018c-1.096-0.018-0.979-1.318-1.025-2.068c-0.012-15.627,0.018-31.248-0.012-46.875
		C49.252,249.398,48.695,248.033,49.557,247.623z"/>
	<path id="path17" display="none" fill="#C0172B" d="M115.639,247.494c2.648-0.217,5.338-0.17,7.992-0.029
		c1.16-0.059,1.043,1.33,1.09,2.121c-0.006,11.719,0,23.443-0.012,35.162c0.018,1.799,0.088,3.814,1.377,5.227
		c0.99,1.137,2.561,1.471,4.008,1.5c4.107,0.064,8.215-0.035,12.328,0.012c0.639,0.059,1.822-0.076,1.805,0.908
		c0.158,1.898,0.287,3.867-0.117,5.748c-1.447,1.143-3.469,0.979-5.203,1.277c-5.168,0.322-10.523,0.809-15.539-0.785
		c-2.865-0.914-5.496-2.807-6.908-5.508c-1.494-2.719-1.723-5.9-1.676-8.941c0.018-11.514,0-23.021,0.006-34.535
		C114.906,248.895,114.578,247.652,115.639,247.494z"/>
	<path id="path19" display="none" fill="#C0172B" d="M150.789,247.512c2.643-0.252,5.32-0.182,7.975-0.047
		c1.125-0.023,0.984,1.359,1.014,2.115c-0.018,15.826,0,31.652-0.012,47.479c-0.047,0.738,0.059,2.004-0.979,2.057
		c-2.514,0.193-5.057,0.164-7.57,0.023c-1.096,0.018-1.125-1.219-1.096-2.01c-0.006-15.832,0.012-31.67-0.012-47.508
		C150.215,248.9,149.863,247.805,150.789,247.512z"/>
	<path id="path21" display="none" fill="#C0172B" d="M171.256,250.143c-0.076-1.096,0.404-2.443,1.641-2.596
		c3.076-0.299,6.199-0.217,9.293-0.076c1.535,0.105,2.32,1.576,2.877,2.824c5.004,11.133,10.066,22.236,15.07,33.369
		c0.41,0.908,0.908,1.77,1.471,2.596c0.445-12.586-0.006-25.201,0.229-37.799c-0.064-1.131,1.295-1.055,2.062-1.078
		c2.127,0.158,4.506-0.48,6.48,0.451c0.305,15.621,0.023,31.26,0.141,46.887c-0.047,1.506,0.193,3.756-1.629,4.312
		c-2.818,0.369-5.695,0.182-8.531,0.123c-1.746,0-3.416-1.014-4.072-2.654c-4.998-10.857-9.967-21.727-14.93-32.602
		c-0.352-0.732-0.814-1.406-1.277-2.068c-0.293,11.947,0.023,23.912-0.158,35.859c0.105,0.797-0.393,1.529-1.248,1.471
		c-2.221,0.088-4.482,0.205-6.686-0.111c-1.002-0.422-0.627-1.676-0.75-2.52C171.268,281.068,171.227,265.605,171.256,250.143z"/>
</g>
<g id="_x23_ffffffff" display="none">
	<path id="path24" display="inline" fill="#FFFFFF" d="M131.441,48.328c5.801-0.158,11.607-0.047,17.408-0.1
		c1.125,0.053,2.373-0.123,3.369,0.533c1.008,0.85,0.393,2.238,0.076,3.264c-1.418,3.686-2.508,7.518-4.348,11.027
		c-0.908,1.857-2.988,2.777-4.992,2.678c-8.021,0.064-16.078-0.141-24.059,0.803c-4.066,0.486-8.209,1.922-11.098,4.934
		c-4.166,4.16-3.773,11.953,0.85,15.627c7.465,6.633,16.805,10.688,24.205,17.396c5.385,4.77,10.096,10.781,11.637,17.947
		c1.77,8.689-0.949,18.012-6.697,24.697c-6.012,7.119-14.479,11.936-23.508,14.057c-7.283,1.811-14.854,1.84-22.307,1.541
		c-6.029-0.299-12.141-0.756-17.936-2.555c-1.84-0.498-2.537-2.695-1.91-4.371c0.973-3.252,2.221-6.422,3.264-9.65
		c0.492-1.295,0.955-3.023,2.52-3.352c1.828-0.023,3.58,0.645,5.379,0.926c6.141,1.125,12.41,1.418,18.639,1.312
		c6.422-0.223,13.312-1.693,18.023-6.375c3.176-3.012,4.324-8.051,2.426-12.047c-1.594-3.48-4.881-5.684-7.869-7.863
		c-7.084-5.092-15.111-8.883-21.492-14.924c-5.385-4.957-9.738-11.484-10.57-18.902c-0.75-7.383,0.832-15.205,5.309-21.234
		c4.219-5.754,10.559-9.604,17.18-12C113.482,48.984,122.553,48.668,131.441,48.328z"/>
	<path id="path26" display="inline" fill="#FFFFFF" d="M164.33,51.223c0.773-1.998,2.918-3.123,5.01-2.982
		c14.654,0,29.314,0.006,43.969,0c1.008,0.041,2.361-0.035,2.883,1.055c0.1,0.791-0.246,1.541-0.521,2.262
		c-10.488,23.736-20.889,47.508-31.359,71.244c-0.785,2.057-2.73,3.621-4.975,3.639c-4.506,0.053-9.023,0.141-13.523-0.047
		c-1.682-0.094-1.629-2.203-1.02-3.322c9.07-18.961,17.361-38.285,25.91-57.486c-9.463,0.006-18.932,0.111-28.395,0.141
		c-0.902,0.023-2.098-0.152-2.326-1.207c-0.252-1.371,0.404-2.684,0.826-3.949C162.033,57.475,163.053,54.299,164.33,51.223z"/>
</g>
</svg>
