<?xml version="1.0" encoding="utf-8"?>
<!-- Generator: Adobe Illustrator 16.0.0, SVG Export Plug-In . SVG Version: 6.00 Build 0)  -->
<!DOCTYPE svg PUBLIC "-//W3C//DTD SVG 1.1//EN" "http://www.w3.org/Graphics/SVG/1.1/DTD/svg11.dtd">
<svg version="1.1" id="Layer_1" xmlns="http://www.w3.org/2000/svg" xmlns:xlink="http://www.w3.org/1999/xlink" x="0px" y="0px"
	 width="189.466px" height="38.611px" viewBox="0 0 189.466 38.611" enable-background="new 0 0 189.466 38.611"
	 xml:space="preserve">
<g>
	<polygon display="none" fill-rule="evenodd" clip-rule="evenodd" fill="#FFFFFF" points="-1.566,-72 191.19,-72 191.19,120.755 
		-1.566,120.755 -1.566,-72 	"/>
	<polygon fill-rule="evenodd" clip-rule="evenodd" fill="#ED1C24" points="27.613,34.549 35.974,38.611 39.798,10.813 
		27.613,34.549 27.613,34.549 	"/>
	<polygon fill-rule="evenodd" clip-rule="evenodd" fill="#ED1C24" points="25.714,33.626 26.954,34.233 40.088,8.677 40.642,4.562 
		25.714,33.626 25.714,33.626 	"/>
	<polygon fill-rule="evenodd" clip-rule="evenodd" fill="#ED1C24" points="24.343,32.94 25.108,33.336 40.932,2.532 41.274,0 
		24.343,32.94 24.343,32.94 	"/>
	<polygon fill-rule="evenodd" clip-rule="evenodd" fill="#2E3192" points="30.198,8.492 0,38.268 17.644,33.495 30.198,8.492 
		30.198,8.492 	"/>
	<polygon fill-rule="evenodd" clip-rule="evenodd" fill="#2E3192" points="36.369,2.426 21.231,32.518 22.233,32.202 37.767,1.029 
		36.369,2.426 36.369,2.426 	"/>
	<polygon fill-rule="evenodd" clip-rule="evenodd" fill="#2E3192" points="34.813,3.93 31.78,6.937 18.541,33.231 20.334,32.755 
		34.813,3.93 34.813,3.93 	"/>
	<polygon fill-rule="evenodd" clip-rule="evenodd" fill="#2E3192" points="63.586,16.325 49.952,16.325 48.342,20.255 
		52.721,20.255 51.613,22.972 56.492,22.972 57.6,20.255 61.978,20.255 63.586,16.325 63.586,16.325 	"/>
	<polygon fill-rule="evenodd" clip-rule="evenodd" fill="#2E3192" points="90.619,31.226 95.499,31.226 97.845,25.451 
		102.46,25.451 100.087,31.226 104.966,31.226 107.815,24.291 93.441,24.291 90.619,31.226 90.619,31.226 	"/>
	<polygon fill-rule="evenodd" clip-rule="evenodd" fill="#2E3192" points="79.674,22.972 83.868,22.972 85.345,20.835 
		85.107,22.972 89.38,22.972 89.723,16.325 84.738,16.325 79.674,22.972 79.674,22.972 	"/>
	<polygon fill-rule="evenodd" clip-rule="evenodd" fill="#2E3192" points="84.764,26.163 81.679,26.163 82.944,24.291 
		78.646,24.291 73.345,31.226 78.092,31.226 79.463,29.275 84.342,29.275 84.105,31.226 88.958,31.226 89.301,24.291 84.949,24.291 
		84.764,26.163 84.764,26.163 	"/>
	<path fill-rule="evenodd" clip-rule="evenodd" fill="#2E3192" d="M74.136,24.976c0.29-0.186,0.581-0.423,0.817-0.686l0,0h-0.817
		H63.138h-0.976l-2.848,6.936h3.824h1.082l1.898-4.642h2.453l0,0c2.11,0,3.876-0.475,5.274-1.397
		C73.951,25.134,74.057,25.055,74.136,24.976L74.136,24.976L74.136,24.976L74.136,24.976z"/>
	<polygon fill-rule="evenodd" clip-rule="evenodd" fill="#2E3192" points="48.21,31.226 53.143,31.226 55.964,24.291 51.059,24.291 
		48.21,31.226 48.21,31.226 	"/>
	<path fill-rule="evenodd" clip-rule="evenodd" fill="#2E3192" d="M149.116,20.255c0.632-0.448,1.371-0.66,2.109-0.66
		c1.371,0,1.898,0.897,1.478,2.69l0,0h-3.086l-0.264,0.686h7.041h1.028l0,0c0.66-1.978,0.634-3.64-0.078-4.879
		c-0.264-0.448-0.58-0.817-0.95-1.108c-0.844-0.712-2.004-1.055-3.455-1.055c-2.268,0-4.272,0.554-5.96,1.583
		c-1.714,1.055-3.06,2.584-4.035,4.51l0,0h4.615l0,0C147.928,21.257,148.457,20.65,149.116,20.255L149.116,20.255L149.116,20.255
		L149.116,20.255z"/>
	<path fill-rule="evenodd" clip-rule="evenodd" fill="#2E3192" d="M110.267,22.972h0.396h4.483l0,0
		c0.502-0.976,1.029-1.741,1.636-2.321c0.765-0.712,1.608-1.082,2.479-1.082c0.737,0,1.292,0.211,1.556,0.66
		c0.316,0.422,0.343,1.028,0.079,1.793l0,0h2.584h2.058l0,0c0.606-1.925,0.475-3.455-0.369-4.51
		c-0.396-0.501-0.976-0.871-1.688-1.134c-0.791-0.29-1.767-0.448-2.927-0.448c-2.137,0-4.22,0.738-6.198,2.163
		c-1.503,1.082-2.769,2.453-3.692,4.088C110.531,22.444,110.399,22.681,110.267,22.972L110.267,22.972L110.267,22.972
		L110.267,22.972z"/>
	<path fill-rule="evenodd" clip-rule="evenodd" fill="#2E3192" d="M62.716,22.972h0.422h4.457l1.292-3.165h1.371l0,0
		c0.712,0,1.24,0.105,1.583,0.29c0.501,0.237,0.633,0.686,0.396,1.292C72,21.996,71.578,22.47,71.103,22.76
		c-0.132,0.079-0.264,0.132-0.396,0.211l0,0h3.428h1.925l0,0c0.316-0.501,0.58-1.029,0.817-1.609
		c0.66-1.556,0.633-2.795-0.053-3.639c-0.554-0.659-1.424-1.108-2.69-1.292c-0.448-0.053-0.976-0.105-1.529-0.105l0,0h-7.174
		l-2.294,5.565L62.716,22.972L62.716,22.972L62.716,22.972z"/>
	<path fill-rule="evenodd" clip-rule="evenodd" fill="#2E3192" d="M155.919,31.226h4.879l1.899-4.642h2.452l0,0
		c2.084,0,3.877-0.475,5.275-1.397c0.396-0.238,0.765-0.554,1.134-0.896l0,0h-12.817L155.919,31.226L155.919,31.226L155.919,31.226z
		"/>
	<path fill-rule="evenodd" clip-rule="evenodd" fill="#2E3192" d="M173.933,19.701c0.026-0.238,0.026-0.501,0-0.738
		c-0.079-0.475-0.238-0.897-0.528-1.24c-0.738-0.923-2.162-1.398-4.22-1.398l0,0h-7.173l-2.717,6.646h4.879l1.292-3.165h1.398l0,0
		c0.686,0,1.213,0.105,1.582,0.29c0.501,0.237,0.606,0.686,0.369,1.292c-0.264,0.607-0.659,1.082-1.134,1.372
		c-0.132,0.079-0.264,0.132-0.396,0.211l0,0h5.354l0,0c0.316-0.501,0.58-1.029,0.818-1.609
		C173.722,20.756,173.88,20.202,173.933,19.701L173.933,19.701L173.933,19.701L173.933,19.701z"/>
	<path fill-rule="evenodd" clip-rule="evenodd" fill="#2E3192" d="M156.896,24.291h-0.502h-7.568l-0.291,0.712h3.165l0,0
		c-0.475,0.923-1.028,1.635-1.582,2.109c-0.739,0.58-1.556,0.87-2.532,0.87c-0.712,0-1.187-0.237-1.424-0.686
		s-0.264-1.081-0.053-1.846l0,0h-4.694l0,0c-0.581,1.951-0.448,3.454,0.396,4.536c0.817,1.081,2.241,1.635,4.22,1.635
		c2.452,0,4.668-0.712,6.619-2.109c1.557-1.081,2.822-2.506,3.745-4.22C156.579,24.976,156.737,24.633,156.896,24.291
		L156.896,24.291L156.896,24.291L156.896,24.291z"/>
	<path fill-rule="evenodd" clip-rule="evenodd" fill="#2E3192" d="M182.373,26.769c-0.844,0.791-1.794,1.213-2.77,1.213
		c-1.055,0-1.635-0.475-1.767-1.424c-0.08-0.606,0.079-1.371,0.369-2.268l0,0h-4.272h-0.607l0,0c-0.791,2.215-0.791,3.955,0,5.248
		c0.158,0.29,0.369,0.554,0.607,0.765c0.896,0.87,2.294,1.318,4.193,1.318c2.268,0,4.404-0.712,6.408-2.083
		c1.899-1.318,3.376-3.086,4.378-5.248l0,0h-4.879l0,0C183.559,25.319,182.979,26.163,182.373,26.769L182.373,26.769L182.373,26.769
		L182.373,26.769z"/>
	<path fill-rule="evenodd" clip-rule="evenodd" fill="#2E3192" d="M189.466,18.356c-0.791-1.609-2.4-2.426-4.932-2.426
		c-2.321,0-4.51,0.738-6.514,2.11c-1.768,1.266-3.139,2.875-4.088,4.879c-0.027,0-0.027,0.027-0.027,0.053l0,0h0.027h4.853l0,0
		c0.369-0.792,0.844-1.478,1.397-2.058c0.87-0.896,1.82-1.345,2.849-1.345c0.949,0,1.556,0.449,1.74,1.319
		c0.105,0.553,0.053,1.239-0.185,2.083l0,0h4.879l0,0C190.073,21.151,190.073,19.595,189.466,18.356L189.466,18.356L189.466,18.356
		L189.466,18.356z"/>
	<polygon fill-rule="evenodd" clip-rule="evenodd" fill="#2E3192" points="111.084,16.325 110.663,16.325 106.179,16.325 
		104.123,21.336 99.506,21.336 101.564,16.325 96.685,16.325 93.969,22.972 108.369,22.972 110.663,17.328 111.084,16.325 
		111.084,16.325 	"/>
	<polygon fill-rule="evenodd" clip-rule="evenodd" fill="#2E3192" points="129.098,22.972 133.292,22.972 134.768,20.835 
		134.531,22.972 138.803,22.972 139.146,16.325 134.162,16.325 129.098,22.972 129.098,22.972 	"/>
	<path fill-rule="evenodd" clip-rule="evenodd" fill="#2E3192" d="M124.219,25.451h-0.739h-3.955l0,0
		c-0.37,0.765-0.924,1.397-1.53,1.846s-1.266,0.686-2.005,0.686c-1.107,0-1.767-0.422-1.898-1.239
		c-0.105-0.554,0.079-1.397,0.475-2.452l0,0h-3.903h-1.002l0,0c-0.765,2.162-0.765,3.93,0,5.222
		c0.264,0.422,0.606,0.791,1.002,1.107c0.924,0.659,2.242,1.002,3.93,1.002c1.979,0,3.851-0.554,5.564-1.635
		c1.293-0.844,2.427-1.926,3.323-3.271C123.744,26.321,124.008,25.899,124.219,25.451L124.219,25.451L124.219,25.451L124.219,25.451
		z"/>
	<polygon fill-rule="evenodd" clip-rule="evenodd" fill="#2E3192" points="134.188,26.163 131.076,26.163 132.369,24.291 
		128.07,24.291 122.742,31.226 127.515,31.226 128.886,29.275 133.766,29.275 133.502,31.226 138.381,31.226 138.724,24.291 
		134.373,24.291 134.188,26.163 134.188,26.163 	"/>
</g>
</svg>
