<?xml version="1.0" encoding="UTF-8" standalone="no"?>
<svg
   xmlns:dc="http://purl.org/dc/elements/1.1/"
   xmlns:cc="http://creativecommons.org/ns#"
   xmlns:rdf="http://www.w3.org/1999/02/22-rdf-syntax-ns#"
   xmlns:svg="http://www.w3.org/2000/svg"
   xmlns="http://www.w3.org/2000/svg"
   xmlns:sodipodi="http://sodipodi.sourceforge.net/DTD/sodipodi-0.dtd"
   xmlns:inkscape="http://www.inkscape.org/namespaces/inkscape"
   version="1.0"
   id="Layer_1"
   x="0px"
   y="0px"
   width="290.59799"
   height="82.260048"
   viewBox="0 0 290.59799 82.260048"
   enable-background="new 0 0 334 84"
   xml:space="preserve"
   inkscape:version="0.48.1 "
   sodipodi:docname="AJAX.svg"><metadata
   id="metadata202"><rdf:RDF><cc:Work
       rdf:about=""><dc:format>image/svg+xml</dc:format><dc:type
         rdf:resource="http://purl.org/dc/dcmitype/StillImage" /></cc:Work></rdf:RDF></metadata><defs
   id="defs200" /><sodipodi:namedview
   pagecolor="#ffffff"
   bordercolor="#666666"
   borderopacity="1"
   objecttolerance="10"
   gridtolerance="10"
   guidetolerance="10"
   inkscape:pageopacity="0"
   inkscape:pageshadow="2"
   inkscape:window-width="1280"
   inkscape:window-height="1004"
   id="namedview198"
   showgrid="false"
   fit-margin-top="0"
   fit-margin-left="0"
   fit-margin-right="0"
   fit-margin-bottom="0"
   inkscape:zoom="8.7486948"
   inkscape:cx="247.11667"
   inkscape:cy="40.949792"
   inkscape:window-x="-8"
   inkscape:window-y="-8"
   inkscape:window-maximized="1"
   inkscape:current-layer="g3" />
<g
   id="g3"
   transform="translate(-0.66700113,-0.869)">
	
	<g
   id="g41">
		<path
   clip-rule="evenodd"
   d="m 11.133,58.333 -2.265,-0.991 9.396,-1.145 c 0.167,0.271 0.329,0.511 0.519,0.765 l -7.65,1.371 0,0 z m 25.22,0 2.268,-1.051 -9.343,-1.114 c -0.082,0.3 -0.33,0.54 -0.498,0.794 l 7.573,1.371 0,0 z m -1.363,0.157 -2.847,0.954 -4.046,-1.228 -0.351,-0.11 c 0.135,-0.106 0.245,-0.213 0.351,-0.357 0.171,-0.133 0.307,-0.327 0.467,-0.467 l 6.426,1.208 0,0 z m 7.513,-2.65 -2.6,1.205 -10.381,-1.205 c 0.085,-0.243 0.167,-0.49 0.244,-0.741 l 12.737,0.741 0,0 z m 0.928,-0.36 3.39,-2.152 H 28.46 c 0,0.767 -0.111,1.425 -0.363,1.992 -0.704,1.829 -2.479,2.706 -4.256,2.68 -1.745,-0.051 -3.525,-0.954 -4.317,-2.623 -0.277,-0.607 -0.438,-1.251 -0.438,-2.049 H 0.667 L 4.028,55.48 18.1,54.752 c 0.272,1.005 0.771,1.882 1.424,2.529 1.123,1.181 2.729,1.832 4.317,1.832 1.559,0.033 3.14,-0.54 4.256,-1.799 0.605,-0.654 1.069,-1.502 1.345,-2.52 l 13.989,0.686 0,0 z m -15.334,5.58 0.363,0.657 -0.363,0.166 -0.952,0.438 -1.091,-2.162 c -0.685,0.24 -1.443,0.377 -2.213,0.406 -0.821,0.03 -1.672,-0.086 -2.409,-0.327 l -0.924,2.083 c -0.304,0.023 -0.713,0 -0.984,-0.196 -0.14,-0.084 -0.277,-0.218 -0.331,-0.407 l 0.331,-0.551 0.792,-1.419 c -0.249,-0.167 -0.465,-0.276 -0.688,-0.493 l 0.658,-0.792 c 1.125,0.685 2.352,1.062 3.556,1.062 1.204,0.03 2.4,-0.354 3.521,-1.145 l 0.734,0.218 0.307,0.113 c -0.109,0.079 -0.193,0.156 -0.307,0.243 -0.215,0.217 -0.405,0.435 -0.756,0.627 l 0.756,1.479 0,0 z m 0,-11.181 c 0.712,0.846 1.236,1.89 1.51,3.091 h -1.173 c -0.085,-0.354 -0.195,-0.711 -0.337,-1.038 -0.783,-2.076 -2.4,-3.551 -4.256,-4.781 -0.247,-0.141 -0.467,-0.301 -0.712,-0.438 0.245,0.083 0.465,0.163 0.712,0.246 1.69,0.682 3.193,1.613 4.256,2.92 l 0,0 z m -3.169,7.71 c 0.309,-0.054 0.769,-0.221 1.126,-0.494 l -1.863,-3.688 1.941,-0.927 -1.635,-1.418 -0.656,0.297 -2.817,1.281 0.827,1.858 1.333,-0.597 1.744,3.688 0,0 z m -5.077,0.517 c -0.111,-0.08 -0.223,-0.187 -0.327,-0.273 -0.219,-0.19 -0.414,-0.384 -0.542,-0.574 l -6.424,1.212 2.734,0.918 4.559,-1.283 0,0 z M 18.1,55.84 C 17.992,55.597 17.913,55.35 17.828,55.099 L 4.985,55.84 7.581,57.095 18.1,55.84 l 0,0 z"
   id="path43"
   inkscape:connector-curvature="0"
   style="fill:#00529b;fill-rule:evenodd" />
		<g
   id="g45">
			<g
   id="g47">
				<path
   d="m 98.798,76.901 c 4.236,0.668 12.351,1.715 22.289,1.933 9.918,0.25 21.578,-0.33 32.597,-1.976 11.018,-1.599 21.346,-4.285 28.68,-7.182 7.39,-2.784 11.522,-6.177 11.503,-6.19 0.04,0.02 -4.266,3.944 -12.094,7.312 -7.747,3.497 -18.686,6.851 -30.205,9.017 -11.506,2.227 -23.575,3.244 -33.393,3.304 -9.815,0.114 -17.441,-0.771 -20.113,-1.19 -9.235,-1.376 -15.944,-3.805 -20.038,-6.144 -4.133,-2.356 -5.51,-4.485 -5.079,-4.899 0.457,-0.491 2.515,0.503 6.683,1.792 4.172,1.307 10.523,2.938 19.17,4.223 z"
   id="path49"
   inkscape:connector-curvature="0"
   style="fill:#f47920" />
			</g>
		</g>
		<g
   id="g51">
			<path
   clip-rule="evenodd"
   d="m 275.223,7.136 -1.573,0.2 -1.009,0.096 c -1.892,0.164 -4.747,0.407 -7.267,2.012 -2.499,1.595 -5.363,4.926 -7.364,7.489 -21.702,3.634 -33.6,16.492 -41.473,25.011 l -4.935,5.76 0.827,-0.257 c 14.789,-13.646 27.979,-20.944 40.329,-22.309 l 0.183,-0.02 1.645,-2.146 3.461,-4.539 c 1.423,-1.282 3.392,-1.735 6.291,-2.066 l 5.059,-0.323 5.987,-0.42 c 3.42,-0.458 6.358,-1.246 10.39,-6.785 l 5.491,-7.412 -0.644,-0.558 C 285.583,5.86 280.08,6.538 275.223,7.136 z m 0.104,0.847 c 4.208,-0.517 8.877,-1.265 13.383,-4.542 -1.626,2.196 -3.625,4.895 -3.625,4.895 -3.842,5.276 -6.49,5.998 -9.814,6.441 0,0.003 -5.91,0.413 -5.91,0.413 l -5.119,0.331 c -2.162,0.244 -3.735,0.704 -5.117,1.392 1.925,-2.423 4.479,-5.323 6.713,-6.748 2.339,-1.495 5.068,-1.725 6.875,-1.882 l 1.052,-0.104 c 0,10e-4 1.562,-0.196 1.562,-0.196 z m -17.984,9.975 c -0.389,0.501 -3.435,4.495 -3.435,4.495 0,0 -1.252,1.635 -1.434,1.873 -10.551,1.215 -21.69,6.707 -33.854,16.641 7.686,-8.256 19.079,-19.455 38.723,-23.009 z m 16.42,-9.778 0,0 h 0.007 -0.007 z"
   id="path53"
   inkscape:connector-curvature="0"
   style="fill-rule:evenodd" />
			
				<linearGradient
   id="SVGID_1_"
   gradientUnits="userSpaceOnUse"
   x1="-3286.5796"
   y1="-3928.3291"
   x2="-3204.3096"
   y2="-3851.6111"
   gradientTransform="matrix(0.246,0,0,0.246,1029.1508,996.5813)">
				<stop
   offset="0.0056"
   style="stop-color:#C4161C"
   id="stop56" />
				<stop
   offset="0.3"
   style="stop-color:#C93627"
   id="stop58" />
				<stop
   offset="0.5"
   style="stop-color:#EBB39E"
   id="stop60" />
				<stop
   offset="0.7191"
   style="stop-color:#C93627"
   id="stop62" />
				<stop
   offset="1"
   style="stop-color:#C4161C"
   id="stop64" />
			</linearGradient>
			<path
   clip-rule="evenodd"
   d="m 212.15,47.151 c 15.694,-11.47 24.131,-16.024 42.773,-16.191 l -4.016,5.417 c -0.756,1.607 -1.929,1.534 -3.164,1.46 -13.327,-0.106 -22.636,0.888 -38.826,12.645 l 3.233,-3.331 z"
   id="path66"
   inkscape:connector-curvature="0"
   style="fill:url(#SVGID_1_);fill-rule:evenodd" />
			
				<linearGradient
   id="SVGID_2_"
   gradientUnits="userSpaceOnUse"
   x1="-3285.7183"
   y1="-3961.1313"
   x2="-3147.6008"
   y2="-3864.4204"
   gradientTransform="matrix(0.246,0,0,0.246,1029.1508,996.5813)">
				<stop
   offset="0"
   style="stop-color:#FFFFFF"
   id="stop69" />
				<stop
   offset="0.3427"
   style="stop-color:#FFFFFF"
   id="stop71" />
				<stop
   offset="0.55"
   style="stop-color:#FFFFFF"
   id="stop73" />
				<stop
   offset="0.9101"
   style="stop-color:#C2CAE3"
   id="stop75" />
			</linearGradient>
			<path
   clip-rule="evenodd"
   d="m 212.14,47.133 c 15.793,-14.572 28.978,-21.136 40.572,-22.417 1.026,-1.358 4.567,-5.907 5.64,-7.422 -26.428,4.315 -38.111,22.201 -46.212,29.839 z"
   id="path77"
   inkscape:connector-curvature="0"
   style="fill:url(#SVGID_2_);fill-rule:evenodd" />
			
				<linearGradient
   id="SVGID_3_"
   gradientUnits="userSpaceOnUse"
   x1="-3263.5693"
   y1="-3924.6646"
   x2="-3213.949"
   y2="-3878.3928"
   gradientTransform="matrix(0.246,0,0,0.246,1029.1508,996.5813)">
				<stop
   offset="0.1067"
   style="stop-color:#00529B"
   id="stop80" />
				<stop
   offset="0.5"
   style="stop-color:#778EC1"
   id="stop82" />
				<stop
   offset="0.5196"
   style="stop-color:#728ABF"
   id="stop84" />
				<stop
   offset="0.7283"
   style="stop-color:#3C69AA"
   id="stop86" />
				<stop
   offset="0.8811"
   style="stop-color:#00589F"
   id="stop88" />
				<stop
   offset="0.9607"
   style="stop-color:#00529B"
   id="stop90" />
			</linearGradient>
			<path
   clip-rule="evenodd"
   d="m 212.951,46.299 c -0.313,0.3 -1.403,1.475 -1.716,1.755 9.268,-6.834 17.03,-13.948 36.361,-16.578 0.963,-1.091 3.775,-4.789 5.1,-6.761 -17.623,2.396 -29.149,12.235 -39.745,21.584 z"
   id="path92"
   inkscape:connector-curvature="0"
   style="fill:url(#SVGID_3_);fill-rule:evenodd" />
			
				<linearGradient
   id="SVGID_4_"
   gradientUnits="userSpaceOnUse"
   x1="-3178.6011"
   y1="-3928.29"
   x2="-3149.2168"
   y2="-3909.9287"
   gradientTransform="matrix(0.246,0,0,0.246,1029.1508,996.5813)">
				<stop
   offset="0.0056"
   style="stop-color:#C4161C"
   id="stop95" />
				<stop
   offset="0.4944"
   style="stop-color:#C93627"
   id="stop97" />
				<stop
   offset="1"
   style="stop-color:#EBB39E"
   id="stop99" />
			</linearGradient>
			<path
   clip-rule="evenodd"
   d="m 250.557,37.002 c 0.17,-0.597 0.586,-1.041 -1.373,-2.196 -2.305,-1.358 -3.102,-0.787 -2.592,-2.168 0.379,-1.048 5.33,-3.134 8.943,-1.91 0.001,10e-4 -3.205,3.715 -4.978,6.274 z"
   id="path101"
   inkscape:connector-curvature="0"
   style="fill:url(#SVGID_4_);fill-rule:evenodd" />
			
				<linearGradient
   id="SVGID_5_"
   gradientUnits="userSpaceOnUse"
   x1="227.6714"
   y1="-112.8286"
   x2="249.27229"
   y2="-96.551201"
   gradientTransform="matrix(0.9841,0.0195,-0.0195,0.9841,32.0135,115.2372)">
				<stop
   offset="0.073"
   style="stop-color:#C2CAE3"
   id="stop104" />
				<stop
   offset="0.5"
   style="stop-color:#00529B"
   id="stop106" />
				<stop
   offset="0.545"
   style="stop-color:#00559E"
   id="stop108" />
				<stop
   offset="0.6155"
   style="stop-color:#1F5FA4"
   id="stop110" />
				<stop
   offset="0.7025"
   style="stop-color:#486FAE"
   id="stop112" />
				<stop
   offset="0.8028"
   style="stop-color:#738BBF"
   id="stop114" />
				<stop
   offset="0.9129"
   style="stop-color:#ABB7D9"
   id="stop116" />
				<stop
   offset="0.9494"
   style="stop-color:#C2CAE3"
   id="stop118" />
			</linearGradient>
			<path
   clip-rule="evenodd"
   d="m 264.44,15.588 c -3.615,0.484 -5.895,1.385 -7.343,3.21 l -5.048,6.761 c 1.101,-0.984 4.428,-1.468 8.032,-1.561 l 0.505,0.01 c 0.15,-0.01 0.306,0 0.459,-0.01 0.508,-0.013 1.048,-0.037 1.61,-0.051 5.112,-0.2 12.21,-0.921 16.354,-5.75 l 6.209,-8.586 0.743,-1.022 c -5.393,7.103 -17.698,6.489 -21.521,6.999 z"
   id="path120"
   inkscape:connector-curvature="0"
   style="fill:url(#SVGID_5_);fill-rule:evenodd" />
			
				<linearGradient
   id="SVGID_6_"
   gradientUnits="userSpaceOnUse"
   x1="221.91161"
   y1="-104.1655"
   x2="242.386"
   y2="-88.7369"
   gradientTransform="matrix(0.9841,0.0195,-0.0195,0.9841,32.0135,115.2372)">
				<stop
   offset="0.0562"
   style="stop-color:#EBB39E"
   id="stop123" />
				<stop
   offset="0.3278"
   style="stop-color:#C93627"
   id="stop125" />
				<stop
   offset="0.5169"
   style="stop-color:#C4161C"
   id="stop127" />
				<stop
   offset="0.7472"
   style="stop-color:#C93627"
   id="stop129" />
				<stop
   offset="0.9607"
   style="stop-color:#EBB39E"
   id="stop131" />
			</linearGradient>
			<path
   clip-rule="evenodd"
   d="m 267.438,23.101 c -3.878,0.543 -8.313,0.704 -9.585,0.768 -2.173,0.096 -5.061,0.79 -5.86,1.758 -2.436,3.027 -4.768,5.85 -5.4,7.012 1.488,-1.375 6.384,-1.225 12.325,-1.499 5.935,-0.271 11.948,-2.837 16.69,-8.243 l 3.603,-4.979 c -2.412,3.094 -6.661,4.469 -11.773,5.183 z"
   id="path133"
   inkscape:connector-curvature="0"
   style="fill:url(#SVGID_6_);fill-rule:evenodd" />
			
				<linearGradient
   id="SVGID_7_"
   gradientUnits="userSpaceOnUse"
   x1="232.90379"
   y1="-120.1172"
   x2="254.85719"
   y2="-103.5741"
   gradientTransform="matrix(0.9841,0.0195,-0.0195,0.9841,32.0135,115.2372)">
				<stop
   offset="0"
   style="stop-color:#FFFFFF"
   id="stop136" />
				<stop
   offset="0.3"
   style="stop-color:#FFFFFF"
   id="stop138" />
				<stop
   offset="0.5056"
   style="stop-color:#D4D9EC"
   id="stop140" />
				<stop
   offset="0.7"
   style="stop-color:#FFFFFF"
   id="stop142" />
				<stop
   offset="1"
   style="stop-color:#FFFFFF"
   id="stop144" />
			</linearGradient>
			<path
   clip-rule="evenodd"
   d="m 273.707,7.757 c -1.579,0.213 -5.14,0.156 -8.101,2.048 -2.967,1.892 -6.539,6.381 -8.295,8.744 1.632,-1.746 3.799,-2.243 6.979,-2.603 3.179,-0.367 7.772,-0.304 11.037,-0.745 3.136,-0.417 6.053,-1.047 10.102,-6.611 l 5.493,-7.415 c -5.694,5.64 -11.912,5.874 -17.215,6.582 z"
   id="path146"
   inkscape:connector-curvature="0"
   style="fill:url(#SVGID_7_);fill-rule:evenodd" />
		</g>
		<g
   id="g148">
			<polygon
   clip-rule="evenodd"
   points="40.449,35.195 40.449,29.524 51.134,29.524 51.134,26.545 40.449,26.545 40.449,21.382 51.712,21.382 51.712,18.401 32.53,18.401 32.53,38.208 52.335,38.208 52.335,38.208 52.335,35.195 "
   id="polygon150"
   style="fill:#00529b;fill-rule:evenodd" />
			<path
   clip-rule="evenodd"
   d="M 63.921,38.208 V 21.382 h 4.653 c 1.417,0 2.726,0.106 3.921,0.904 0.869,0.618 1.415,1.498 1.415,2.59 0,0.911 -0.324,1.849 -1.523,2.609 -1.563,1.018 -4.285,1.158 -5.993,0.952 l -0.98,-0.117 7.887,9.888 h 9.151 l -7.485,-8.252 c 1.341,-0.147 3.491,-0.68 4.795,-1.518 1.561,-1.059 2.36,-2.621 2.36,-4.078 0,-1.632 -0.877,-3.407 -2.866,-4.575 -2.367,-1.342 -5.596,-1.382 -8.575,-1.382 H 55.967 v 19.806 h 7.954 l 0,-0.001 z"
   id="path152"
   inkscape:connector-curvature="0"
   style="fill:#00529b;fill-rule:evenodd" />
			<polygon
   clip-rule="evenodd"
   points="127.866,26.868 127.866,21.382 139.421,21.382 139.421,18.401 119.952,18.401 119.952,38.208 127.866,38.208 127.866,38.208 127.866,29.849 138.549,29.849 138.549,26.868 "
   id="polygon154"
   style="fill:#00529b;fill-rule:evenodd" />
			<polygon
   clip-rule="evenodd"
   points="142.292,18.401 142.292,38.208 161.916,38.208 161.916,35.195 150.25,35.195 150.25,18.401 150.25,18.401 "
   id="polygon156"
   style="fill:#00529b;fill-rule:evenodd" />
			<polygon
   clip-rule="evenodd"
   points="219.645,18.401 194.615,18.401 194.615,21.382 194.615,21.382 203.153,21.382 203.153,38.208 211.112,38.208 211.112,21.382 219.645,21.382 "
   id="polygon158"
   style="fill:#00529b;fill-rule:evenodd" />
			<path
   clip-rule="evenodd"
   d="m 177.757,17.825 c -3.706,0 -8.902,0.838 -12.391,3.337 -2.767,1.962 -4.069,4.768 -4.069,7.158 0,2.366 1.303,5.166 4.069,7.128 3.489,2.465 8.685,3.303 12.391,3.303 3.702,0 8.936,-0.838 12.421,-3.303 2.765,-1.962 4.039,-4.762 4.039,-7.128 0,-2.39 -1.274,-5.196 -4.039,-7.158 -3.485,-2.499 -8.719,-3.301 -12.421,-3.337 l 0,0 z m 0,18.53 c -1.965,0 -4.29,-0.437 -6.002,-2.583 -1.415,-1.742 -1.668,-3.745 -1.668,-5.453 0,-1.775 0.253,-3.741 1.668,-5.483 1.712,-2.186 4.037,-2.617 6.002,-2.617 1.993,0 4.29,0.431 6.023,2.617 1.422,1.742 1.679,3.708 1.679,5.483 0,1.708 -0.257,3.711 -1.679,5.453 -1.733,2.147 -4.03,2.583 -6.023,2.583 l 0,0 z"
   id="path160"
   inkscape:connector-curvature="0"
   style="fill:#00529b;fill-rule:evenodd" />
			<path
   clip-rule="evenodd"
   d="m 100.747,17.825 c -3.703,0 -8.897,0.838 -12.384,3.337 -2.767,1.962 -4.076,4.768 -4.076,7.158 0,2.366 1.309,5.166 4.076,7.128 3.487,2.465 8.682,3.303 12.384,3.303 3.702,0 8.939,-0.838 12.429,-3.303 2.757,-1.962 4.033,-4.762 4.033,-7.128 0,-2.39 -1.276,-5.196 -4.033,-7.158 -3.49,-2.499 -8.727,-3.301 -12.429,-3.337 l 0,0 z m 0,18.53 c -1.962,0 -4.289,-0.437 -5.994,-2.583 -1.416,-1.742 -1.673,-3.745 -1.673,-5.453 0,-1.775 0.257,-3.741 1.673,-5.483 1.705,-2.186 4.032,-2.617 5.994,-2.617 1.994,0 4.288,0.431 6.03,2.617 1.419,1.742 1.672,3.708 1.672,5.483 0,1.708 -0.253,3.711 -1.672,5.453 -1.742,2.147 -4.037,2.583 -6.03,2.583 l 0,0 z"
   id="path162"
   inkscape:connector-curvature="0"
   style="fill:#00529b;fill-rule:evenodd" />
			<path
   clip-rule="evenodd"
   d="m 4.625,38.208 3.127,-5.75 h 11.013 l 3.375,5.75 h 8.9 L 18.982,18.401 H 11.603 L 0.667,38.208 h 3.958 l 0,0 z m 4.578,-8.434 3.745,-6.901 h 0.11 l 4.066,6.901 H 9.203 l 0,0 z"
   id="path164"
   inkscape:connector-curvature="0"
   style="fill:#00529b;fill-rule:evenodd" />
		</g>
		<g
   id="g166">
			<path
   clip-rule="evenodd"
   d="m 84.015,54.079 -1.763,6.504 c -0.218,0.26 -0.557,0.478 -0.864,0.641 -0.475,0.257 -0.946,0.394 -1.38,0.394 -0.432,0 -0.815,-0.173 -0.991,-0.438 -0.128,-0.217 -0.255,-0.558 -0.085,-1.164 l 1.596,-5.937 h -1.639 l -1.545,5.723 c -0.131,0.521 -0.347,1.422 0.124,2.112 0.262,0.388 0.825,0.821 1.979,0.821 0.478,0 0.954,-0.084 1.559,-0.344 0.384,-0.224 0.811,-0.478 1.16,-0.737 l -0.256,0.907 h 1.46 l 2.292,-8.482 h -1.647 l 0,0 z"
   id="path168"
   inkscape:connector-curvature="0"
   style="fill:#00529b;fill-rule:evenodd" />
			<path
   clip-rule="evenodd"
   d="m 94.5,55.059 c -0.39,-0.514 -0.867,-0.771 -0.953,-0.817 -0.548,-0.293 -1.158,-0.344 -1.682,-0.344 -0.558,0 -1.249,0.051 -2.019,0.518 -0.562,0.393 -1.249,0.991 -1.503,1.985 -0.23,0.73 -0.137,1.288 0.124,1.636 0.299,0.39 0.817,0.6 1.254,0.729 l 0.814,0.265 c 0.426,0.086 0.861,0.086 1.116,0.423 0.13,0.177 0.267,0.395 0.177,0.822 -0.132,0.387 -0.384,0.644 -0.604,0.817 -0.299,0.263 -0.82,0.483 -1.55,0.483 -0.472,0 -0.862,-0.097 -1.248,-0.313 -0.342,-0.254 -0.604,-0.471 -0.735,-0.681 l -1.082,0.994 c 0.779,1.021 1.733,1.158 2.675,1.158 0.642,0 1.94,-0.084 3.019,-0.904 0.598,-0.514 1.033,-1.168 1.209,-1.726 0.085,-0.437 0.17,-1.074 -0.043,-1.469 -0.306,-0.6 -0.994,-0.857 -1.383,-0.947 l -0.604,-0.174 c -0.769,-0.174 -1.117,-0.257 -1.291,-0.474 -0.168,-0.123 -0.303,-0.384 -0.168,-0.901 0.078,-0.213 0.258,-0.563 0.595,-0.82 0.431,-0.261 0.828,-0.301 1.126,-0.301 0.386,0 0.731,0.09 1.035,0.301 0.259,0.17 0.47,0.391 0.644,0.607 l 1.077,-0.867 0,0 z"
   id="path170"
   inkscape:connector-curvature="0"
   style="fill:#00529b;fill-rule:evenodd" />
			<path
   clip-rule="evenodd"
   d="m 103.336,55.059 c -0.347,-0.514 -0.818,-0.771 -0.946,-0.817 -0.514,-0.293 -1.125,-0.344 -1.637,-0.344 -0.594,0 -1.249,0.051 -2.025,0.518 -0.561,0.393 -1.251,0.991 -1.552,1.985 -0.164,0.73 -0.085,1.288 0.174,1.636 0.301,0.39 0.867,0.6 1.248,0.729 l 0.774,0.265 c 0.431,0.086 0.867,0.086 1.165,0.423 0.13,0.177 0.258,0.395 0.13,0.822 -0.13,0.387 -0.384,0.644 -0.563,0.817 -0.302,0.263 -0.815,0.483 -1.55,0.483 -0.473,0 -0.857,-0.097 -1.29,-0.313 -0.349,-0.254 -0.563,-0.471 -0.734,-0.681 l -1.078,0.994 c 0.829,1.021 1.772,1.158 2.715,1.158 0.651,0 1.937,-0.084 3.019,-0.904 0.602,-0.514 1.034,-1.168 1.163,-1.726 0.13,-0.437 0.17,-1.074 -0.043,-1.469 -0.258,-0.6 -0.95,-0.857 -1.375,-0.947 l -0.608,-0.174 c -0.736,-0.174 -1.07,-0.257 -1.251,-0.474 -0.167,-0.123 -0.295,-0.384 -0.167,-0.901 0.085,-0.213 0.214,-0.563 0.602,-0.82 0.391,-0.261 0.817,-0.301 1.074,-0.301 0.437,0 0.777,0.09 1.081,0.301 0.262,0.17 0.472,0.391 0.646,0.607 l 1.028,-0.867 0,0 z"
   id="path172"
   inkscape:connector-curvature="0"
   style="fill:#00529b;fill-rule:evenodd" />
			<path
   clip-rule="evenodd"
   d="m 106.496,54.079 -0.305,1.114 h 0.99 l -1.973,7.368 h 1.63 l 2.282,-8.482 h -2.624 l 0,0 z m 1.036,-2.801 c -0.138,0.598 0.215,1.072 0.78,1.072 0.6,0 1.155,-0.475 1.328,-1.072 0.168,-0.567 -0.173,-1.037 -0.777,-1.037 -0.551,0 -1.157,0.469 -1.331,1.037 l 0,0 z"
   id="path174"
   inkscape:connector-curvature="0"
   style="fill:#00529b;fill-rule:evenodd" />
			<path
   clip-rule="evenodd"
   d="m 122.5,62.561 1.814,-6.678 c 0.568,-0.477 1.427,-0.864 2.199,-0.864 0.561,0 0.868,0.214 0.991,0.471 0.261,0.394 0.132,1.034 0.041,1.295 l -1.549,5.776 h 1.64 l 1.549,-5.643 c 0.177,-0.694 0.257,-1.512 -0.129,-2.199 -0.347,-0.558 -0.987,-0.821 -1.897,-0.821 -0.554,0 -1.503,0.131 -2.543,0.821 l 0.176,-0.641 h -2.634 l -0.296,1.114 h 0.989 l -1.98,7.368 h 1.629 l 0,10e-4 z"
   id="path176"
   inkscape:connector-curvature="0"
   style="fill:#00529b;fill-rule:evenodd" />
			<path
   clip-rule="evenodd"
   d="m 68.608,50.328 -3.314,12.233 h 1.848 l 1.432,-5.379 h 1.241 l 1.728,5.379 h 0.13 2.104 l -1.979,-5.473 c 0.908,-0.093 2.116,-0.518 2.844,-1.078 0.813,-0.604 1.426,-1.465 1.631,-2.37 0.262,-0.867 0.141,-1.765 -0.374,-2.362 -0.694,-0.867 -2.074,-0.95 -3.066,-0.95 h -1.16 -3.065 l 0,0 z m 3.065,5.462 c -0.13,0 -0.218,0 -0.304,0 h -2.411 l 1.08,-4.044 h 1.635 0.823 c 0.26,0 1.071,0 1.505,0.431 0.255,0.26 0.473,0.69 0.294,1.378 -0.17,0.647 -0.518,1.165 -1.029,1.596 -0.559,0.426 -1.166,0.602 -1.593,0.639 l 0,0 z"
   id="path178"
   inkscape:connector-curvature="0"
   style="fill:#00529b;fill-rule:evenodd" />
			<path
   clip-rule="evenodd"
   d="m 114.526,57.606 c -1.721,0.173 -3.147,0.861 -3.618,2.632 -0.045,0.207 -0.088,0.384 -0.088,0.555 v 0.301 c 0.043,0.95 0.688,1.642 2.11,1.642 0.514,0 1.032,-0.084 1.596,-0.311 0.047,0 0.088,-0.033 0.169,-0.077 0.563,-0.26 0.986,-0.693 1.123,-0.82 h 0.085 l -0.295,1.034 h 1.463 l 1.506,-5.473 c 0.219,-0.864 0.427,-1.726 -0.047,-2.369 -0.39,-0.604 -1.376,-0.821 -2.147,-0.821 -0.739,0 -1.385,0.09 -1.858,0.217 -1.502,0.384 -2.069,1.292 -2.113,2.109 l 1.513,0.087 c 0.122,-0.428 0.301,-0.734 0.6,-0.948 0.347,-0.254 0.864,-0.344 1.51,-0.344 0.348,0 0.774,0.04 0.945,0.344 0.264,0.304 0.174,0.734 0.09,1.125 l -0.304,1.074 h -1.207 c -0.348,-0.001 -0.728,-0.001 -1.033,0.043 l 0,0 z m 0,3.874 c -0.259,0.097 -0.517,0.137 -0.779,0.137 -0.337,0 -0.771,-0.04 -1.027,-0.394 -0.215,-0.304 -0.263,-0.602 -0.13,-1.035 0.085,-0.34 0.255,-0.688 0.685,-1.03 0.258,-0.174 0.604,-0.392 1.251,-0.471 0.213,-0.051 0.473,-0.09 0.781,-0.09 h 1.206 l -0.476,1.805 c -0.261,0.347 -0.518,0.561 -0.825,0.777 -0.253,0.138 -0.473,0.265 -0.686,0.301 l 0,0 z"
   id="path180"
   inkscape:connector-curvature="0"
   style="fill:#00529b;fill-rule:evenodd" />
			<path
   clip-rule="evenodd"
   d="m 153.877,54.079 -0.298,1.114 h 0.991 l -1.988,7.368 h 1.64 l 2.281,-8.482 h -2.626 l 0,0 z m 1.516,-2.801 c -0.135,0.598 0.21,1.072 0.776,1.072 0.553,0 1.158,-0.475 1.329,-1.072 0.177,-0.567 -0.171,-1.037 -0.776,-1.037 -0.554,0 -1.17,0.469 -1.329,1.037 l 0,0 z"
   id="path182"
   inkscape:connector-curvature="0"
   style="fill:#00529b;fill-rule:evenodd" />
			<path
   clip-rule="evenodd"
   d="m 160.126,54.079 -2.28,8.482 h 1.639 l 1.293,-4.872 c 0.213,-0.558 0.425,-1.118 0.732,-1.549 0.516,-0.82 1.113,-0.947 1.465,-0.947 0.215,0 0.468,0.04 0.645,0.214 0.121,0.133 0.172,0.383 0.172,0.69 l 1.465,-0.431 c 0.295,-0.858 0,-1.338 -0.514,-1.588 -0.268,-0.13 -0.566,-0.181 -0.867,-0.181 -0.948,0 -1.889,0.518 -2.543,1.422 l 0.342,-1.241 h -1.549 l 0,10e-4 z"
   id="path184"
   inkscape:connector-curvature="0"
   style="fill:#00529b;fill-rule:evenodd" />
			<path
   clip-rule="evenodd"
   d="m 169.183,50.154 -2.711,10.084 c -0.21,0.771 -0.604,2.323 1.34,2.323 h 0.945 l 0.299,-1.117 h -0.468 c -0.817,0 -0.606,-0.695 -0.568,-0.861 l 2.805,-10.429 h -1.642 l 0,0 z"
   id="path186"
   inkscape:connector-curvature="0"
   style="fill:#00529b;fill-rule:evenodd" />
			<path
   clip-rule="evenodd"
   d="m 173.614,54.079 -0.29,1.114 h 0.994 l -2.034,7.368 h 1.681 l 2.287,-8.482 h -2.638 l 0,0 z m 1.511,-2.801 c -0.132,0.598 0.215,1.072 0.776,1.072 0.606,0 1.167,-0.475 1.336,-1.072 0.129,-0.567 -0.218,-1.037 -0.771,-1.037 -0.607,0 -1.164,0.469 -1.341,1.037 l 0,0 z"
   id="path188"
   inkscape:connector-curvature="0"
   style="fill:#00529b;fill-rule:evenodd" />
			<path
   clip-rule="evenodd"
   d="m 179.636,62.561 1.764,-6.678 c 0.603,-0.477 1.467,-0.864 2.237,-0.864 0.562,0 0.869,0.214 0.994,0.471 0.301,0.394 0.087,1.034 0.044,1.295 l -1.547,5.776 h 1.631 l 1.552,-5.643 c 0.173,-0.694 0.26,-1.512 -0.13,-2.199 -0.337,-0.558 -0.991,-0.821 -1.89,-0.821 -0.606,0 -1.469,0.131 -2.543,0.821 l 0.171,-0.641 h -2.627 l -0.304,1.114 h 0.989 L 178,62.561 h 1.636 l 0,0 z"
   id="path190"
   inkscape:connector-curvature="0"
   style="fill:#00529b;fill-rule:evenodd" />
			<path
   clip-rule="evenodd"
   d="m 204.93,55.059 c -0.341,-0.514 -0.771,-0.771 -0.908,-0.817 -0.559,-0.293 -1.11,-0.344 -1.632,-0.344 -0.612,0 -1.251,0.051 -2.022,0.518 -0.605,0.393 -1.295,0.991 -1.552,1.985 -0.226,0.73 -0.088,1.288 0.166,1.636 0.262,0.39 0.822,0.6 1.211,0.729 l 0.819,0.265 c 0.425,0.086 0.866,0.086 1.11,0.423 0.182,0.177 0.268,0.395 0.182,0.822 -0.124,0.387 -0.383,0.644 -0.604,0.817 -0.263,0.263 -0.777,0.483 -1.55,0.483 -0.485,0 -0.825,-0.097 -1.256,-0.313 -0.341,-0.254 -0.595,-0.471 -0.728,-0.681 l -1.077,0.994 c 0.774,1.021 1.727,1.158 2.673,1.158 0.688,0 1.938,-0.084 3.015,-0.904 0.607,-0.514 1.028,-1.168 1.207,-1.726 0.13,-0.437 0.175,-1.074 -0.035,-1.469 -0.265,-0.6 -1.003,-0.857 -1.382,-0.947 l -0.61,-0.174 c -0.722,-0.174 -1.075,-0.257 -1.288,-0.474 -0.135,-0.123 -0.301,-0.384 -0.174,-0.901 0.086,-0.213 0.207,-0.563 0.605,-0.82 0.426,-0.261 0.856,-0.301 1.12,-0.301 0.429,0 0.726,0.09 1.069,0.301 0.221,0.17 0.432,0.391 0.607,0.607 l 1.034,-0.867 0,0 z"
   id="path192"
   inkscape:connector-curvature="0"
   style="fill:#00529b;fill-rule:evenodd" />
			<path
   clip-rule="evenodd"
   d="m 139.338,62.561 h 1.853 l 1.853,-2.977 h 4.693 l 0.217,2.977 h 2.112 l -1.16,-12.233 h -1.51 l -8.058,12.233 0,0 z m 4.568,-4.394 3.315,-5.213 h 0.041 l 0.395,5.213 h -3.751 l 0,0 z"
   id="path194"
   inkscape:connector-curvature="0"
   style="fill:#00529b;fill-rule:evenodd" />
			<path
   clip-rule="evenodd"
   d="m 190.507,58.687 h 5.118 l 0.136,-0.561 c 0.342,-1.131 0.683,-2.29 0.088,-3.233 -0.519,-0.814 -1.553,-0.995 -2.289,-0.995 -1.091,0 -2.138,0.391 -2.97,1.121 -1.125,0.991 -1.588,2.322 -1.85,3.448 -0.258,0.906 -0.521,2.281 0.168,3.276 0.645,0.854 1.816,0.991 2.629,0.991 0.66,0 1.27,-0.094 1.902,-0.311 0.339,-0.123 0.768,-0.297 1.155,-0.511 l -0.251,-0.994 c -0.395,0.174 -0.692,0.304 -1.126,0.397 -0.402,0.073 -0.781,0.163 -1.21,0.163 -0.641,0 -1.205,-0.217 -1.501,-0.597 -0.478,-0.561 -0.259,-1.43 -0.127,-1.853 l 0.128,-0.341 0,0 z m 0.255,-1.125 0.085,-0.38 c 0.178,-0.44 0.391,-1.128 0.944,-1.605 0.364,-0.354 0.923,-0.558 1.427,-0.558 0.434,0 0.858,0.131 1.078,0.388 0.383,0.521 0.21,1.251 0.048,1.812 l -0.094,0.344 h -3.488 l 0,-0.001 z"
   id="path196"
   inkscape:connector-curvature="0"
   style="fill:#00529b;fill-rule:evenodd" />
		</g>
	</g>
</g>
</svg>